<svg xmlns="http://www.w3.org/2000/svg" xmlns:xlink="http://www.w3.org/1999/xlink" viewBox="0 0 62 62"><defs><radialGradient id="a" cx="32" cy="32" r="31" gradientUnits="userSpaceOnUse"><stop offset="0" stop-color="#86ff91"/><stop offset="1" stop-color="#108670"/></radialGradient><radialGradient id="b" cx="16" cy="39" r="2.92" xlink:href="#a"/><radialGradient id="c" cx="16" cy="43" r="2.92" xlink:href="#a"/><radialGradient id="d" cx="20" cy="53" r="6.52" xlink:href="#a"/><radialGradient id="e" cx="34" cy="57" r="4.3" xlink:href="#a"/><radialGradient id="f" cx="34" cy="53" r="4.3" xlink:href="#a"/><radialGradient id="g" cx="33" cy="49" r="3.61" xlink:href="#a"/></defs><path d="M59,39H45V35h1A17,17,0,1,0,29.8,13H1V55H9v8H45V51h9a2.9,2.9,0,0,0,2.8-4H59a4,4,0,0,0,0-8ZM33,45V41H51v4Zm-2-.3-5.8-1.4c-.1-.1-.2-.2-.2-.3s.1-.2.2-.3L31,41.3Zm9.1-34.5L37.7,6.5l-.4-.7a14.9,14.9,0,0,1,5.9-2.5A8.8,8.8,0,0,0,43,4.9a6.9,6.9,0,0,0,4.5,6.5l2.2.8a2.7,2.7,0,0,1,1.7,2A4.8,4.8,0,0,0,56,18a10.2,10.2,0,0,0,4.9-1.3A5.7,5.7,0,0,1,61,18a16.4,16.4,0,0,1-.2,2.3,8.5,8.5,0,0,0-2.3-.3H56.2a7.3,7.3,0,0,1-6.6-4.1A3.4,3.4,0,0,0,46.5,14,3.5,3.5,0,0,0,43,17.5V21H36.5A4.9,4.9,0,0,1,38,19.3a6,6,0,0,0,3-5.2v-.6A6.3,6.3,0,0,0,40.1,10.2ZM45,33V27.2a4.4,4.4,0,0,0,2.5.8A2.5,2.5,0,0,1,50,30.5a12.3,12.3,0,0,0,.2,1.9A14.2,14.2,0,0,1,46,33Zm7.1-1.3c0-.4-.1-.8-.1-1.2A4.5,4.5,0,0,0,47.5,26,2.5,2.5,0,0,1,45,23.5v-6A1.5,1.5,0,0,1,46.5,16a1.6,1.6,0,0,1,1.3.8A9.3,9.3,0,0,0,56.2,22h2.3a6.3,6.3,0,0,1,1.9.3A15.2,15.2,0,0,1,52.1,31.7Zm8.5-17.1A8.1,8.1,0,0,1,56,16a2.7,2.7,0,0,1-2.6-2.2,4.6,4.6,0,0,0-3-3.5l-2.2-.8A5,5,0,0,1,45,4.9,4.3,4.3,0,0,1,45.4,3H46A15,15,0,0,1,60.6,14.6ZM35.7,7.1l.3.5,2.4,3.7a4,4,0,0,1,.6,2.2v.6a4.5,4.5,0,0,1-2,3.6A5.9,5.9,0,0,0,34.3,21h-3a15.3,15.3,0,0,1-.3-3A14.9,14.9,0,0,1,35.7,7.1ZM12.4,29,17,24.4V29ZM15,31h4V27H39v8H15Zm2.6-10-6,6H7V19H29l.3,2ZM3,53V15H29.3L29,17H5V29H9.6l-.6.6V31H5v2H9v2H5v2H9v2H5v2H9v2H5v2H9v2H5v2H9v4Zm52-5a.9.9,0,0,1-1,1H41v2h2V61H11V31h2v6H41V25H19V23H43V39H32l-7.3,1.8a2.3,2.3,0,0,0,0,4.4L31.8,47H54A.9.9,0,0,1,55,48Zm4-3H53V41h6a2,2,0,0,1,0,4Z" transform="translate(-1 -1)" style="fill:url(#a)"/><rect x="12" y="38" width="8" height="2" style="fill:url(#b)"/><rect x="12" y="42" width="8" height="2" style="fill:url(#c)"/><path d="M13,59H27V47H13Zm2-10H25v8H15Z" transform="translate(-1 -1)" style="fill:url(#d)"/><rect x="28" y="56" width="12" height="2" style="fill:url(#e)"/><rect x="28" y="52" width="12" height="2" style="fill:url(#f)"/><rect x="28" y="48" width="10" height="2" style="fill:url(#g)"/></svg>