<svg xmlns="http://www.w3.org/2000/svg" viewBox="0 0 460.1 436.5"><rect x="1" y="1" width="458.1" height="433.04" rx="65" style="fill:#fff"/><rect x="1" y="1" width="458.1" height="433.04" rx="65" style="fill:none;stroke:#0180c7;stroke-miterlimit:10;stroke-width:2px"/><path d="M311,524.8c-27.3,0-54.7.9-82-.2-32.3-1.2-57-28.4-56.9-60.7,0-104.3.2-208.7,0-313-.1-35.7,27.8-60.6,59.9-61.5,33.6-.8,67.3-.2,101-.2.6,0,1.3-.3,1.7.7s-2,2-3.1,2.6c-19.8,11.7-38,25.6-53.1,42.7-25.2,28.4-42.5,61.1-48.4,98.9-10.4,67,10.5,123.7,57.8,171.1,8.5,8.5,9.6,15.1,2.8,26.6-8.1,13.6-20.4,23-33.5,31.4-1.4,1-2.8,1.8-4.1,2.8s-.8,2.7,1,3.5a10.4,10.4,0,0,0,1.5,2.5c11.4,10.2,22.3,21.1,33.6,31.5,5.4,4.9,10.6,9.9,15.8,15.1C307,520.6,310.5,521.3,311,524.8Z" transform="translate(-171.5 -88.6)" style="fill:#0180c7"/><path d="M311,524.8c-.5-3.5-4-4.2-6-6.2-5.2-5.2-10.4-10.2-15.8-15.1-11.3-10.4-22.2-21.3-33.6-31.5a10.4,10.4,0,0,1-1.5-2.5c25.5,5,50.4,1.6,74.9-5.9,8.3-2.6,16.6-5,25-7.2a28.6,28.6,0,0,1,17.1.8C434.6,479,497.2,477,558.7,450a222.9,222.9,0,0,0,67.4-46.2c1-1,1.7-2.5,3.4-2.6.9,1.4.4,2.9.4,4.3.1,19.5.1,39,.1,58.5a60.5,60.5,0,0,1-60.5,60.9c-36,.2-72,.1-108,.1H311Z" transform="translate(-171.5 -88.6)" style="fill:#0172b1"/><path d="M369.9,301c-14.1-.1-28.2,0-43.4,0l3.7-4.8,39.3-49.8c3.8-4.9,7.6-9.8,10-15.5s-.2-12.8-7-15.2a29.6,29.6,0,0,0-9.4-1.1H309.6a26.8,26.8,0,0,0-7.4.9,10.4,10.4,0,0,0-7.9,10.3,10.3,10.3,0,0,0,8.1,10.1,26.3,26.3,0,0,0,7.4.9h32.5c1.2,0,2.7-.8,3.6.9l-2.7,3.5c-15.4,19.7-30.9,39.3-46.3,58.9-3.9,4.9-5.8,10.3-3,16.3s8.4,7.1,14.2,7.5,9.3.1,14,.1c16.2,0,32.3.1,48.5-.1,8.6-.1,13.2-5.4,12.3-13.3C382.1,304.5,377.8,301.1,369.9,301Z" transform="translate(-171.5 -88.6)" style="fill:#0180c7"/><path d="M451.5,241.6c-4.1.8-6.5,3.7-9,6.8-12.4-10.9-26.2-11.6-39.8-3.6-16.3,9.6-22.4,25.3-20.3,43.5s9.2,30.9,27,36.7c11.1,3.6,21.4,2.3,30.5-5.1,2.4-1.9,3.1-1.5,4.8.6a12.3,12.3,0,0,0,13.9,3.9A11.9,11.9,0,0,0,467,313c.1-19.9.2-39.9-.1-59.9C466.8,245.1,459.4,240,451.5,241.6ZM437.6,297a16.4,16.4,0,0,1-26.2,0,21.6,21.6,0,0,1-4.2-12.1c-.1-14.1,7.6-22.6,18.5-21.9a15.4,15.4,0,0,1,11.9,6.3C443.2,276.9,443.2,289.4,437.6,297Z" transform="translate(-171.5 -88.6)" style="fill:#0180c7"/><path d="M596.8,281.2c-.8-25-19.5-42.1-44.9-41.3s-40.8,19.9-40.1,45.6,20.4,43.9,46.3,41.3C582.1,324.4,597.6,306.5,596.8,281.2Zm-29.6,16.1a16.4,16.4,0,0,1-25.9-.2,22.6,22.6,0,0,1-4.3-14c0-12.5,7.6-20.7,18.4-20.1a15,15,0,0,1,11.9,6.3C573,276.9,573,289.7,567.2,297.3Z" transform="translate(-171.5 -88.6)" style="fill:#0180c7"/><path d="M503.1,218.6c-.1-7.9-5.2-12.9-12.8-12.9s-12.2,5.1-12.4,12.8v93.4c0,6.3,3.8,11.6,8.9,12.9a13,13,0,0,0,16.3-12.7c.1-15.5,0-31,0-46.5S503.2,234.3,503.1,218.6Z" transform="translate(-171.5 -88.6)" style="fill:#0180c7"/></svg>