<svg xmlns="http://www.w3.org/2000/svg" xmlns:xlink="http://www.w3.org/1999/xlink" viewBox="0 0 508 354.5"><defs><linearGradient id="a" x1="2111.58" y1="3381.74" x2="2212.43" y2="3381.74" gradientUnits="userSpaceOnUse"><stop offset="0" stop-color="#f9ba4d"/><stop offset="1" stop-color="#e54d2e"/></linearGradient><linearGradient id="b" x1="1984.18" y1="3381.74" x2="2085.03" y2="3381.74" gradientUnits="userSpaceOnUse"><stop offset="0" stop-color="#e54d2e"/><stop offset="1" stop-color="#f9ba4d"/></linearGradient><linearGradient id="c" x1="2127.87" y1="3499.55" x2="2327.44" y2="3499.55" xlink:href="#a"/><linearGradient id="d" x1="1869.17" y1="3499.55" x2="2068.75" y2="3499.55" xlink:href="#b"/></defs><path d="M2090.9,3634.4c-1-1-105.2-97.4-153.2-131.9-12.5,9.5-26,14.5-39.1,14.5a50.6,50.6,0,0,1-36.9-16c-19.4-20.7-23.1-58.2,4.5-85.2,9.5-9.3,25.1-14.9,41.9-14.9a78.3,78.3,0,0,1,41.3,11.8c3.8,2.4,11.7,8.1,23.5,17.1l19.8-24.5c-5.3-5.1-9.9-9.8-13.7-14.1-23.8-26.6-15.6-66.5,6.9-87.1,9.2-8.3,19.6-12.7,30.1-12.7s22.1,5.1,31,14.7c19.1,20.5,11.7,41.8,6.6,51.4,13.9,10.2,29.7,20.6,44.7,29.6,15-9,30.8-19.4,44.8-29.6-5.2-9.6-12.6-30.9,6.5-51.4,8.9-9.6,19.7-14.7,31-14.7s20.9,4.4,30.1,12.7c22.5,20.6,30.7,60.5,6.9,87.1-3.8,4.3-8.4,9-13.7,14.1l19.9,24.5c11.7-9,19.6-14.7,23.4-17.1a78.6,78.6,0,0,1,41.3-11.8c16.8,0,32.4,5.6,41.9,14.9,27.6,27,23.9,64.5,4.5,85.2a50.6,50.6,0,0,1-36.9,16h0c-13.1,0-26.6-5-39.1-14.5-48,34.5-152.2,130.9-153.2,131.9l-7.4,6.8ZM1872,3443.9c18.5,4.9,44.3,17.9,71.2,36s76.4,60.9,114.3,94.8l9.1-43.8c-27.6-22-113.4-90.3-128.7-99.8a57.5,57.5,0,0,0-30.1-8.5c-11.1,0-20.9,3.2-26.5,8.6A48.1,48.1,0,0,0,1872,3443.9Zm267.2,130.8c37.8-33.9,87.4-76.9,114.2-94.8s52.7-31.1,71.2-36a48.1,48.1,0,0,0-9.3-12.7c-5.5-5.4-15.4-8.6-26.5-8.6a57.5,57.5,0,0,0-30.1,8.5c-14.1,8.8-86.2,65.9-128.6,99.8ZM1990,3443c25.8,19.9,58,45.4,81.5,64.1l12.9-62-6-3.5-17.5,21.8-8.4-6.5c-1-.8-22.6-17.6-43.9-36.8Zm135.1,64.1c23.5-18.7,55.7-44.2,81.5-64.1l-18.5-22.9c-21.4,19.2-43,36-44,36.8l-8.4,6.5-17.5-21.8-6,3.5ZM1868,3465.3a36.7,36.7,0,0,0,9.5,20.8,29,29,0,0,0,21.2,9.3c6.3,0,12.9-2,19.5-5.9C1892.8,3473.8,1876,3467.6,1868,3465.3Zm410.4,24.2c6.7,3.9,13.2,5.9,19.5,5.9a28.9,28.9,0,0,0,21.2-9.3,36.7,36.7,0,0,0,9.5-20.8C2320.6,3467.6,2303.9,3473.8,2278.4,3489.5ZM1992,3331.1c-6.9,12.6-9.8,31.1,3.2,45.7,17.3,19.4,48.2,45,62.2,56.3l24.7-30.5C2060.2,3389.2,2012.7,3358.3,1992,3331.1Zm147.2,102c14-11.3,44.9-36.9,62.2-56.3,13-14.6,10.1-33.1,3.2-45.7-20.7,27.2-68.2,58.1-90,71.5Zm-132-117.7c5.1,7.6,15,17.4,28.8,28.6,2.4-6.2,3-14.7-4.8-23.1-4.8-5.2-9.9-7.8-15.2-7.8A19.6,19.6,0,0,0,2007.2,3315.4Zm173.4-2.3c-5.3,0-10.4,2.6-15.2,7.8-7.8,8.4-7.2,16.9-4.7,23.1,13.8-11.2,23.6-21,28.7-28.6A19.6,19.6,0,0,0,2180.6,3313.1Z" transform="translate(-1844.3 -3289.4)" style="fill:#0c3251"/><path d="M2016,3293.4c10.5,0,20.9,4.7,29.6,14.1,16.9,18.2,12.6,38.1,5.4,50.6,15.9,11.7,33.1,22.9,47.3,31.3,14.2-8.4,31.4-19.6,47.3-31.3-7.2-12.5-11.5-32.4,5.4-50.6,8.7-9.4,19.1-14.1,29.6-14.1s19.8,4,28.7,12.2c21.9,19.9,29.8,58.5,6.8,84.3-4.4,4.9-9.4,10.1-14.8,15.3l22.1,27.3c11.6-8.8,20.6-15.4,24.9-18.1a75.7,75.7,0,0,1,40.2-11.5c16.6,0,31.6,5.6,40.5,14.3,26.7,26.2,23.2,62.5,4.4,82.4A48.5,48.5,0,0,1,2298,3515c-12.2,0-25.6-4.4-39.1-15-47.6,33.9-153.5,131.9-154.6,132.9l-6,5.6-6-5.6c-1.1-1-107-99-154.6-132.9-13.5,10.6-26.9,15-39.1,15a48.5,48.5,0,0,1-35.4-15.4c-18.8-19.9-22.3-56.2,4.4-82.4,8.9-8.7,23.9-14.3,40.5-14.3a75.7,75.7,0,0,1,40.2,11.5c4.3,2.7,13.3,9.3,24.9,18.1l22.2-27.3c-5.4-5.2-10.5-10.4-14.9-15.3-23-25.8-15.1-64.4,6.8-84.3,8.9-8.2,18.9-12.2,28.7-12.2m20.7,53.8c3.3-6.7,5.7-17.2-4.1-27.7-5.8-6.2-11.4-8.4-16.6-8.4a22.7,22.7,0,0,0-11.6,3.6c5.5,9.2,17.7,20.8,32.3,32.5m123.2,0c14.6-11.7,26.8-23.3,32.3-32.5a22.7,22.7,0,0,0-11.6-3.6c-5.2,0-10.8,2.2-16.6,8.4-9.7,10.4-7.4,21-4.1,27.7m-21,88.7c13.9-11.2,46-37.6,64-57.8,14-15.7,10.7-36.6,1.9-50.6-20,28.2-71.6,61.4-93.2,74.6l27.3,33.8m-81.2,0,27.3-33.8c-21.6-13.2-73.2-46.4-93.2-74.6-8.8,14-12.1,34.9,1.9,50.6,18,20.2,50.1,46.6,64,57.8m78.4,24.7-17.4-21.5-8.7,5,13.8,66.6c24.5-19.5,58.8-46.7,85.6-67.4l-21.1-26c-21.8,19.6-44,36.9-45.4,38l-6.8,5.3m-63.3,50.1,13.8-66.6h0l-8.7-5-17.4,21.5-6.8-5.3c-1.4-1.1-23.6-18.4-45.4-38l-21.1,26c26.8,20.7,61.1,47.9,85.6,67.4m65.1,67.8c37.7-33.8,89.2-78.6,116.6-97,32.8-21.9,57.8-32.7,72.9-36.3a48.3,48.3,0,0,0-10.7-15.4c-5.9-5.7-16.3-9.2-27.9-9.2a59.9,59.9,0,0,0-31.2,8.8c-14.4,9-90.2,69.2-129.7,100.7l10,48.4m-79.2,0,10.1-48.4c-48.6-38.8-116.5-92.4-129.8-100.7a59.9,59.9,0,0,0-31.2-8.8c-11.6,0-22,3.5-27.9,9.2a49.9,49.9,0,0,0-10.7,15.4c15.2,3.6,40.2,14.4,72.9,36.3,27.4,18.4,78.9,63.2,116.6,97m239.2-81.1a31,31,0,0,0,22.7-9.9,38.9,38.9,0,0,0,10.2-24.9c-10,2.5-28.8,9.7-56.2,26.9,8.5,5.6,16.3,7.9,23.3,7.9m-399.2,0c7,0,14.8-2.3,23.3-7.9-27.4-17.2-46.2-24.4-56.1-26.9a38.3,38.3,0,0,0,10.1,24.9,31,31,0,0,0,22.7,9.9m117.3-208h0c-11,0-21.9,4.6-31.4,13.3-23.3,21.1-31.6,62.3-7,89.9,3.5,3.9,7.6,8.2,12.4,12.9l-17.5,21.5c-11-8.4-18.3-13.6-22.1-16a80,80,0,0,0-42.3-12.1c-17.3,0-33.5,5.8-43.3,15.4-28.5,27.9-24.6,66.7-4.5,88a51.9,51.9,0,0,0,38.3,16.7c13.1,0,26.6-4.9,39.2-14.1,48.4,35.3,150.7,130,151.8,130.9l6,5.6,2.7,2.5,2.7-2.5,6-5.6c1.1-.9,103.5-95.6,151.8-130.9,12.6,9.2,26.1,14.1,39.2,14.1a51.9,51.9,0,0,0,38.3-16.7c20.2-21.3,24-60.1-4.5-88-9.8-9.6-26-15.4-43.3-15.4a80.2,80.2,0,0,0-42.3,12.1c-3.8,2.4-11.1,7.6-22.1,16l-17.5-21.5c4.8-4.7,9-9,12.4-12.9,24.6-27.6,16.3-68.8-7-89.9-9.5-8.7-20.4-13.3-31.4-13.3s-23.1,5.3-32.5,15.3-12.6,19.2-12.8,30.2a49.2,49.2,0,0,0,5.2,22c-13.2,9.6-28,19.4-42.2,27.9-14.2-8.5-29-18.3-42.2-27.9a49.2,49.2,0,0,0,5.2-22c-.1-11-4.5-21.2-12.8-30.2s-20.6-15.3-32.5-15.3Zm-5.8,26.8a17.5,17.5,0,0,1,5.8-1.1c4.7,0,9.3,2.4,13.7,7.1s7,11.8,5.3,18.5c-11.4-9.5-19.8-17.8-24.8-24.5Zm151.4,24.5c-1.7-6.7.1-12.9,5.3-18.5s9-7.1,13.7-7.1a17.5,17.5,0,0,1,5.8,1.1c-5,6.7-13.4,15-24.8,24.5Zm-44.1,62.4c22-13.6,65.6-42.3,86.7-68.3,5.6,11.8,7.1,27.9-4.3,40.7-16.6,18.6-45.8,43-60.4,54.8l-22-27.2Zm-60.4,27.2c-14.6-11.8-43.8-36.2-60.4-54.8-11.4-12.8-9.8-28.9-4.3-40.7,21.1,26,64.7,54.7,86.7,68.3l-22,27.2Zm78.3,35.9,3.1-2.4,6.9-5.4c.9-.7,21.5-16.8,42.4-35.4l15.9,19.6c-24.5,19.1-54.5,42.8-77.3,61l-11.9-57.5,3.2-1.9,15.3,18.9,2.4,3.1Zm-142.5-23.6,15.9-19.6c20.9,18.6,41.5,34.7,42.4,35.4l6.9,5.4,3.1,2.4,2.4-3.1,15.3-18.9,3.2,1.9-11.9,57.5c-22.8-18.2-52.8-42-77.3-61Zm139.4,89.1c35-28,113.1-89.9,127.4-98.9a55.8,55.8,0,0,1,29.1-8.2c10.6,0,19.9,3,25.1,8.1a45.8,45.8,0,0,1,7.8,10c-12.6,3.7-35.5,12.8-69.4,35.5-26.3,17.6-74.3,59.2-111.9,92.7l-8.1-39.2Zm-257.4-89a45.8,45.8,0,0,1,7.8-10c5.2-5.1,14.5-8.1,25.1-8.1a55.8,55.8,0,0,1,29.1,8.2c15,9.3,98.9,76.1,127.5,98.9l-8.2,39.2c-37.6-33.5-85.6-75.1-111.9-92.7-33.8-22.7-56.7-31.8-69.4-35.5Zm407.5,46.7c20.8-12.6,35.4-18.5,43.7-21.3a33.7,33.7,0,0,1-8.4,16.6,27.1,27.1,0,0,1-19.8,8.7,34,34,0,0,1-15.5-4Zm-383.7,4a27.1,27.1,0,0,1-19.8-8.7,34.6,34.6,0,0,1-8.4-16.6c8.3,2.8,22.9,8.7,43.7,21.3a34,34,0,0,1-15.5,4Z" transform="translate(-1844.3 -3289.4)" style="fill:#fff"/><path d="M2209.4,3443.3c-26.8,20.7-61.1,47.9-85.6,67.4l-13.8-66.6,8.7-5,17.4,21.5,6.8-5.3c1.4-1.1,23.6-18.4,45.4-38Z" transform="translate(-1844.3 -3289.4)" style="fill:#f6ab48"/><path d="M2008.3,3417.3c21.8,19.6,44,36.9,45.4,38l6.8,5.3,17.4-21.5,8.7,5h0l-13.8,66.6c-24.5-19.5-58.8-46.7-85.6-67.4Z" transform="translate(-1844.3 -3289.4)" style="fill:#f6ab48"/><path d="M2204.8,3327.5c8.8,14,12.2,34.9-1.9,50.6-18,20.2-50.1,46.6-64,57.8l-27.3-33.8C2133.2,3388.9,2184.8,3355.7,2204.8,3327.5Z" transform="translate(-1844.3 -3289.4)" style="fill:url(#a)"/><path d="M1991.8,3327.5c20,28.2,71.6,61.4,93.2,74.6l-27.3,33.8c-13.9-11.2-46-37.6-64-57.8C1979.7,3362.4,1983,3341.5,1991.8,3327.5Z" transform="translate(-1844.3 -3289.4)" style="fill:url(#b)"/><path d="M2257.6,3429.4c21.2-13.1,48.1-10.3,59.1.4a48.3,48.3,0,0,1,10.7,15.4c-15.1,3.6-40.1,14.4-72.9,36.3-27.4,18.4-78.9,63.2-116.6,97l-10-48.4C2167.4,3498.6,2243.2,3438.4,2257.6,3429.4Z" transform="translate(-1844.3 -3289.4)" style="fill:url(#c)"/><path d="M1939,3429.4c13.3,8.3,81.2,61.9,129.8,100.7l-10.1,48.4c-37.7-33.8-89.2-78.6-116.6-97-32.7-21.9-57.7-32.7-72.9-36.3a49.9,49.9,0,0,1,10.7-15.4C1890.9,3419.1,1917.9,3416.3,1939,3429.4Z" transform="translate(-1844.3 -3289.4)" style="fill:url(#d)"/><polygon points="283.5 240.7 286.1 238.7 301.1 282.4 293.6 289.1 283.5 240.7" style="fill:#f0863a"/><polygon points="224.4 240.7 221.9 238.7 206.9 282.4 214.4 289.1 224.4 240.7" style="fill:#f0863a"/><polygon points="265.7 154.7 288.7 183.3 348.6 133.6 344 127.9 291.7 171.2 274.3 149.7 265.7 154.7" style="fill:#f0863a"/><polygon points="242.3 154.7 219.2 183.3 159.3 133.6 164 127.9 216.2 171.2 233.6 149.7 242.3 154.7" style="fill:#f0863a"/></svg>