<svg xmlns="http://www.w3.org/2000/svg" xmlns:xlink="http://www.w3.org/1999/xlink" viewBox="0 0 1992.2 658.8"><defs><linearGradient id="a" x1="2111.58" y1="1841.74" x2="2212.43" y2="1841.74" gradientUnits="userSpaceOnUse"><stop offset="0" stop-color="#f9ba4d"/><stop offset="1" stop-color="#e54d2e"/></linearGradient><linearGradient id="b" x1="1984.18" y1="1841.74" x2="2085.03" y2="1841.74" gradientUnits="userSpaceOnUse"><stop offset="0" stop-color="#e54d2e"/><stop offset="1" stop-color="#f9ba4d"/></linearGradient><linearGradient id="c" x1="2127.87" y1="1959.55" x2="2327.44" y2="1959.55" xlink:href="#a"/><linearGradient id="d" x1="1869.17" y1="1959.55" x2="2068.75" y2="1959.55" xlink:href="#b"/></defs><path d="M1458,2354.6h-16.2v44.6h-8.9v-44.6h-16.1v-7.3H1458Z" transform="translate(-1096.9 -1753.4)" style="fill:#201009"/><path d="M1521.6,2347.3V2382c0,5.5-1.8,9.8-5.3,13s-8.3,4.9-14.1,4.9-10.7-1.6-14.2-4.8-5.2-7.6-5.2-13.2v-34.6h9V2382c0,3.5.9,6.1,2.6,7.9s4.4,2.8,7.8,2.8c6.9,0,10.4-3.7,10.4-11v-34.4Z" transform="translate(-1096.9 -1753.4)" style="fill:#201009"/><path d="M1566.9,2371.9l12-24.6h10l-17.4,32.8v19.1h-9.1v-19.1l-17.4-32.8h10Z" transform="translate(-1096.9 -1753.4)" style="fill:#201009"/><path d="M1643.6,2376h-21.3v16h24.9v7.2h-33.9v-51.9H1647v7.3h-24.7v14.3h21.3Zm-.1-31.6h-6.8l-6.4-5.8-6.4,5.8h-6.8l9.9-8.9h6.6Zm-3.3-4.8-.2-4.4,3.2-.6a1.5,1.5,0,0,0,1-1.5c0-1.5-1.5-2.2-4.6-2.2l.3-3.7c3.2,0,5.7.5,7.3,1.5a4.9,4.9,0,0,1,2.5,4.3,3.9,3.9,0,0,1-1.3,3.1,5,5,0,0,1-3.3,1.4v2.1Z" transform="translate(-1096.9 -1753.4)" style="fill:#201009"/><path d="M1714.6,2399.2h-9.1l-23.1-36.8v36.8h-9v-51.9h9l23.2,36.9v-36.9h9Z" transform="translate(-1096.9 -1753.4)" style="fill:#201009"/><path d="M1781,2399.2v-51.9h15.4a24.8,24.8,0,0,1,12.2,3,21.5,21.5,0,0,1,8.2,8.7,27.2,27.2,0,0,1,2.9,12.9v2.6a26.8,26.8,0,0,1-2.9,13,21.1,21.1,0,0,1-8.4,8.6,24.3,24.3,0,0,1-12.4,3.1Zm9.1-44.6V2392h5.8c4.8,0,8.4-1.5,10.9-4.5s3.8-7.2,3.9-12.7v-2.9c0-5.6-1.2-9.9-3.7-12.9s-6-4.4-10.6-4.4Z" transform="translate(-1096.9 -1753.4)" style="fill:#201009"/><path d="M1885.5,2347.3V2382c0,5.5-1.8,9.8-5.3,13s-8.2,4.9-14.1,4.9-10.6-1.6-14.1-4.8-5.3-7.6-5.3-13.2v-34.6h9V2382c0,3.5.9,6.1,2.6,7.9s4.4,2.8,7.8,2.8c6.9,0,10.4-3.7,10.4-11v-34.4Zm-24.5,60.4a4,4,0,0,1,1.3-3.1,5.6,5.6,0,0,1,7.2,0,4,4,0,0,1,1.3,3.1,4.1,4.1,0,0,1-1.3,3.2,6,6,0,0,1-7.2,0A4.1,4.1,0,0,1,1861,2407.7Z" transform="translate(-1096.9 -1753.4)" style="fill:#201009"/><path d="M1955.1,2399.2h-9l-23.1-36.8v36.8h-9.1v-51.9h9.1l23.2,36.9v-36.9h8.9Z" transform="translate(-1096.9 -1753.4)" style="fill:#201009"/><path d="M2024.3,2392.4a16.4,16.4,0,0,1-7.8,5.6,33,33,0,0,1-11.3,1.9,21.9,21.9,0,0,1-11.5-3,19.8,19.8,0,0,1-7.8-8.4,30.6,30.6,0,0,1-2.8-12.9v-4.1c0-7.8,1.9-13.9,5.6-18.3s9-6.6,15.7-6.6,10.4,1.4,13.8,4.3,5.4,6.9,6.1,12.3h-8.8c-1-6.2-4.7-9.4-10.9-9.4a10.7,10.7,0,0,0-9.2,4.4c-2.1,2.9-3.2,7.2-3.3,12.8v4c0,5.6,1.2,9.9,3.6,13a11.6,11.6,0,0,0,9.8,4.7c4.6,0,7.9-1.1,9.9-3.2v-10.1h-10.7v-6.9h19.6Z" transform="translate(-1096.9 -1753.4)" style="fill:#201009"/><path d="M2117.2,2385.8a6.4,6.4,0,0,0-2.4-5.3c-1.6-1.2-4.5-2.5-8.7-3.7a46.2,46.2,0,0,1-10-4.2c-4.7-3-7.1-6.9-7.1-11.6a12.6,12.6,0,0,1,5.2-10.4c3.4-2.7,7.8-4,13.2-4a21.6,21.6,0,0,1,9.7,2,15.8,15.8,0,0,1,6.6,5.6,14.2,14.2,0,0,1,2.5,8.2h-9a8,8,0,0,0-2.6-6.3c-1.7-1.6-4.1-2.3-7.2-2.3s-5.3.6-6.9,1.9a6.2,6.2,0,0,0-2.4,5.2,5.7,5.7,0,0,0,2.6,4.8c1.8,1.3,4.6,2.5,8.7,3.7a40.9,40.9,0,0,1,9.7,4.1,14.5,14.5,0,0,1,5.4,5.3,13.8,13.8,0,0,1,1.7,6.9,12.2,12.2,0,0,1-5,10.3q-4.9,3.9-13.5,3.9a25,25,0,0,1-10.3-2.1,16.5,16.5,0,0,1-7.3-5.8,13.9,13.9,0,0,1-2.7-8.5h9.1a8.2,8.2,0,0,0,2.9,6.8c1.9,1.6,4.7,2.4,8.3,2.4s5.5-.6,7.1-1.9A5.9,5.9,0,0,0,2117.2,2385.8Z" transform="translate(-1096.9 -1753.4)" style="fill:#201009"/><path d="M2194.3,2374.6a31.4,31.4,0,0,1-2.6,13.4,20.3,20.3,0,0,1-7.5,8.8,21.5,21.5,0,0,1-11.3,3.1,20.9,20.9,0,0,1-11.2-3.1,20.7,20.7,0,0,1-7.7-8.8,30.4,30.4,0,0,1-2.7-13.1v-3a31.8,31.8,0,0,1,2.7-13.4,19.9,19.9,0,0,1,7.6-8.8,20.3,20.3,0,0,1,11.2-3.1,21.2,21.2,0,0,1,11.3,3,19.7,19.7,0,0,1,7.5,8.8,30.7,30.7,0,0,1,2.7,13.3Zm-24.3-39.4h5.7l10.4,8.9h-7.5l-5.7-5-5.7,5h-7.6Zm15.3,36.7c0-5.8-1.1-10.2-3.2-13.3a10.9,10.9,0,0,0-9.3-4.5,10.6,10.6,0,0,0-9.1,4.5c-2.2,3.1-3.3,7.4-3.4,13v3c0,5.7,1.1,10.1,3.4,13.2a11.4,11.4,0,0,0,18.4.1c2.2-3,3.2-7.5,3.2-13.3Zm3.5-42.9h7.9l-7.7,9.5h-5.6Z" transform="translate(-1096.9 -1753.4)" style="fill:#201009"/><path d="M2281.2,2399.2h-8.6v-41.7l-12.7,4.3v-7.2l20.2-7.5h1.1Z" transform="translate(-1096.9 -1753.4)" style="fill:#201009"/><path d="M2357.5,2399.2v-23.3h-6.6v-6h6.6v-22.6h15.4a24.8,24.8,0,0,1,12.2,3,21.5,21.5,0,0,1,8.2,8.7,27.2,27.2,0,0,1,2.9,12.9v2.6a28,28,0,0,1-2.9,13,21.1,21.1,0,0,1-8.4,8.6,24.3,24.3,0,0,1-12.4,3.1Zm17.2-23.3h-8.2V2392h5.9c4.8,0,8.4-1.5,11-4.5s3.8-7.4,3.8-13.1v-2.5c0-5.6-1.2-9.9-3.7-12.9s-6-4.4-10.6-4.4h-6.4v15.3h8.2Z" transform="translate(-1096.9 -1753.4)" style="fill:#201009"/><path d="M2452.3,2387.1h-20.1l-4.2,12.1h-9.3l19.5-51.9h8.1l19.7,51.9h-9.4Zm-5.4-42.9h-7.2l-9.6-10.8h9.9Zm-12.1,35.6h15l-7.5-21.5Z" transform="translate(-1096.9 -1753.4)" style="fill:#201009"/><path d="M2568.8,2399.2h-9l-23.1-36.8v36.8h-9v-51.9h9l23.2,36.9v-36.9h8.9Z" transform="translate(-1096.9 -1753.4)" style="fill:#201009"/><path d="M2628,2387.1h-20.1l-4.2,12.1h-9.4l19.6-51.9h8.1l19.6,51.9h-9.4Zm1.3-51.1a6.6,6.6,0,0,1-3.1,5.8,14,14,0,0,1-8.3,2.2c-3.5,0-6.2-.7-8.3-2.2a6.7,6.7,0,0,1-3.2-5.8h6.3a3.4,3.4,0,0,0,1.3,2.9,8.1,8.1,0,0,0,7.8,0,3.8,3.8,0,0,0,1.3-2.9Zm-1.1-9.6a6.6,6.6,0,0,1-1.7,4.5,5.3,5.3,0,0,1-4.2,2,9.6,9.6,0,0,1-4.3-1.3,7.8,7.8,0,0,0-3.8-1.3,2.3,2.3,0,0,0-1.8.9,3.3,3.3,0,0,0-.8,2.2l-3.7-.9a7,7,0,0,1,1.7-4.7,5.5,5.5,0,0,1,4.2-1.9,9.7,9.7,0,0,1,4.1,1.2,8.7,8.7,0,0,0,4,1.3,2.6,2.6,0,0,0,1.9-.9,3.2,3.2,0,0,0,.7-2.2Zm-17.8,53.4h15.1l-7.6-21.5Z" transform="translate(-1096.9 -1753.4)" style="fill:#201009"/><path d="M2707.5,2399.2h-9l-23.1-36.8v36.8h-9v-51.9h9l23.2,36.9v-36.9h8.9Z" transform="translate(-1096.9 -1753.4)" style="fill:#201009"/><path d="M2776.8,2392.4a17.5,17.5,0,0,1-7.8,5.6,34.1,34.1,0,0,1-11.4,1.9,21.9,21.9,0,0,1-11.5-3,19.8,19.8,0,0,1-7.8-8.4,30.6,30.6,0,0,1-2.8-12.9v-4.1c0-7.8,1.9-13.9,5.6-18.3s9-6.6,15.7-6.6,10.4,1.4,13.8,4.3,5.4,6.9,6.1,12.3h-8.8c-1-6.2-4.6-9.4-10.9-9.4a10.7,10.7,0,0,0-9.2,4.4c-2.1,2.9-3.2,7.2-3.3,12.8v4c0,5.6,1.2,9.9,3.6,13a11.7,11.7,0,0,0,9.8,4.7c4.6,0,7.9-1.1,9.9-3.2v-10.1h-10.7v-6.9h19.7Z" transform="translate(-1096.9 -1753.4)" style="fill:#201009"/><path d="M1160.7,2298.5c-.7,2.4-2.1,3.6-4.3,3.6h-18.9a4.1,4.1,0,0,1-4.3-3.6l-36-131.2a3.1,3.1,0,0,1,.2-2.9,3.4,3.4,0,0,1,2.5-1h21.6a5,5,0,0,1,2.7.8,4.5,4.5,0,0,1,1.7,2.7l19.8,95.1,1.3,10.5,1.2-10.6,19.8-95a4.1,4.1,0,0,1,1.7-2.7,5,5,0,0,1,2.7-.8h21.5a3.2,3.2,0,0,1,2.5,1c.6.7.6,1.6.3,2.9Z" transform="translate(-1096.9 -1753.4)" style="fill:#201009"/><path d="M1211.8,2167.3c0-2.6,1.3-3.9,3.7-3.9h20q3.6,0,3.6,3.9v131c0,2.5-1.2,3.8-3.6,3.8h-20c-2.4,0-3.7-1.3-3.7-3.8Z" transform="translate(-1096.9 -1753.4)" style="fill:#201009"/><path d="M1264.3,2167.3c0-2.6,1.3-3.9,3.7-3.9h67.1c2.1,0,3.1,1.3,3.1,3.7v18.6c0,2.5-1,3.7-3.1,3.7h-43.5v29.8h33.7a3.5,3.5,0,0,1,2.5.9,3.4,3.4,0,0,1,1,2.8v18.4a3.6,3.6,0,0,1-.9,2.8,3.6,3.6,0,0,1-2.6.9h-33.7v31.2h44.3c2.2,0,3.3,1.2,3.3,3.5v18.7c0,2.5-1.1,3.7-3.3,3.7H1268c-2.4,0-3.7-1.3-3.7-3.8Z" transform="translate(-1096.9 -1753.4)" style="fill:#201009"/><path d="M1355.4,2189.4a42.9,42.9,0,0,1,8.8-15.1,42.1,42.1,0,0,1,14.3-10.1,53.1,53.1,0,0,1,39.2.1,41.7,41.7,0,0,1,13.8,9.7,38.7,38.7,0,0,1,8.2,12.9,37.8,37.8,0,0,1,2.7,13.6v5.2a6.1,6.1,0,0,1-.6,2.8,2.1,2.1,0,0,1-2,1h-20.9a3.6,3.6,0,0,1-2.2-.5,2,2,0,0,1-.9-2v-1.7a21.3,21.3,0,0,0-1.3-7.8,17.6,17.6,0,0,0-3.8-6,16.9,16.9,0,0,0-5.9-3.7,19.3,19.3,0,0,0-7.3-1.3,17.3,17.3,0,0,0-7.6,1.6,17.8,17.8,0,0,0-5.7,4.5,20.8,20.8,0,0,0-3.5,6.6,26.3,26.3,0,0,0-1.2,8v50.7a31.4,31.4,0,0,0,1.1,8.3,20.8,20.8,0,0,0,3.5,6.8,17.1,17.1,0,0,0,5.8,4.5,17.7,17.7,0,0,0,7.9,1.6,20.8,20.8,0,0,0,7.1-1.2,19,19,0,0,0,5.9-3.7,17.2,17.2,0,0,0,4-5.8,20.2,20.2,0,0,0,1.5-7.9v-4.1c0-1.3.3-2.2.9-2.6a4.9,4.9,0,0,1,2.5-.6h21a2,2,0,0,1,2.1,1.2,8.7,8.7,0,0,1,.5,3.1v2.3a50.2,50.2,0,0,1-3.5,19.2,39.9,39.9,0,0,1-24.1,23,54,54,0,0,1-18.3,3,46.9,46.9,0,0,1-18.7-3.6,43.8,43.8,0,0,1-14.2-10.1,44.9,44.9,0,0,1-9-15.3,57,57,0,0,1-3.2-19.3v-48.5A54.9,54.9,0,0,1,1355.4,2189.4Z" transform="translate(-1096.9 -1753.4)" style="fill:#201009"/><path d="M1463,2167.3q0-3.9,3.6-3.9h19.8c2.6,0,3.8,1.3,3.8,3.9v108.9h40.6c2.1,0,3.2,1.3,3.2,3.8v18.4c0,2.5-1.1,3.7-3.2,3.7h-64.2c-2.4,0-3.6-1.3-3.6-3.8Z" transform="translate(-1096.9 -1753.4)" style="fill:#201009"/><path d="M1643.1,2298.2c.8,2.6,0,3.9-2.3,3.9h-21.4a5.5,5.5,0,0,1-2.9-.8,3.7,3.7,0,0,1-1.6-2.7l-4.1-18.2H1576l-4.1,18.2a4.1,4.1,0,0,1-1.7,2.7,5.7,5.7,0,0,1-2.8.8h-21.6c-2.2,0-3-1.3-2.2-3.9l36.2-131.3a4.2,4.2,0,0,1,4.3-3.5h18.4a4.2,4.2,0,0,1,4.4,3.5Zm-61.7-42.1h24l-10.3-45.8-1.7-13.2-1.8,13.2Z" transform="translate(-1096.9 -1753.4)" style="fill:#201009"/><path d="M1684.7,2223l-4.9-18.3,1.6,18.4,1.5,75.2c0,2.5-1.1,3.8-3.3,3.8h-19.2c-2.2,0-3.3-1.3-3.1-3.8V2167.1c.2-2.4,1.2-3.7,3.2-3.7h23.2c1.1,0,1.9.3,2.2,1a12.2,12.2,0,0,1,1.1,2.5l26.6,73.2,1.6,10,1.9-10,26.5-73.2a25.5,25.5,0,0,1,1-2.5,2.3,2.3,0,0,1,2.2-1h23.3c2,0,3.1,1.3,3.2,3.7v131.2c.1,2.5-.9,3.8-3,3.8h-19.4c-2.1,0-3.2-1.3-3.2-3.8l1.5-75.2,1.4-17.5-4.5,17.4-19.9,54.9a12.5,12.5,0,0,1-1.3,2.8,2.5,2.5,0,0,1-2.2.8H1708a3.5,3.5,0,0,1-2.3-.7,7.3,7.3,0,0,1-1.2-2.9Z" transform="translate(-1096.9 -1753.4)" style="fill:#201009"/><path d="M1798.6,2167.3c0-2.6,1.2-3.9,3.7-3.9h39.3a54.4,54.4,0,0,1,18.7,3.2,45.4,45.4,0,0,1,15.1,9.2,43,43,0,0,1,10.1,14.5,46.7,46.7,0,0,1,3.7,19v46.8a46.7,46.7,0,0,1-3.7,19,41.9,41.9,0,0,1-10,14.4,43,43,0,0,1-14.9,9.2,53.8,53.8,0,0,1-18.5,3.4h-39.8c-2.5,0-3.7-1.3-3.7-3.8Zm42.6,108.9a20.7,20.7,0,0,0,8.2-1.6,19.6,19.6,0,0,0,6.6-4.4,21.3,21.3,0,0,0,4.4-6.5,22.2,22.2,0,0,0,1.6-8.2V2210a22.4,22.4,0,0,0-1.6-8.4,21,21,0,0,0-4.3-6.5,17.2,17.2,0,0,0-6.4-4.1,23.3,23.3,0,0,0-8-1.6h-15.9v86.8Z" transform="translate(-1096.9 -1753.4)" style="fill:#201009"/><path d="M1995.6,2298.2c.7,2.6,0,3.9-2.3,3.9h-21.5a5.1,5.1,0,0,1-2.8-.8,3.7,3.7,0,0,1-1.6-2.7l-4.1-18.2h-34.8l-4.1,18.2a3.9,3.9,0,0,1-1.8,2.7,5,5,0,0,1-2.7.8h-21.6c-2.2,0-3-1.3-2.2-3.9l36.2-131.3c.6-2.3,2-3.5,4.2-3.5H1955c2.3,0,3.7,1.2,4.4,3.5Zm-61.7-42.1h23.9l-10.2-45.8-1.7-13.2-1.8,13.2Z" transform="translate(-1096.9 -1753.4)" style="fill:#201009"/><path d="M2009.8,2167.3c0-2.6,1.2-3.9,3.7-3.9h18a5,5,0,0,1,2.9.9,5.1,5.1,0,0,1,2.1,2.6l37.2,75.5,4.1,12.3-1.3-12.3-1.2-75.1a4.5,4.5,0,0,1,.9-2.8,3.5,3.5,0,0,1,2.8-1.1h18.8a4.6,4.6,0,0,1,2.3.8c.8.4,1.2,1.4,1.2,2.9v131.2c0,2.5-1.4,3.8-4,3.8h-17.7a5.7,5.7,0,0,1-2.9-.8,5.2,5.2,0,0,1-2.2-2.6l-36.9-74.1-4.2-12,1.3,12,1,73.7c0,2.5-1.2,3.8-3.6,3.8h-18.6c-2.5,0-3.7-1.3-3.7-3.8Z" transform="translate(-1096.9 -1753.4)" style="fill:#201009"/><path d="M2214.8,2298.2c.8,2.6.1,3.9-2.2,3.9h-21.5a5.1,5.1,0,0,1-2.8-.8,3.8,3.8,0,0,1-1.7-2.7l-4-18.2h-34.8l-4.1,18.2a4.2,4.2,0,0,1-1.8,2.7,5,5,0,0,1-2.7.8h-21.6c-2.3,0-3-1.3-2.2-3.9l36.1-131.3c.7-2.3,2.1-3.5,4.3-3.5h18.5c2.3,0,3.7,1.2,4.4,3.5Zm-61.6-42.1h23.9l-10.2-45.8-1.7-13.2-1.8,13.2Z" transform="translate(-1096.9 -1753.4)" style="fill:#201009"/><path d="M2229,2167.3c0-2.6,1.3-3.9,3.7-3.9h18a5.3,5.3,0,0,1,3,.9,5.1,5.1,0,0,1,2.1,2.6l37.1,75.5,4.2,12.3-1.4-12.3-1.1-75.1a4.5,4.5,0,0,1,.9-2.8,3.3,3.3,0,0,1,2.8-1.1H2317a4.6,4.6,0,0,1,2.4.8c.8.4,1.1,1.4,1.1,2.9v131.2c0,2.5-1.3,3.8-3.9,3.8h-17.7a6.1,6.1,0,0,1-3-.8,5.1,5.1,0,0,1-2.1-2.6l-36.9-74.1-4.2-12,1.2,12,1.1,73.7c0,2.5-1.2,3.8-3.6,3.8h-18.7c-2.4,0-3.7-1.3-3.7-3.8Z" transform="translate(-1096.9 -1753.4)" style="fill:#201009"/><path d="M2343.8,2189.4a42.9,42.9,0,0,1,8.8-15.1,41.6,41.6,0,0,1,14.4-10.1,47.4,47.4,0,0,1,19.5-3.7,46.2,46.2,0,0,1,19.7,3.9,43,43,0,0,1,13.9,9.6,38.8,38.8,0,0,1,8.1,12.6,36.4,36.4,0,0,1,2.6,12.7v7.9a5.4,5.4,0,0,1-.6,2.7,2.1,2.1,0,0,1-2,1.1h-21.1a3.9,3.9,0,0,1-2.3-.6,2.1,2.1,0,0,1-.8-1.9v-2.9a25.3,25.3,0,0,0-1.3-8,16.5,16.5,0,0,0-3.7-6,15.4,15.4,0,0,0-5.8-3.8,19.3,19.3,0,0,0-7.3-1.3,16.5,16.5,0,0,0-7.5,1.6,15.9,15.9,0,0,0-5.7,4.5,19.2,19.2,0,0,0-3.6,6.6,26.3,26.3,0,0,0-1.2,8v50.7a27.8,27.8,0,0,0,1.2,8.3,17.6,17.6,0,0,0,3.5,6.8,15.9,15.9,0,0,0,5.7,4.5,18.1,18.1,0,0,0,8,1.6,20,20,0,0,0,6.9-1.2,16.2,16.2,0,0,0,5.9-3.6,17.2,17.2,0,0,0,4-5.8,19.2,19.2,0,0,0,1.6-8.1v-5.8H2392c-2.1,0-3.1-1.2-3.1-3.6v-16.4c0-2.5,1-3.7,3.1-3.7h36c2.5,0,3.7,1.3,3.7,3.9v25a50.3,50.3,0,0,1-3.5,19.3,41.7,41.7,0,0,1-9.5,14.2,39.2,39.2,0,0,1-14.6,8.7,54,54,0,0,1-18.3,3,46.1,46.1,0,0,1-18.6-3.6,41.7,41.7,0,0,1-14.2-10.1,45.1,45.1,0,0,1-9.1-15.3,57,57,0,0,1-3.1-19.3v-48.5A57.4,57.4,0,0,1,2343.8,2189.4Z" transform="translate(-1096.9 -1753.4)" style="fill:#201009"/><path d="M2447,2280.7a3.7,3.7,0,0,1,.9-2.7,3.2,3.2,0,0,1,2.1-.9h20.4a2.6,2.6,0,0,1,2.6,1.3,6,6,0,0,1,.6,2.3v17.9a2.9,2.9,0,0,1-1.3,2.8,4,4,0,0,1-1.9.7h-20.3a3.7,3.7,0,0,1-1.9-.7q-1.2-.6-1.2-2.7Z" transform="translate(-1096.9 -1753.4)" style="fill:#201009"/><path d="M2493.7,2189.4a43.1,43.1,0,0,1,8.9-15.1,41.2,41.2,0,0,1,14.3-10.1,53.1,53.1,0,0,1,39.2.1,42.8,42.8,0,0,1,13.8,9.7,38.7,38.7,0,0,1,8.2,12.9,37.8,37.8,0,0,1,2.7,13.6v5.2a6.1,6.1,0,0,1-.6,2.8,2.2,2.2,0,0,1-2.1,1h-20.8a4.1,4.1,0,0,1-2.3-.5,2.2,2.2,0,0,1-.8-2v-1.7a19.4,19.4,0,0,0-1.4-7.8,17.4,17.4,0,0,0-3.7-6,17.9,17.9,0,0,0-5.9-3.7,19.5,19.5,0,0,0-7.4-1.3,16.5,16.5,0,0,0-7.5,1.6,17.8,17.8,0,0,0-5.7,4.5,20.8,20.8,0,0,0-3.5,6.6,23.6,23.6,0,0,0-1.3,8v50.7a27.8,27.8,0,0,0,1.2,8.3,20.8,20.8,0,0,0,3.5,6.8,17.8,17.8,0,0,0,5.7,4.5,18.4,18.4,0,0,0,8,1.6,21.2,21.2,0,0,0,7.1-1.2,19,19,0,0,0,5.9-3.7,18.7,18.7,0,0,0,4-5.8,20.2,20.2,0,0,0,1.5-7.9v-4.1c0-1.3.3-2.2.9-2.6a4.6,4.6,0,0,1,2.5-.6h21a2,2,0,0,1,2.1,1.2,9,9,0,0,1,.4,3.1v2.3a50.2,50.2,0,0,1-3.4,19.2,39.9,39.9,0,0,1-24.1,23,54.6,54.6,0,0,1-18.4,3,46.7,46.7,0,0,1-18.6-3.6,42.7,42.7,0,0,1-14.2-10.1,44.9,44.9,0,0,1-9-15.3,57,57,0,0,1-3.2-19.3v-48.5A57.4,57.4,0,0,1,2493.7,2189.4Z" transform="translate(-1096.9 -1753.4)" style="fill:#201009"/><path d="M2596.4,2209.6a63.4,63.4,0,0,1,2.8-18.6,46.8,46.8,0,0,1,8.5-15.7,41.7,41.7,0,0,1,14.3-10.7c5.7-2.7,12.4-4,20-4s14.3,1.3,20,4a41.7,41.7,0,0,1,14.3,10.7,44.2,44.2,0,0,1,8.7,15.6,60.3,60.3,0,0,1,2.9,18.6v46.6a57.7,57.7,0,0,1-2.9,18.7,44.3,44.3,0,0,1-8.6,15.5A41.8,41.8,0,0,1,2662,2301c-5.7,2.7-12.4,4-20,4a45.8,45.8,0,0,1-19.8-4,41,41,0,0,1-14.2-10.7,46.1,46.1,0,0,1-8.7-15.5,60.5,60.5,0,0,1-2.9-18.7Zm27.1,48.5a24.9,24.9,0,0,0,1.3,8.3,21.4,21.4,0,0,0,3.5,6.7,15.7,15.7,0,0,0,5.8,4.4,21.1,21.1,0,0,0,16.1,0,14.9,14.9,0,0,0,5.8-4.4,19.5,19.5,0,0,0,3.5-6.7,27.8,27.8,0,0,0,1.2-8.3v-50.6a26.4,26.4,0,0,0-1.2-8.1,18.8,18.8,0,0,0-3.6-6.7,15.4,15.4,0,0,0-5.8-4.6,19.7,19.7,0,0,0-16,0,17.4,17.4,0,0,0-5.8,4.6,21.4,21.4,0,0,0-3.5,6.7,23.6,23.6,0,0,0-1.3,8Z" transform="translate(-1096.9 -1753.4)" style="fill:#201009"/><path d="M2735.6,2223l-4.9-18.3,1.6,18.4,1.4,75.2c0,2.5-1.1,3.8-3.2,3.8h-19.2c-2.3,0-3.3-1.3-3.2-3.8V2167.1c.2-2.4,1.3-3.7,3.2-3.7h23.3a2.3,2.3,0,0,1,2.2,1,22.2,22.2,0,0,1,1.1,2.5l26.5,73.2,1.7,10,1.8-10,26.6-73.2a12.8,12.8,0,0,1,1-2.5,2.3,2.3,0,0,1,2.2-1h23.2c2,0,3.1,1.3,3.2,3.7v131.2c.2,2.5-.8,3.8-3,3.8h-19.3c-2.2,0-3.2-1.3-3.2-3.8l1.4-75.2,1.5-17.5-4.6,17.4-19.8,54.9a19.7,19.7,0,0,1-1.3,2.8,2.7,2.7,0,0,1-2.2.8h-14.7a3.3,3.3,0,0,1-2.3-.7,6.1,6.1,0,0,1-1.2-2.9Z" transform="translate(-1096.9 -1753.4)" style="fill:#201009"/><path d="M2844.7,2280.7a3.7,3.7,0,0,1,.9-2.7,3.2,3.2,0,0,1,2.1-.9h20.4a2.5,2.5,0,0,1,2.6,1.3,6,6,0,0,1,.6,2.3v17.9a2.9,2.9,0,0,1-1.3,2.8,4,4,0,0,1-1.9.7h-20.3a3.7,3.7,0,0,1-1.9-.7q-1.2-.6-1.2-2.7Z" transform="translate(-1096.9 -1753.4)" style="fill:#201009"/><path d="M2946.5,2298.5c-.7,2.4-2.1,3.6-4.3,3.6h-18.9a4.1,4.1,0,0,1-4.3-3.6l-36-131.2a3.1,3.1,0,0,1,.2-2.9,3.4,3.4,0,0,1,2.5-1h21.6a5,5,0,0,1,2.7.8,4.5,4.5,0,0,1,1.7,2.7l19.8,95.1,1.3,10.5,1.2-10.6,19.8-95a4.1,4.1,0,0,1,1.7-2.7,5,5,0,0,1,2.6-.8h21.6a3.2,3.2,0,0,1,2.5,1c.6.7.6,1.6.3,2.9Z" transform="translate(-1096.9 -1753.4)" style="fill:#201009"/><path d="M2997.6,2167.3c0-2.6,1.2-3.9,3.7-3.9h18a5.3,5.3,0,0,1,3,.9,6.3,6.3,0,0,1,2.1,2.6l37.1,75.5,4.2,12.3-1.4-12.3-1.1-75.1a4.4,4.4,0,0,1,.8-2.8,3.7,3.7,0,0,1,2.9-1.1h18.7a4.6,4.6,0,0,1,2.4.8c.7.4,1.1,1.4,1.1,2.9v131.2c0,2.5-1.3,3.8-4,3.8h-17.7a6,6,0,0,1-2.9-.8,5.1,5.1,0,0,1-2.1-2.6l-37-74.1-4.2-12,1.3,12,1.1,73.7c0,2.5-1.2,3.8-3.6,3.8h-18.7c-2.5,0-3.7-1.3-3.7-3.8Z" transform="translate(-1096.9 -1753.4)" style="fill:#201009"/><path d="M2329,1877.2c-15.9-15.6-51.3-21.1-80.7-2.8-4.3,2.7-13.3,9.3-24.9,18.1l-22.1-27.3c5.4-5.2,10.4-10.4,14.8-15.3,23-25.8,15.1-64.4-6.8-84.3-18.6-17-41.5-16.2-58.3,1.9s-12.6,38.1-5.4,50.6c-15.9,11.7-33.1,22.9-47.3,31.3-14.2-8.4-31.4-19.6-47.3-31.3,7.2-12.5,11.5-32.4-5.4-50.6s-39.7-18.9-58.3-1.9c-21.9,19.9-29.8,58.5-6.8,84.3,4.4,4.9,9.5,10.1,14.9,15.3l-22.2,27.3c-11.6-8.8-20.6-15.4-24.9-18.1-29.4-18.3-64.8-12.8-80.7,2.8-26.7,26.2-23.2,62.5-4.4,82.4,16.3,17.3,45.1,23.4,74.5.4,47.6,33.9,153.5,131.9,154.6,132.9l6,5.6,6-5.6c1.1-1,107-99,154.6-132.9,29.4,23,58.2,16.9,74.5-.4C2352.2,1939.7,2355.7,1903.4,2329,1877.2Zm-71.4,12.2c21.2-13.1,48.1-10.3,59.1.4a48.3,48.3,0,0,1,10.7,15.4c-15.1,3.6-40.1,14.4-72.9,36.3-27.4,18.4-78.9,63.2-116.6,97l-10-48.4C2167.4,1958.6,2243.2,1898.4,2257.6,1889.4Zm-48.2,13.9c-26.8,20.7-61.1,47.9-85.6,67.4l-13.8-66.6,8.7-5,17.4,21.5,6.8-5.3c1.4-1.1,23.6-18.4,45.4-38ZM2164,1779.5c5.8-6.2,11.4-8.4,16.6-8.4a22.7,22.7,0,0,1,11.6,3.6c-5.5,9.2-17.7,20.8-32.3,32.5C2156.6,1800.5,2154.3,1789.9,2164,1779.5Zm40.8,8c8.8,14,12.2,34.9-1.9,50.6-18,20.2-50.1,46.6-64,57.8l-27.3-33.8C2133.2,1848.9,2184.8,1815.7,2204.8,1787.5Zm-172.2-8c9.8,10.5,7.4,21,4.1,27.7-14.6-11.7-26.8-23.3-32.3-32.5C2011.6,1770.3,2021.9,1768,2032.6,1779.5Zm-40.8,8c20,28.2,71.6,61.4,93.2,74.6l-27.3,33.8c-13.9-11.2-46-37.6-64-57.8C1979.7,1822.4,1983,1801.5,1991.8,1787.5Zm16.5,89.8c21.8,19.6,44,36.9,45.4,38l6.8,5.3,17.4-21.5,8.7,5h0l-13.8,66.6c-24.5-19.5-58.8-46.7-85.6-67.4Zm-69.3,12.1c13.3,8.3,81.2,61.9,129.8,100.7l-10.1,48.4c-37.7-33.8-89.2-78.6-116.6-97-32.7-21.9-57.7-32.7-72.9-36.3a49.9,49.9,0,0,1,10.7-15.4C1890.9,1879.1,1917.9,1876.3,1939,1889.4Zm-63,58.1a38.3,38.3,0,0,1-10.1-24.9c9.9,2.5,28.7,9.7,56.1,26.9C1902.2,1962.6,1885.6,1957.6,1876,1947.5Zm398.6,2c27.4-17.2,46.2-24.4,56.2-26.9a38.9,38.9,0,0,1-10.2,24.9C2311,1957.6,2294.4,1962.6,2274.6,1949.5Z" transform="translate(-1096.9 -1753.4)" style="fill:#201009"/><path d="M2209.4,1903.3c-26.8,20.7-61.1,47.9-85.6,67.4l-13.8-66.6,8.7-5,17.4,21.5,6.8-5.3c1.4-1.1,23.6-18.4,45.4-38Z" transform="translate(-1096.9 -1753.4)" style="fill:#f6ab48"/><path d="M2008.3,1877.3c21.8,19.6,44,36.9,45.4,38l6.8,5.3,17.4-21.5,8.7,5h0l-13.8,66.6c-24.5-19.5-58.8-46.7-85.6-67.4Z" transform="translate(-1096.9 -1753.4)" style="fill:#f6ab48"/><path d="M2204.8,1787.5c8.8,14,12.2,34.9-1.9,50.6-18,20.2-50.1,46.6-64,57.8l-27.3-33.8C2133.2,1848.9,2184.8,1815.7,2204.8,1787.5Z" transform="translate(-1096.9 -1753.4)" style="fill:url(#a)"/><path d="M1991.8,1787.5c20,28.2,71.6,61.4,93.2,74.6l-27.3,33.8c-13.9-11.2-46-37.6-64-57.8C1979.7,1822.4,1983,1801.5,1991.8,1787.5Z" transform="translate(-1096.9 -1753.4)" style="fill:url(#b)"/><path d="M2257.6,1889.4c21.2-13.1,48.1-10.3,59.1.4a48.3,48.3,0,0,1,10.7,15.4c-15.1,3.6-40.1,14.4-72.9,36.3-27.4,18.4-78.9,63.2-116.6,97l-10-48.4C2167.4,1958.6,2243.2,1898.4,2257.6,1889.4Z" transform="translate(-1096.9 -1753.4)" style="fill:url(#c)"/><path d="M1939,1889.4c13.3,8.3,81.2,61.9,129.8,100.7l-10.1,48.4c-37.7-33.8-89.2-78.6-116.6-97-32.7-21.9-57.7-32.7-72.9-36.3a49.9,49.9,0,0,1,10.7-15.4C1890.9,1879.1,1917.9,1876.3,1939,1889.4Z" transform="translate(-1096.9 -1753.4)" style="fill:url(#d)"/><polygon points="1030.9 236.7 1033.4 234.7 1048.5 278.4 1041 285.1 1030.9 236.7" style="fill:#f0863a"/><polygon points="971.8 236.7 969.3 234.7 954.3 278.4 961.8 285.1 971.8 236.7" style="fill:#f0863a"/><polygon points="1013.1 150.8 1036.1 179.4 1096 129.6 1091.3 123.9 1039.1 167.3 1021.7 145.7 1013.1 150.8" style="fill:#f0863a"/><polygon points="989.7 150.8 966.6 179.4 906.7 129.6 911.4 123.9 963.6 167.3 981 145.7 989.7 150.8" style="fill:#f0863a"/></svg>