<svg xmlns="http://www.w3.org/2000/svg" xmlns:xlink="http://www.w3.org/1999/xlink" viewBox="0 0 3656 2285"><defs><radialGradient id="a" cx="1879.05" cy="-226.07" r="2684.58" gradientUnits="userSpaceOnUse"><stop offset="0" stop-color="#b2c5e6"/><stop offset="1" stop-color="#468abb"/></radialGradient><clipPath id="b"><path d="M2745.6,657.8a10.4,10.4,0,0,1-3.7-2.8l3.4-4.1c1.4,1.9,3,2.9,4.8,2.9s3.8-1.4,3.8-4.3V637h-9.3v-4.9h15.3v17c0,3.2-.8,5.7-2.4,7.3s-4,2.4-7.1,2.4A10.9,10.9,0,0,1,2745.6,657.8Zm24.7-.8a13.4,13.4,0,0,1-5.2-4.8,13.8,13.8,0,0,1-1.8-7,13.4,13.4,0,0,1,1.8-6.9,13.6,13.6,0,0,1,5.2-4.9,16.7,16.7,0,0,1,14.7,0,13.4,13.4,0,0,1,7,11.8,12.9,12.9,0,0,1-1.9,7,12.4,12.4,0,0,1-5.1,4.8,15.9,15.9,0,0,1-14.7,0Zm11.5-4.4a8.6,8.6,0,0,0,3-3,8.9,8.9,0,0,0,1-4.4,8.8,8.8,0,0,0-1-4.3,7.2,7.2,0,0,0-3-3,8.2,8.2,0,0,0-4.2-1.1,8.8,8.8,0,0,0-4.2,1.1,7.6,7.6,0,0,0-2.9,3,8.9,8.9,0,0,0-1.1,4.3,9,9,0,0,0,1.1,4.4,9.2,9.2,0,0,0,2.9,3,8.7,8.7,0,0,0,4.2,1A8.2,8.2,0,0,0,2781.8,652.6Zm36.6-5.5a6.9,6.9,0,0,1,1.3,4.1,6,6,0,0,1-2.7,5.3q-2.7,1.8-7.8,1.8h-13.6V632.1h12.8c3.2,0,5.7.6,7.4,1.9a6,6,0,0,1,1.6,8.3,6.4,6.4,0,0,1-2.5,2.4A7.3,7.3,0,0,1,2818.4,647.1Zm-16.7-10.4v6.2h6a6.3,6.3,0,0,0,3.4-.8,2.6,2.6,0,0,0,1.2-2.3,2.5,2.5,0,0,0-1.2-2.3,5.5,5.5,0,0,0-3.4-.8Zm10.6,16.3a2.7,2.7,0,0,0,1.3-2.5c0-2.1-1.6-3.2-4.9-3.2h-7v6.5h7A6.9,6.9,0,0,0,2812.3,653Zm20.6-5-3.5,3.7v6.6h-6.1V632.1h6.1v12.3l11.6-12.3h6.7l-10.8,11.7,11.5,14.5h-7.1Zm37.5,5.5v4.8h-20.3V632.1h19.8V637h-13.7v5.7h12.1v4.7h-12.1v6.1Zm16.3-4.4v9.2h-6.1V649l-10.2-16.9h6.5l7,11.7,7-11.7h5.9Z" style="fill:none"/></clipPath></defs><rect width="3656" height="2285" style="fill:url(#a)"/><ellipse cx="2063.6" cy="1935.8" rx="1570" ry="60.1" style="opacity:0.1"/><g style="opacity:0.7000000000000001"><path d="M254.2,930.6a265.5,265.5,0,0,1-31.7,126.6c-22.9,42.3-56.9,76.5-97.6,97.8a210.9,210.9,0,0,1-98,24.2A199.2,199.2,0,0,1,0,1177.4V683.7A217.1,217.1,0,0,1,26.9,682c124.9,0,226.3,110.2,227.2,246.6A13.4,13.4,0,0,1,254.2,930.6Z" style="fill:#fff;opacity:0.5"/><path d="M348.7,1280.6c0,2.8-.1,5.6-.2,8.3-1.7,57.9-21.4,110.8-53.2,152.2a232.8,232.8,0,0,1-74.1,63.7,210.7,210.7,0,0,1-174.5,12.4,216.8,216.8,0,0,1-31.3-14.6c-5.2-3-10.4-6.2-15.4-9.6V1068.3c34.9-23.8,76.1-37.5,120.3-37.5,5.5,0,11,.2,16.5.7a211.1,211.1,0,0,1,85.7,25.7c72.3,39.6,122.7,120,126,213.5C348.6,1274,348.7,1277.3,348.7,1280.6Z" style="fill:#fff;opacity:0.8"/><ellipse cx="291.8" cy="1111.8" rx="171.6" ry="187.7" style="fill:#fff;opacity:0.5"/><ellipse cx="407.5" cy="1467.6" rx="189.4" ry="207.2" style="fill:#fff;opacity:0.5"/><path d="M132.7,1676.7c0,60.2-26.7,113.6-67.9,146.8A159.6,159.6,0,0,1,0,1855.1V1498.3a159.3,159.3,0,0,1,15.4,4.3,153.9,153.9,0,0,1,31.3,14.6C98,1548.3,132.7,1608,132.7,1676.7Z" style="fill:#fff;opacity:0.5"/><path d="M427.4,1683.5c0,84.6-34.9,160.4-89.8,210.9H13.6c-4.7-4.3-9.2-8.8-13.6-13.5V1486.1c45.4-48.3,107.3-78.1,175.6-78.1a228.9,228.9,0,0,1,49.2,5.3,236.4,236.4,0,0,1,70.5,27.8c43.2,25.5,78.7,64.5,102,111.7h0a293.4,293.4,0,0,1,29.9,120.9C427.3,1676.9,427.4,1680.2,427.4,1683.5Z" style="fill:#fff;opacity:0.8"/><path d="M67.4,1847.7a110.8,110.8,0,0,1-10.1,46.7H0V1748.7c32,10.4,56.9,39,64.8,74.8A112.9,112.9,0,0,1,67.4,1847.7Z" style="fill:#fff;opacity:0.5"/><path d="M625.7,1764.3c0,4.6-.1,9.1-.4,13.6l-.3,4.5a232.3,232.3,0,0,1-10.2,52.6,221.6,221.6,0,0,1-29.2,59.4H273.8c-25.2-36.1-40.1-81.2-40.1-130.1,0-54.1,18.3-103.6,48.6-141.3s69.4-61.9,115-70.2a182.4,182.4,0,0,1,32.4-2.9,188.1,188.1,0,0,1,19.9,1.1c39.5,4.3,75.5,21.5,104.6,47.7l.3.2c30.3,27.5,53,64.8,63.9,107.4A230.4,230.4,0,0,1,625.7,1764.3Z" style="fill:#fff;opacity:0.8"/><ellipse cx="644.1" cy="1721.2" rx="143.3" ry="156.8" style="fill:#fff;opacity:0.5"/><ellipse cx="575" cy="1575.3" rx="127.4" ry="139.3" style="fill:#fff;opacity:0.8"/><path d="M978.6,1725.7a212.6,212.6,0,0,1-5.1,46.3,198.6,198.6,0,0,1-42.3,85.4,180.8,180.8,0,0,1-43.1,37H717.6v.8l-1.3-.8a177.7,177.7,0,0,1-30.2-23.3c-24.1-23-42.4-53.1-52.3-87.3q-2.2-8-3.9-16.2a206.1,206.1,0,0,1-4.2-41.9,198,198,0,0,1,1.3-23.2h0c5.7-52.1,30.3-97.8,66.2-128.6,2.9-2.5,5.9-4.9,8.9-7.2,28.5-21.5,62.9-34,100.1-34a162.7,162.7,0,0,1,73.9,17.7c50.2,25.4,87.6,75.8,98.9,136.5h0A204.8,204.8,0,0,1,978.6,1725.7Z" style="fill:#fff;opacity:0.5"/><path d="M1194.5,1804.6a157.6,157.6,0,0,1-27.6,89.8h-217a149.6,149.6,0,0,1-18.7-37,163.7,163.7,0,0,1-4.1-91.9,151.1,151.1,0,0,1,47.9-78.6c23.1-19.5,52-31.2,83.4-31.2a126.2,126.2,0,0,1,27,2.9c46.7,10.3,84.8,46.8,100.9,94.9A161.4,161.4,0,0,1,1194.5,1804.6Z" style="fill:#fff;opacity:0.8"/><path d="M1034.3,1809.9a157.6,157.6,0,0,1-24,84.5h-224c-15.2-24-24-53-24.1-84.4h0a158.2,158.2,0,0,1,25.2-86.3,152.4,152.4,0,0,1,11.7-15.7,136.6,136.6,0,0,1,48.8-36.3,125.7,125.7,0,0,1,50.4-10.6,127.5,127.5,0,0,1,76.7,25.9h0c22.3,16.6,39.9,40.4,49.9,68.3A160.6,160.6,0,0,1,1034.3,1809.9Z" style="fill:#fff;opacity:0.8"/><path d="M717.6,1894.4v.8l-1.3-.8H512a118.8,118.8,0,0,1,23.2-71.3c18.9-25.1,47.5-41.2,79.6-41.2a85.1,85.1,0,0,1,8.8.4H625c3,.4,5.9.8,8.8,1.4,37,7.6,67,36.8,78.7,75.2A124.7,124.7,0,0,1,717.6,1894.4Z" style="fill:#fff;opacity:0.8"/><path d="M870.6,1833.6a149,149,0,0,1-12.7,60.8H717.6v.8l-1.3-.8H627.5a145.4,145.4,0,0,1-6.7-18.5,148.1,148.1,0,0,1-6-40.9v-1.4a151.8,151.8,0,0,1,8.8-51.3c.6-1.5,1.1-3,1.7-4.4,1.4-3.5,2.9-7,4.6-10.3,21.5-44,64-74,112.8-74a118.8,118.8,0,0,1,43.7,8.4,121.7,121.7,0,0,1,12.7,5.9C841.5,1730.7,870.6,1778.4,870.6,1833.6Z" style="fill:#fff;opacity:0.8"/><ellipse cx="965.5" cy="1639.8" rx="121.1" ry="132.5" style="fill:#fff;opacity:0.5"/><path d="M1326.4,1851a126.4,126.4,0,0,1-1.9,21.5,122.8,122.8,0,0,1-6.4,21.9H1137.9a114.9,114.9,0,0,1-8.3-43.4c0-43.1,23.2-80.3,56.7-97.5a90.7,90.7,0,0,1,41.7-10.1c28.8,0,54.7,13.5,72.7,35.1a111.9,111.9,0,0,1,25.4,64.7Q1326.4,1847.1,1326.4,1851Z" style="fill:#fff;opacity:0.5"/><path d="M1394.5,1894.4H1281.1c3-19.7,14.4-36.4,30-45.3a53.9,53.9,0,0,1,15-5.9,50.6,50.6,0,0,1,11.7-1.3C1366.3,1841.9,1390,1864.6,1394.5,1894.4Z" style="fill:#fff;opacity:0.5"/><path d="M3656,741.3v378.6a246.9,246.9,0,0,1-48.3-62.7,265.4,265.4,0,0,1-31.6-126.6v-2C3576.6,853.6,3607.5,786.5,3656,741.3Z" style="fill:#fff;opacity:0.5"/><path d="M3607.7,1057.2a213.2,213.2,0,0,1,48.3-19.4v485.7a217.4,217.4,0,0,1-47-18.7,232.8,232.8,0,0,1-74.1-63.7c-31.8-41.4-51.5-94.3-53.2-152.1-.1-2.8-.1-5.6-.1-8.4s0-6.6.1-9.9C3485.1,1177.2,3535.4,1096.8,3607.7,1057.2Z" style="fill:#fff;opacity:0.8"/><path d="M3656,975.1v273.3c-30.7,31.6-72.1,51-117.6,51h-5.3a161.1,161.1,0,0,1-51.4-10.4,168.8,168.8,0,0,1-47.5-28.1c-41-34.3-67.4-88.4-67.4-149.1,0-103.7,76.8-187.7,171.6-187.7a162.1,162.1,0,0,1,37.7,4.5C3606.6,936.1,3634,952.5,3656,975.1Z" style="fill:#fff;opacity:0.5"/><ellipse cx="3422.7" cy="1467.6" rx="189.4" ry="207.2" style="fill:#fff;opacity:0.5"/><path d="M3656,1408v486.4H3492.6c-54.9-50.5-89.8-126.3-89.8-210.9,0-3.3.1-6.6.2-9.8a293.4,293.4,0,0,1,29.9-120.9c23.3-47.2,58.9-86.2,102-111.7a235.9,235.9,0,0,1,70.6-27.8h0a228,228,0,0,1,49.1-5.3Z" style="fill:#fff;opacity:0.8"/><path d="M3596.5,1764.3c0,48.9-14.9,94-40.1,130.1H3244.7a206.7,206.7,0,0,1-14.5-24,221.9,221.9,0,0,1-14.8-35.4,232.3,232.3,0,0,1-10.2-52.6l-.3-4.5c-.3-4.5-.4-9-.4-13.6a230.4,230.4,0,0,1,7.3-58c10.9-42.6,33.6-79.9,64-107.4,0-.1.1-.1.2-.2,29.1-26.2,65.1-43.4,104.6-47.7a188.1,188.1,0,0,1,19.9-1.1,181.6,181.6,0,0,1,32.4,2.9c45.6,8.3,85.9,33.8,115.1,70.2S3596.5,1710.2,3596.5,1764.3Z" style="fill:#fff;opacity:0.8"/><ellipse cx="3186.1" cy="1721.2" rx="143.3" ry="156.8" style="fill:#fff;opacity:0.5"/><ellipse cx="3255.2" cy="1575.3" rx="127.4" ry="139.3" style="fill:#fff;opacity:0.8"/><path d="M3204.5,1725.7a213.4,213.4,0,0,1-4.1,41.9c-1.2,5.5-2.5,10.9-4,16.2-9.9,34.2-28.2,64.3-52.3,87.3a173.1,173.1,0,0,1-30.1,23.3l-1.4.8v-.8H2942.2a181.5,181.5,0,0,1-43.9-37.8,199.5,199.5,0,0,1-41.6-84.6,212.6,212.6,0,0,1-5.1-46.3c0-7.1.4-14.2,1.1-21.2a188.8,188.8,0,0,1,2.9-20c11.9-59.7,49-109.1,98.5-134.1a163.1,163.1,0,0,1,74-17.7c37.1,0,71.6,12.5,100,34,3,2.3,6,4.7,8.9,7.2,35.9,30.8,60.6,76.5,66.3,128.6h0A222.4,222.4,0,0,1,3204.5,1725.7Z" style="fill:#fff;opacity:0.5"/><path d="M2907.9,1801.7a160,160,0,0,1-9.6,54.9,150.1,150.1,0,0,1-20,37.8h-213c-18.5-25.4-29.6-57.6-29.6-92.7a160.7,160.7,0,0,1,11.1-58.9c17.4-44.1,53.7-77.1,97.7-86.9a123.5,123.5,0,0,1,27.3-3c31.6,0,60.7,11.8,83.8,31.6a135.2,135.2,0,0,1,11,10.4,152.5,152.5,0,0,1,37.1,70.4A160.5,160.5,0,0,1,2907.9,1801.7Z" style="fill:#fff;opacity:0.8"/><path d="M3068,1825.5a160.1,160.1,0,0,1-15.4,68.9H2811.3a158.7,158.7,0,0,1-15.4-68.9,160.4,160.4,0,0,1,14.6-67.2,146.8,146.8,0,0,1,42.2-53.8,132.1,132.1,0,0,1,13.9-9.6,126.8,126.8,0,0,1,65.3-18.2,124.5,124.5,0,0,1,46.5,8.9h0a133.4,133.4,0,0,1,43.2,28,148.4,148.4,0,0,1,22.3,27.4h0a155.6,155.6,0,0,1,23.2,67.6h0A158.1,158.1,0,0,1,3068,1825.5Z" style="fill:#fff;opacity:0.8"/><path d="M3318.3,1894.4H3114l-1.4.8v-.8a121.2,121.2,0,0,1,5.2-35.4c11.6-38.4,41.6-67.6,78.6-75.2,2.9-.6,5.8-1,8.8-1.4h1.4a85.1,85.1,0,0,1,8.8-.4c32.1,0,60.7,16.1,79.6,41.2A118.9,118.9,0,0,1,3318.3,1894.4Z" style="fill:#fff;opacity:0.8"/><path d="M3215.4,1833.6v1.4a151.9,151.9,0,0,1-5.9,40.9,145.8,145.8,0,0,1-6.8,18.5H3114l-1.4.8v-.8H2972.3a150.7,150.7,0,0,1-12.7-60.8c0-51,24.9-95.5,62-120a124.2,124.2,0,0,1,22.3-11.6,117.9,117.9,0,0,1,43.6-8.4c48.9,0,91.3,30,112.9,74,1.6,3.3,3.1,6.8,4.5,10.3.6,1.4,1.1,2.9,1.7,4.4A151.8,151.8,0,0,1,3215.4,1833.6Z" style="fill:#fff;opacity:0.8"/><ellipse cx="2864.7" cy="1639.8" rx="121.1" ry="132.5" style="fill:#fff;opacity:0.5"/><path d="M2700.7,1838.8a114.5,114.5,0,0,1-14.2,55.6H2518a114.5,114.5,0,0,1-14.2-55.6c0-1.3,0-2.6.1-3.9,1.8-57.7,45.2-103.8,98.3-103.8a90.7,90.7,0,0,1,44.6,11.7C2678.8,1760.6,2700.7,1796.9,2700.7,1838.8Z" style="fill:#fff;opacity:0.5"/><path d="M2549.9,1894.4h-115c1.1-33.7,26.4-60.7,57.5-60.7a54.7,54.7,0,0,1,11.5,1.2C2529.5,1840.6,2549,1864.9,2549.9,1894.4Z" style="fill:#fff;opacity:0.5"/><path d="M1530.3,1794.5a136.2,136.2,0,0,1-.7,14.4,131.7,131.7,0,0,1-26.1,66.5,124.8,124.8,0,0,1-18,19H1344.7a120,120,0,0,1-20.2-21.9,131.5,131.5,0,0,1-13.4-23.4,136.3,136.3,0,0,1-11.3-54.6,141.7,141.7,0,0,1,.9-16c5.9-50.4,38.9-91.5,82.5-105.2a105.4,105.4,0,0,1,31.9-4.9c59.2,0,108,48.9,114.5,111.9A132.4,132.4,0,0,1,1530.3,1794.5Z" style="fill:#fff;opacity:0.5"/><ellipse cx="1516.2" cy="1663.7" rx="133.3" ry="145.8" style="fill:#fff;opacity:0.5"/><path d="M1812.9,1801a144.2,144.2,0,0,1-6.5,42.9,135.5,135.5,0,0,1-29,50.5H1607.6c-21.9-23.9-35.5-56.9-35.5-93.4v-4.8a143.5,143.5,0,0,1,4.7-31.8c10.4-39.6,37.3-71.5,72.1-86.3a111.8,111.8,0,0,1,43.6-8.9c65.3,0,118.5,56.9,120.4,127.9Z" style="fill:#fff;opacity:0.8"/><path d="M1649.5,1846.8a87.7,87.7,0,0,1-13.8,47.6H1512.6a87.6,87.6,0,0,1-9.1-19,86.6,86.6,0,0,1-4.7-28.6,90,90,0,0,1,8.2-37.6,81.8,81.8,0,0,1,22.6-28.9,70.5,70.5,0,0,1,44.6-16h2.6a69.6,69.6,0,0,1,28.9,7.5C1631.5,1784.9,1649.5,1813.6,1649.5,1846.8Z" style="fill:#fff;opacity:0.5"/><path d="M2045.9,1839.9a142,142,0,0,1-10.8,54.5h-218a142.8,142.8,0,0,1-10.7-50.5c-.1-1.4-.1-2.7-.1-4a143.5,143.5,0,0,1,13.2-59.9c19.9-42.3,60.2-71.1,106.6-71.1a104.8,104.8,0,0,1,19.5,1.7C2002.5,1720.8,2045.9,1774.8,2045.9,1839.9Z" style="fill:#fff;opacity:0.8"/><ellipse cx="1877.7" cy="1734.7" rx="71.4" ry="78.1" style="fill:#fff;opacity:0.5"/><path d="M2194.8,1841.3a81.8,81.8,0,0,1-3.5,23.9,80.7,80.7,0,0,1-9.2,20.2,75.8,75.8,0,0,1-6.8,9H2073.7a80.3,80.3,0,0,1-19.5-53.1c0-23.7,9.8-44.9,25.2-59,12.2-11.2,27.9-18,45.1-18,27.2,0,50.8,16.9,62.4,41.6A81.4,81.4,0,0,1,2194.8,1841.3Z" style="fill:#fff;opacity:0.5"/><path d="M2443.3,1824.4a150.6,150.6,0,0,1-17,70H2202.8c-2-3.8-3.8-7.7-5.5-11.7a163.7,163.7,0,0,1-6-17.5,155.8,155.8,0,0,1-5.5-40.8,162.6,162.6,0,0,1,1.1-18.5c4.9-40.4,25.4-75.3,54.6-97.4,20.8-15.7,45.9-24.9,73.1-24.9C2385.6,1683.6,2443.3,1746.7,2443.3,1824.4Z" style="fill:#fff;opacity:0.8"/><ellipse cx="2174.3" cy="1781.9" rx="95" ry="103.9" style="fill:#fff;opacity:0.5"/><ellipse cx="2045.9" cy="1637" rx="51.7" ry="56.6" style="fill:#fff;opacity:0.5"/></g><path d="M3502.3,1934.8c0,3.2-10.4,6.3-30.2,9.4-139.7,21.3-746.6,37.4-1474.2,37.4-636.5,0-1180.7-12.3-1400.4-29.7-67.1-5.3-103.9-11.1-103.9-17.1s37-11.9,104.5-17.2c220.2-17.4,763.9-29.7,1399.8-29.7,727,0,1333.5,16.1,1473.8,37.4C3491.8,1928.4,3502.3,1931.5,3502.3,1934.8Z" style="fill:#fff"/><rect x="493.6" y="1866.2" width="3008.8" height="68.59" style="fill:#fff"/><path d="M3502.3,1866.2c0,3.2-10.4,6.3-30.2,9.4-139.7,21.3-746.6,37.4-1474.2,37.4-636.5,0-1180.7-12.3-1400.4-29.7-67.1-5.3-103.9-11.1-103.9-17.1s37-11.9,104.5-17.2c220.2-17.4,763.9-29.7,1399.8-29.7,727,0,1333.5,16.1,1473.8,37.4C3491.8,1859.8,3502.3,1862.9,3502.3,1866.2Z" style="fill:#cecfcf"/><path d="M782.2,534a61.3,61.3,0,0,0-93.9-43.4,85.1,85.1,0,0,0-146.8-9.2,48.9,48.9,0,0,0-6.6-.5,41.2,41.2,0,0,0-40.2,49.8,50.5,50.5,0,0,0-43,49.9h0A50.6,50.6,0,0,0,502.1,631H762.9a50.6,50.6,0,0,0,50.5-50.4h0A50.5,50.5,0,0,0,782.2,534Z" style="fill:#fff;opacity:0.30000000000000004"/><path d="M3307.5,691.7H3306a2.8,2.8,0,0,0,.1-.9,56.7,56.7,0,0,0-106.7-26.7,30.9,30.9,0,0,0-12.9-2.9,30.4,30.4,0,0,0-26.8,16,31,31,0,0,0-14.8-3.8,30.3,30.3,0,0,0-11.4,58.4,31.2,31.2,0,0,0,30.8,27.1h143.2a31.1,31.1,0,0,0,31-31v-5.2A31.2,31.2,0,0,0,3307.5,691.7Z" style="fill:#fff;opacity:0.30000000000000004"/><path d="M3203.3,376.2H2979.8a30.3,30.3,0,0,1-4.4-15.8,31,31,0,0,1,46-27,31.1,31.1,0,0,1,27.3-16.2,30.7,30.7,0,0,1,13.2,2.9,57.7,57.7,0,0,1,108.6,27.1c0,.4-.1.7-.1,1h1.5A31.7,31.7,0,0,1,3203.3,376.2Z" style="fill:#fff;opacity:0.30000000000000004"/><path d="M860.7,1796.2q-35.4-32.4-55-91.6L881.5,1603q12.2,28.6,29.3,44.3c11.4,10.3,23.3,15.5,35.7,15.5q26.7,0,41.3-34.5t14.5-97.5V913.3h96.1v618.1q0,94-18.4,160.7t-53.7,101.6c-23.4,23.2-51.7,34.9-84.9,34.9Q896.1,1828.6,860.7,1796.2Z" style="fill:#fff"/><path d="M1282,1787.1q-40.8-41.4-63.1-117.1t-22.4-175.4V1237.9q0-99.6,22.4-175.4T1282,945.4q40.6-41.4,94.2-41.4t94.2,41.4q40.8,41.4,63.1,117.1t22.4,175.4v256.7q0,99.8-22.4,175.4t-63.1,117.1q-40.8,41.6-94.2,41.5T1282,1787.1Zm138.2-148.9c12.6-13.1,22.4-31.6,29.2-55.7s10.4-52,10.4-83.5V1233.6q0-47.4-10.4-83.5c-6.8-24.1-16.6-42.7-29.2-55.8s-27.3-19.6-44-19.6-31.4,6.5-44,19.6-22.4,31.7-29.3,55.8-10.3,51.9-10.3,83.5V1499c0,31.5,3.4,59.4,10.3,83.5s16.7,42.6,29.3,55.7,27.3,19.7,44,19.7S1407.5,1651.3,1420.2,1638.2Z" style="fill:#fff"/><path d="M1647.2,913.3h92.7v905.9h-92.7Zm40.6,741.4h157q31.8,0,49.2-28.3c11.6-18.9,17.5-45.4,17.5-79.4v-1.9q0-34.3-7.8-58.6c-5.2-16.2-12.8-28.5-22.9-37.1s-22-12.7-36-12.7h-157V1272.2h157q28.8,0,44.5-26.8T1905,1170q0-43.6-15.7-67.9t-44.5-24.3h-157V913.3h160c31.9,0,59,9.7,81.6,29s39.7,47.3,51.4,84.1,17.6,80.9,17.6,132.4q0,53-11.3,93.8t-33,66.9c-14.4,17.5-31.8,29.3-52.1,35.6,21.6,5.4,40.2,17.5,55.6,36.4s27.2,43.5,35.2,73.8,12,65.5,12,105.3v1.9q0,77.9-17.7,133.3t-51.8,84.4c-22.7,19.4-49.9,29-81.7,29H1687.8Z" style="fill:#fff"/><path d="M2094.5,913.3h92.7v905.9h-92.7Zm55.8,552,197.3-552h116.7l-302.1,773.8Zm81.9-104.6,79.9-92.9L2485,1819.2H2375Z" style="fill:#fff"/><path d="M2545.9,913.3h92.7v905.9h-92.7Zm33.5,0h296v164.5h-296Zm0,373.8h258.8v164.5H2579.4Zm0,367.6h296v164.5h-296Z" style="fill:#fff"/><path d="M3126.5,1469.7v349.5h-92.7V1469.7L2889,913.3h97.1l94,390,94.1-390h97.1Z" style="fill:#fff"/><path d="M782.4,1864.2c0,2.7-30.1,4.8-67.3,4.8s-67.4-2.1-67.4-4.8,30.2-4.7,67.4-4.7S782.4,1861.6,782.4,1864.2Z" style="opacity:0.1"/><path d="M757.7,1659.1c-7,3.7-31.6,31.4-34.3,9.3s13.9-16.6,13.9-16.6c24.3,6.6,42.1-19.9,42.1-19.9.1-5-1.7-11.2-4.4-17.5a7.8,7.8,0,0,0-.5-1.4,192.6,192.6,0,0,0-14.3-25.7c-10,18.7-52.4,51.9-56.5,41.9s7-13.4,7-13.4c39.5-8.3,40.9-37.3,40.9-37.3a19.9,19.9,0,0,0-4-6.1l-1.1-1.1c-10.4-10.8-31.6-22.2-31.6-22.2a45.8,45.8,0,0,1-16.6,32.6c-26,1.5-12.1-14.8-12.1-14.8,20.2-5.4,18.5-25.1,18.5-25.1a13.4,13.4,0,0,1-5.7-2l-1.2-.7c-9.1-5.3-21.6-16.5-21.6-16.5-1,8.6-10.9,11.6-11.2,11.6,2.7-1.4,3.9-14.6,3.9-14.6a10,10,0,0,1-2.7-1.6l-1.2-.8c-6.3-4.8-15.9-14.5-20.2-19l-2.2-2.4a4.5,4.5,0,0,1,.1,1.2,9.3,9.3,0,0,1-.4,2.7c-1.5,6.2-7.5,16.5-12.2,23.9l-.8,1.3-5.2,7.9c7.5,19,39.7,12.9,26,29.4s-33.1-18.7-33.1-18.7c.4,2.2-1.8,6.5-5,11.5l-.9,1.3c-2.4,3.5-5.2,7.3-7.9,10.8l-.9,1.1c-5.4,6.8-10.1,12.3-10.1,12.3s2.4,20.2,31.2,27,24.5,12.4,24.5,12.4c-28.2,12.2-57.9-31.6-57.9-31.6-5.9,6.4-10.6,14.8-14.3,23.2l-.6,1.4a177.9,177.9,0,0,0-10.4,33.4c27,37.2,42.1,18.2,55.2,18.2s19.8,3.9,19.8,7.5-3.2,15.8-28.8,15.8-48.4-26-48.4-26a268.7,268.7,0,0,0,8.3,36.6,8.8,8.8,0,0,0,.5,1.5c30.8,95.3,99.2,30.5,108.1,21.5l.9-.9s.1.8.4,2.1h0a31.3,31.3,0,0,0,1.3,3.3h0a20.4,20.4,0,0,0,9.5,9.4c25.4,12.4,85.9-4.4,83.3-34.4a75.4,75.4,0,0,1,.2-15.8,10,10,0,0,1,.2-1.6,96.8,96.8,0,0,1,13.2-37.2S764.8,1655.5,757.7,1659.1Zm-45.7,9.4c-1.2,2.3-5.5,2.4-9.5.3s-6.3-5.6-5.1-7.9,5.4-2.4,9.4-.3S713.1,1666.3,712,1668.5Zm-48.3-4.4c-5.8,2.9-12,2.4-13.8-1.2s1.5-8.9,7.4-11.8,12.1-2.4,13.9,1.2S669.6,1661.2,663.7,1664.1Zm-5.5-44.1c-.2-2.4,3.6-4.6,8.6-5.1s9.2,1.1,9.4,3.5-3.7,4.6-8.6,5S658.4,1622.3,658.2,1620Zm55-47.7c1.9-4.6,5.2-7.6,7.4-6.7s2.5,5.4.6,10-5.2,7.6-7.4,6.7S711.4,1577,713.2,1572.3Zm-69.4,148.1c-9.3,3.8-18.1,4-19.5.5s4.9-9.5,14.2-13.3,18-4.1,19.5-.5S653.1,1716.6,643.8,1720.4Zm77.2-17.6c-.9,3.9-5.8,6-11.1,4.8s-8.7-5.3-7.8-9.2,5.9-6.1,11.1-4.9S721.9,1698.9,721,1702.8Z" style="fill:#589742"/><g style="opacity:0.30000000000000004"><path d="M775.2,1683.5a10,10,0,0,0-.2,1.6c-27.5,6.9-48.4,6-62.2,3.4s-24.3-7.7-28-10l-1.3-.9-1.6,1.4c-9.5,8.3-21.4,14.4-35.4,18.3a152.6,152.6,0,0,1-40.4,5.3h-1.3a215,215,0,0,1-33.5-2.7,8.8,8.8,0,0,1-.5-1.5,222.3,222.3,0,0,0,35.3,2.7c22.7-.1,54.1-4.5,75.9-24.1l1-.9.4-.4.5.4,1,.7c2.9,1.9,12.4,7.4,28.3,10.3C726.9,1689.6,747.7,1690.5,775.2,1683.5Z" style="fill:#fff"/></g><g style="opacity:0.30000000000000004"><path d="M775,1614.4a140.4,140.4,0,0,1-23,15.2,101.9,101.9,0,0,1-35.6,11.7c-15.8,1.9-26.6-1.2-30.6-2.7a7.2,7.2,0,0,1-1.5-.7l-1.4.5a107.4,107.4,0,0,1-33.6,5.5,101.4,101.4,0,0,1-14.6-1.1,105.6,105.6,0,0,1-37.7-13.5,130.8,130.8,0,0,1-21.9-16.4l.6-1.4a126.4,126.4,0,0,0,22.1,16.6c18.4,10.7,48.1,20.9,85,8.8l1.3-.4h.5l1.1.5c3.4,1.3,14.5,4.9,30.6,2.9,14.1-1.7,34.4-8.1,58.2-26.9A7.8,7.8,0,0,1,775,1614.4Z" style="fill:#fff"/></g><g style="opacity:0.30000000000000004"><path d="M747.6,1572.4a85.6,85.6,0,0,1-9.7,9.4,75.8,75.8,0,0,1-48.5,17.6,76.1,76.1,0,0,1-8.6-.5l-1.8-.3h-1.2c-30.9-.7-51.9-11.5-64.1-20.5a79.4,79.4,0,0,1-11.4-9.9l.9-1.1a86.1,86.1,0,0,0,11.4,9.9c12,8.8,32.6,19.4,62.8,20.1h1.9l1.1.2a73.8,73.8,0,0,0,29.4-2.3c10.6-3,24.3-9.6,36.7-23.8Z" style="fill:#fff"/></g><g style="opacity:0.30000000000000004"><path d="M699,1539.8a38.8,38.8,0,0,1-13.8,15.1,39.6,39.6,0,0,1-15.6,5.6l-1.4.2L667,1562q-10.8,11.4-23.4,11.4h-1.9c-12.4-.8-23.4-9.6-30.6-17.1l.9-1.3c7,7.4,17.9,16.2,29.8,16.9,8.9.6,17.2-3.3,24.7-11.4l.8-1,.3-.2h.3l1.2-.2a39.4,39.4,0,0,0,15.4-5.5,35.8,35.8,0,0,0,13.3-14.5Z" style="fill:#fff"/></g><g style="opacity:0.30000000000000004"><path d="M666.2,1518a34.7,34.7,0,0,1-10.1,6.6l-1.3.5a5.7,5.7,0,0,1-1.3.8,18.9,18.9,0,0,1-9,2,49.4,49.4,0,0,1-15.2-3l.8-1.3c8.2,2.8,17,4.2,22.9.9l1.1-.7h.2l1.3-.4a32.3,32.3,0,0,0,8.2-5l1.2-1.1Z" style="fill:#fff"/></g><path d="M684.9,1676.8c0,.5-.1,1.1-.1,1.7-.5,9.1-1,18.3-1.6,27q-.6,10.5-1.2,20.4h0c-1.3,23-1.7,42.5,1.6,50l-2.7,1.1c-3.7-8.5-3-29.7-1.5-55.6.3-5.2.6-10.5.9-16,.6-8.6,1.1-17.5,1.6-26.4,0-.6.1-1.3.1-2,.7-13.3,1.1-26.6.9-38.6,0-.5-.1-1-.1-1.5,0-3.2-.2-6.2-.3-9.2-.5-8.8-2.3-18.7-4.7-29.1-.1-.5-.3-1-.4-1.5-2.8-11.5-6.4-23.5-10.4-35.1-.2-.5-.3-1-.5-1.5-4.3-12.5-8.8-24.4-13-34.6a7.8,7.8,0,0,1-.5-1.4c-4.4-10.6-8.2-19.3-10.7-24.8a9.3,9.3,0,0,0,.4-2.7,4.5,4.5,0,0,0-.1-1.2l2.2,2.4c2.5,5.4,6.4,14.3,10.8,25.1a6.9,6.9,0,0,0,.5,1.3c4.1,10.2,8.7,22.1,13,34.5a5.8,5.8,0,0,0,.5,1.4c4.1,12.2,8,24.8,10.8,36.9a8.3,8.3,0,0,1,.4,1.5,182.8,182.8,0,0,1,4.6,28.7c.1,3,.3,6.1.3,9.4,0,.5.1,1,.1,1.6C686,1650.4,685.6,1663.6,684.9,1676.8Z" style="fill:#467437"/><path d="M624.1,1626.1a97.3,97.3,0,0,1,6.4,38.9c0,.5-.1,1-.1,1.6a73.7,73.7,0,0,1-2.6,15.6c-8,29,48.6,56.4,75.8,48.7a19.9,19.9,0,0,0,11-7.6h0a21.5,21.5,0,0,0,1.8-3h0a13.3,13.3,0,0,0,.8-2.1l.8,1.2c7.1,10.3,62.9,86.3,110.2-1.9a6.4,6.4,0,0,1,.8-1.4,255.7,255.7,0,0,0,14.6-34.6s-27.1,21.6-52.3,17-26.1-17.1-25.4-20.7,7.8-6.2,20.7-3.9,24.4,23.8,57.6-8a180.1,180.1,0,0,0-4.2-34.7c-.1-.5-.3-1-.4-1.5-2.1-9-5.3-18.1-9.9-25.4,0,0-37.1,37.8-62.7,20.8,0,0-3.1-6.3,26.4-7.8s35.5-21.1,35.5-21.1-3.7-6.2-7.7-13.8a8.3,8.3,0,0,1-.7-1.3c-2.1-3.9-4.2-8.2-5.9-12.1l-.6-1.4c-2.3-5.5-3.7-10.1-2.9-12.2,0,0-25.5,31.1-35.9,12.5s20-7,30.8-24.3c0,0-1.6-3.6-3.7-8.7-.2-.4-.3-.9-.5-1.4-3.3-8.2-7.4-19.4-7.8-25.7a12,12,0,0,1,0-2.7,8.3,8.3,0,0,1,.4-1.2l-2.6,1.9c-5,3.7-16.2,11.6-23.3,15.2l-1.2.6-3,1.1s-1.1,13.1,1.2,15c-.3-.1-9.5-4.8-8.9-13.4,0,0-14.3,8.8-24.2,12.4l-1.3.4c-2.5.8-4.6,1.3-6,1s-5.1,19.1,13.8,28c0,0,10.7,18.5-14.6,12.4a45.9,45.9,0,0,1-10.5-35s-23,7.4-35.1,16.2l-1.2.9a18,18,0,0,0-5.1,5.3s-3.8,28.7,33.6,43.9c0,0,10.4,5.4,4.5,14.5s-41.6-31.1-48.1-51.3a182.8,182.8,0,0,0-18.6,22.7l-.9,1.3c-3.7,5.7-6.6,11.5-7.3,16.4,0,0,12.7,29.3,37.8,27.1,0,0,17.3-2.5,10.7,18.8s-25.8-10.3-32.1-15.2S624.1,1626.1,624.1,1626.1Zm77.7,28.5c4.4-1.3,8.5-.5,9.3,2s-2.1,5.5-6.5,6.9-8.5.5-9.2-2S697.5,1656,701.8,1654.6Zm36.6-1.8c2.4-3.2,8.6-2.6,13.9,1.3s7.5,9.7,5.2,12.9-8.6,2.7-13.9-1.3S736,1656,738.4,1652.8Zm8.7-27.7c-4.8-1.4-8.2-4.3-7.6-6.5s5.1-3.1,9.9-1.8,8.2,4.3,7.5,6.5S751.9,1626.4,747.1,1625.1Zm-38.2-48.8c-2.3.5-5-3-6.1-7.9s.1-9.2,2.4-9.7,5,3,6,7.9S711.2,1575.9,708.9,1576.3Zm32.7,132.8c2.1-3.3,10.6-1.5,19.1,3.9s13.7,12.4,11.6,15.6-10.6,1.5-19.1-3.9S739.5,1712.3,741.6,1709.1Zm-51.9-23.2c5.3-.3,9.8,2.7,10,6.7s-4,7.5-9.3,7.7-9.9-2.7-10.1-6.7S684.3,1686.1,689.7,1685.9Z" style="fill:#6fbe44"/><g style="opacity:0.30000000000000004"><path d="M630.5,1665c0,.5-.1,1-.1,1.6,25.9,11.6,46.5,14.5,60.6,14.4s25.3-3.3,29.3-4.9l1.4-.6c.5.6.9,1.2,1.4,1.7,7.8,9.8,18.4,17.9,31.5,24.3,11.2,5.5,24.3,9.6,38.8,12.4l1.4.2a220.6,220.6,0,0,0,33.4,3.4,6.4,6.4,0,0,1,.8-1.4,218.8,218.8,0,0,1-35.3-3.7c-22.3-4.2-52.5-14-70.4-37.2l-.8-1-.3-.5-.6.2-1.1.5c-3.2,1.4-13.5,5.2-29.6,5.2C676.9,1679.6,656.3,1676.8,630.5,1665Z" style="fill:#fff"/></g><g style="opacity:0.30000000000000004"><path d="M642.9,1597a161.4,161.4,0,0,0,20,19.1,102,102,0,0,0,33,17.9c15.1,4.6,26.3,3.5,30.6,2.7l1.6-.3,1.3.6a105.9,105.9,0,0,0,32,11.4A101.9,101.9,0,0,0,776,1650a104.3,104.3,0,0,0,39.4-6.6,127.8,127.8,0,0,0,24.6-12.2c-.1-.5-.3-1-.4-1.5a122.8,122.8,0,0,1-24.7,12.4c-20,7.3-51,12-85.2-6.5l-1.2-.7H728l-1.2.2c-3.6.7-15.1,2.3-30.6-2.6-13.6-4.2-32.5-14-52.4-36.8Z" style="fill:#fff"/></g><g style="opacity:0.30000000000000004"><path d="M677.5,1560.6a87.1,87.1,0,0,0,7.8,11A77,77,0,0,0,710,1591a72.3,72.3,0,0,0,19.9,6.5,51.3,51.3,0,0,0,8.5,1h1.8l1.3.2c30.4,4.8,53-2.1,66.7-8.7a109.1,109.1,0,0,0,13-7.7,8.3,8.3,0,0,1-.7-1.3,101.6,101.6,0,0,1-13,7.7c-13.4,6.5-35.6,13.2-65.4,8.6l-1.7-.3h-1.3a72.5,72.5,0,0,1-28.5-7.4c-10-4.9-22.2-13.9-31.9-30Z" style="fill:#fff"/></g><g style="opacity:0.30000000000000004"><path d="M731.1,1537.1a37.5,37.5,0,0,0,10.9,17.4,40.5,40.5,0,0,0,14.3,8.3l1.3.4,1,1.5c5.7,8.8,12.7,13.9,21,15.4l1.8.3c12.4,1.4,24.8-5.3,33.2-11.4l-.6-1.4c-8.3,6-20.5,12.7-32.4,11.4-8.8-1.1-16.3-6.3-22.2-15.7l-.7-1.1-.2-.3h-.3l-1.1-.3a40.6,40.6,0,0,1-14.2-8.1,36.4,36.4,0,0,1-10.5-16.7Z" style="fill:#fff"/></g><g style="opacity:0.30000000000000004"><path d="M767.3,1521.6a35,35,0,0,0,8.7,8.3l1.2.7,1.1,1a19.6,19.6,0,0,0,8.5,3.5,47.6,47.6,0,0,0,15.5-.2c-.2-.4-.3-.9-.5-1.4-8.6,1.3-17.5,1.1-22.7-3.2a3.9,3.9,0,0,1-1-.8h-.2l-1.1-.7a30.5,30.5,0,0,1-7.3-6.4l-1-1.2Z" style="fill:#fff"/></g><path d="M720.5,1674.4c-.1.6-.1,1.2-.2,1.7-1.2,9.1-2.2,18.2-3.3,26.9-.8,7-1.6,13.8-2.4,20.3h0c-2.9,22.9-5.9,42.1-10.4,48.9l2.4,1.6c5.1-7.8,8.3-28.7,11.4-54.4.6-5.2,1.3-10.5,1.9-16,1-8.5,2-17.3,3.2-26.2.1-.6.1-1.3.2-2,1.8-13.2,3.7-26.4,6.1-38.2l.3-1.4c.6-3.1,1.3-6.1,2-9a166.6,166.6,0,0,1,9.8-27.8l.6-1.4c4.8-10.8,10.5-22,16.5-32.7a6.4,6.4,0,0,1,.8-1.4c6.4-11.5,13-22.4,18.9-31.7l.8-1.3c6.2-9.7,11.5-17.6,14.9-22.5a12,12,0,0,1,0-2.7,8.3,8.3,0,0,1,.4-1.2l-2.6,1.9c-3.4,5-8.8,13-15,22.8a5.7,5.7,0,0,0-.8,1.3c-5.9,9.3-12.5,20.1-18.9,31.6l-.8,1.3c-6.2,11.2-12.3,23-17.2,34.3-.3.5-.5,1-.7,1.4a192.6,192.6,0,0,0-9.6,27.4c-.7,3-1.4,6.1-2,9.2l-.3,1.6C724.2,1648.3,722.2,1661.3,720.5,1674.4Z" style="fill:#5c9b43"/><path d="M738.2,1864.2H650.1a9,9,0,0,1-9-8l-8.6-78.8a9,9,0,0,1,9-10H746.8a9,9,0,0,1,9,10l-8.6,78.8A9,9,0,0,1,738.2,1864.2Z" style="fill:#d79128"/><rect x="621.6" y="1767.4" width="146.4" height="26.02" rx="6.5" style="fill:#fcaf17"/><rect x="2807.1" y="1498" width="295.8" height="360.7" rx="18.4" style="fill:#2f495e"/><path d="M3102.9,1516.4v88.5H2807.1v-88.5a18.5,18.5,0,0,1,18.4-18.4h259A18.5,18.5,0,0,1,3102.9,1516.4Z" style="fill:#3f5e72"/><rect x="2828.4" y="1519.1" width="253.2" height="65.65" rx="7.5" style="fill:#bbcfbe"/><rect x="2828.4" y="1620.8" width="54.8" height="40.57" rx="7.7" style="fill:#779199"/><rect x="2894" y="1620.8" width="54.8" height="40.57" rx="7.7" style="fill:#779199"/><rect x="2959.7" y="1620.8" width="54.8" height="40.57" rx="7.7" style="fill:#779199"/><rect x="3025.3" y="1620.8" width="54.8" height="40.57" rx="7.7" style="fill:#779199"/><rect x="2828.4" y="1677.3" width="54.8" height="40.57" rx="7.7" style="fill:#779199"/><rect x="2894" y="1677.3" width="54.8" height="40.57" rx="7.7" style="fill:#779199"/><rect x="2959.7" y="1677.3" width="54.8" height="40.57" rx="7.7" style="fill:#779199"/><rect x="3025.3" y="1677.3" width="54.8" height="40.57" rx="7.7" style="fill:#779199"/><rect x="2828.4" y="1733.7" width="54.8" height="40.57" rx="7.7" style="fill:#779199"/><rect x="2894" y="1733.7" width="54.8" height="40.57" rx="7.7" style="fill:#779199"/><rect x="2959.7" y="1733.7" width="54.8" height="40.57" rx="7.7" style="fill:#779199"/><rect x="3025.3" y="1733.7" width="54.8" height="40.57" rx="7.7" style="fill:#779199"/><rect x="2828.4" y="1790.2" width="54.8" height="40.57" rx="7.7" style="fill:#779199"/><rect x="2894" y="1790.2" width="54.8" height="40.57" rx="7.7" style="fill:#779199"/><rect x="2959.7" y="1790.2" width="54.8" height="40.57" rx="7.7" style="fill:#ee1c4c"/><rect x="3025.3" y="1790.2" width="54.8" height="40.57" rx="7.7" style="fill:#779199"/><path d="M2853.5,1748.1h-.1l-3.4,1.6-.6-2.6,4.5-2.2h2.9v18.4h-3.3Z" style="fill:#fff"/><path d="M2861,1810.4c0,5.9-2.3,9.6-6.7,9.6s-6.5-3.9-6.5-9.5,2.4-9.5,6.7-9.5S2861,1804.9,2861,1810.4Zm-9.7.1c-.1,4.5,1.2,6.8,3.1,6.8s3.1-2.5,3.1-6.9-1-6.8-3.1-6.8S2851.2,1805.9,2851.3,1810.5Z" style="fill:#fff"/><path d="M2914.3,1763.3v-2.1l2.2-2c4.3-4,6.4-6.3,6.4-8.7a2.9,2.9,0,0,0-3.3-3.1,6.6,6.6,0,0,0-3.9,1.6l-1-2.5a8.8,8.8,0,0,1,5.6-1.9c4.1,0,6.1,2.6,6.1,5.6s-2.3,5.8-5.5,8.8l-1.6,1.4h7.5v2.9Z" style="fill:#fff"/><path d="M2981.4,1759.7a9.3,9.3,0,0,0,4.2,1.1c2.6,0,3.7-1.5,3.7-2.9s-2.1-3.1-4.2-3.1h-1.6v-2.6h1.6c1.6,0,3.6-.7,3.6-2.5s-.9-2.3-2.9-2.3a7.8,7.8,0,0,0-3.8,1.1l-.8-2.5a10.5,10.5,0,0,1,5.3-1.4c3.8,0,5.7,2.1,5.7,4.5s-1.1,3.5-3.4,4.3h0a4.6,4.6,0,0,1,4.1,4.5c0,3.1-2.6,5.6-7.2,5.6a9.5,9.5,0,0,1-5.1-1.3Z" style="fill:#fff"/><path d="M2855.7,1707.2v-4.6h-8.3v-2.3l7.5-11.4h4.1v11h2.3v2.7H2859v4.6Zm0-7.3v-5c0-1,0-2.1.1-3.2h-.1c-.6,1.2-1.1,2.1-1.6,3.2l-3.4,5h5Z" style="fill:#fff"/><path d="M2926,1691.7h-7.1l-.5,3.7h1.3a8.2,8.2,0,0,1,4.5,1.2,5.4,5.4,0,0,1,2.4,4.7c0,3.5-2.9,6.3-7.4,6.3a11.6,11.6,0,0,1-4.9-1l.7-2.7a8.5,8.5,0,0,0,4.1,1c2,0,3.9-1.2,3.9-3.4s-1.5-3.4-5.2-3.4h-2.5l1.2-9.2h9.5Z" style="fill:#fff"/><path d="M2991.9,1691.3h-1.8c-3.9.5-5.7,2.8-6.2,5.4h.1a5.1,5.1,0,0,1,4.1-1.8c3.2,0,5.7,2.3,5.7,6a6.4,6.4,0,0,1-6.5,6.5c-4.5,0-6.9-3.3-6.9-7.9a10.8,10.8,0,0,1,3.2-8.2,10.4,10.4,0,0,1,6.5-2.7h1.7Zm-1.7,9.9c0-2.1-1.1-3.7-3.2-3.7a3.5,3.5,0,0,0-3,1.9,3.6,3.6,0,0,0-.2,1.1c.1,2.5,1.2,4.4,3.5,4.4S2990.2,1703.4,2990.2,1701.2Z" style="fill:#fff"/><path d="M2860.6,1632.8v2.2l-7.7,16.2h-3.7l7.7-15.5h-8.6v-2.9Z" style="fill:#fff"/><path d="M2914.1,1646.5a5,5,0,0,1,3.4-4.8h0a4.5,4.5,0,0,1-2.8-4.1c0-3,2.7-5,6.2-5s5.7,2.4,5.7,4.6a4.6,4.6,0,0,1-2.8,4.2h0a4.8,4.8,0,0,1,3.5,4.6c0,3.3-2.8,5.5-6.7,5.5S2914.1,1649,2914.1,1646.5Zm9.7-.2c0-1.9-1.4-2.9-3.4-3.5a3.4,3.4,0,0,0-2.8,3.3,3,3,0,0,0,3.1,2.9C2922.6,1649,2923.8,1647.9,2923.8,1646.3Zm-5.8-8.9c0,1.5,1.3,2.4,3,2.9a3,3,0,0,0,2.3-2.8,2.7,2.7,0,0,0-5.3-.1Z" style="fill:#fff"/><path d="M2982.1,1648.7h1.9a6.7,6.7,0,0,0,3.7-1.4,6.3,6.3,0,0,0,2.4-4.1h-.1a4.9,4.9,0,0,1-4,1.7,5.5,5.5,0,0,1-5.6-5.8,6.5,6.5,0,0,1,6.7-6.5c4.3,0,6.6,3.4,6.6,7.8a11.7,11.7,0,0,1-3.2,8.6,10.7,10.7,0,0,1-6.3,2.5h-2.1Zm1.8-9.9c0,1.9,1.1,3.4,3,3.4a3.3,3.3,0,0,0,3-1.5,2.2,2.2,0,0,0,.2-1c0-2.5-.9-4.6-3.2-4.6S2983.9,1636.6,2983.9,1638.8Z" style="fill:#fff"/><path d="M2994.3,1819.4a14.7,14.7,0,0,1-5.4.9c-6.7,0-10.7-4.2-10.7-10.5s4.8-11.1,11.2-11.1a12.4,12.4,0,0,1,5.1.9l-.9,3.1a10.6,10.6,0,0,0-4.1-.8c-4.2,0-7.3,2.7-7.3,7.7s2.7,7.5,7.3,7.5a12.7,12.7,0,0,0,4.2-.7Z" style="fill:#fff"/><rect x="3042.2" y="1808.5" width="21" height="3" style="fill:#fff"/><rect x="2909.8" y="1805.3" width="21" height="3" style="fill:#fff"/><rect x="3042.5" y="1752.5" width="21" height="3" style="fill:#fff"/><rect x="2909.8" y="1812.5" width="21" height="3" style="fill:#fff"/><rect x="3042.2" y="1639.6" width="21" height="3" style="fill:#fff"/><rect x="3042.2" y="1808.5" width="21" height="3" transform="translate(4862.7 -1242.7) rotate(90)" style="fill:#fff"/><rect x="3042.2" y="1697.3" width="21" height="3" transform="translate(2095.3 -1661) rotate(45)" style="fill:#fff"/><rect x="3042.2" y="1697.3" width="21" height="3" transform="translate(6412.5 741.4) rotate(135)" style="fill:#fff"/><path d="M3055.7,1633.3a2.8,2.8,0,0,1-5.5,0,2.8,2.8,0,1,1,5.5,0Z" style="fill:#fff"/><path d="M3055.7,1649a2.8,2.8,0,0,1-5.5,0,2.8,2.8,0,1,1,5.5,0Z" style="fill:#fff"/><path d="M2948.9,1548.3v-10.9l1.6-4.2a3.3,3.3,0,0,1,2.6,2.6v14.6l-1,1Zm3.2,4.2,1,1v14.6a3.2,3.2,0,0,1-2.6,2.6l-1.6-4.2v-10.9Z" style="fill:#353535"/><path d="M2962.5,1570.7h-4.2v-4.2h4.2Z" style="fill:#353535"/><path d="M2971.8,1538.4v9.9l-3.1,3.1-1-1v-13.5Zm-4.1,28.7v-13.6l1-1,3.1,3.1v9.9Zm18.2,3.6h-15.6a3.2,3.2,0,0,1-2.6-2.6l4.1-1.6h12.5Zm0-33.3h-14l-4.2-1.6a3.6,3.6,0,0,1,2.6-2.6h17.2Zm-.5,12.5,2.1,2.1-2.1,2h-13.6l-2-2,2-2.1Zm3.1,2.6,1.1,1v14.6a3.4,3.4,0,0,1-2.6,2.6l-1.6-4.2v-10.9Z" style="fill:#353535"/><path d="M2998.9,1538.4v9.9l-3.1,3.1-1-1v-13.5Zm12.5-1H2999l-4.2-1.6a3.5,3.5,0,0,1,2.6-2.6H3013Zm1.1,10.9v-10.9l1.5-4.2a3.3,3.3,0,0,1,2.6,2.6v14.6l-1,1Zm3.1,4.2,1,1v14.6a3.2,3.2,0,0,1-2.6,2.6l-1.5-4.2v-10.9Z" style="fill:#353535"/><path d="M3026,1538.4v9.9l-3.1,3.1-1.1-1v-13.5Zm-4.2,28.7v-13.6l1.1-1,3.1,3.1v9.9Zm18.3,3.6h-15.7a3.4,3.4,0,0,1-2.6-2.6l4.2-1.6h12.5Zm-1.6-33.3h-12.4l-4.2-1.6a3.3,3.3,0,0,1,2.6-2.6h15.6Zm1,12.5,2.1,2.1-2.1,2H3026l-2.1-2,2.1-2.1Zm0-1.6v-10.9l1.6-4.2a3.3,3.3,0,0,1,2.6,2.6v14.6l-1,1Zm3.2,4.2,1,1v14.6a3.2,3.2,0,0,1-2.6,2.6l-1.6-4.2v-10.9Z" style="fill:#353535"/><path d="M3067.1,1570.7h-15.6a3.3,3.3,0,0,1-2.6-2.6l4.2-1.6h12.5Zm-1.5-33.3h-12.5l-4.1-1.6a3.3,3.3,0,0,1,2.6-2.6h15.5Zm1,12.5,2.1,2.1-2.1,2h-13.5l-2.1-2,2.1-2.1Zm0-1.6v-10.9l1.6-4.2a3.5,3.5,0,0,1,2.6,2.6v14.6l-1.1,1Zm3.1,4.2,1.1,1v14.6a3.3,3.3,0,0,1-2.6,2.6l-1.6-4.2v-10.9Z" style="fill:#353535"/><rect x="1242.5" y="1602" width="10.1" height="261.17" style="fill:#c97942"/><rect x="1247.6" y="1602" width="5" height="261.17" style="opacity:0.05"/><rect x="1115.4" y="1487.8" width="264.3" height="198.36" style="fill:#fff"/><rect x="1109.9" y="1686.2" width="275.2" height="7.43" style="fill:#eba663"/><rect x="1109.9" y="1487.8" width="275.2" height="7.43" style="fill:#eba663"/><rect x="1109.9" y="1491.5" width="275.2" height="3.72" style="opacity:0.05"/><rect x="1109.9" y="1689.9" width="275.2" height="3.72" style="opacity:0.05"/><polygon points="1242.5 1846 1186.3 1875.7 1187.8 1879 1242.5 1858.2 1242.5 1846" style="fill:#db8f52"/><polygon points="1252.6 1846 1309.1 1875.6 1307.4 1879 1252.6 1858.2 1252.6 1846" style="fill:#db8f52"/><rect x="1229" y="1846" width="37.1" height="12.22" rx="3" style="fill:#eba663"/><rect x="1237.2" y="1862.1" width="20.7" height="6.84" rx="1.7" style="fill:#eba663"/><g style="opacity:0.5"><rect x="1147.2" y="1512" width="0.8" height="74.97" style="fill:#1d4463"/><rect x="1193.1" y="1540.3" width="0.8" height="92.6" transform="translate(2780.1 393.1) rotate(90)" style="fill:#1d4463"/><path d="M1137,1579.3h0l-.5.2v-.2l.6-.3h.3v2.5h-.3Z" style="fill:#1d4463"/><path d="M1139.9,1580.2c0,.9-.3,1.3-.9,1.3s-.8-.4-.8-1.3.4-1.3.9-1.3S1139.9,1579.4,1139.9,1580.2Zm-1.4,0c0,.7.2,1.1.5,1.1s.6-.4.6-1.1-.2-1-.6-1S1138.5,1579.6,1138.5,1580.2Z" style="fill:#1d4463"/><path d="M1141.9,1580.2c0,.9-.3,1.3-.9,1.3s-.8-.4-.8-1.3.4-1.3.9-1.3S1141.9,1579.4,1141.9,1580.2Zm-1.4,0c0,.7.2,1.1.5,1.1s.6-.4.6-1.1-.2-1-.6-1S1140.5,1579.6,1140.5,1580.2Z" style="fill:#1d4463"/><path d="M1143.9,1580.2c0,.9-.3,1.3-.9,1.3s-.8-.4-.8-1.3.4-1.3.9-1.3S1143.9,1579.4,1143.9,1580.2Zm-1.4,0c0,.7.2,1.1.5,1.1s.6-.4.6-1.1-.2-1-.6-1S1142.5,1579.6,1142.5,1580.2Z" style="fill:#1d4463"/><path d="M1136.2,1565.2v-.2l.3-.3c.6-.6.9-1,.9-1.3s-.1-.5-.5-.5l-.5.2v-.3l.7-.2a.8.8,0,0,1,.8.7c0,.5-.4.9-.9,1.4l-.2.2h1.1v.3Z" style="fill:#1d4463"/><path d="M1139.9,1563.9c0,.8-.3,1.3-.9,1.3s-.8-.5-.8-1.3.4-1.3.9-1.3S1139.9,1563.1,1139.9,1563.9Zm-1.4,0c0,.7.2,1,.5,1s.6-.4.6-1-.2-1-.6-1S1138.5,1563.2,1138.5,1563.9Z" style="fill:#1d4463"/><path d="M1141.9,1563.9c0,.8-.3,1.3-.9,1.3s-.8-.5-.8-1.3.4-1.3.9-1.3S1141.9,1563.1,1141.9,1563.9Zm-1.4,0c0,.7.2,1,.5,1s.6-.4.6-1-.2-1-.6-1S1140.5,1563.2,1140.5,1563.9Z" style="fill:#1d4463"/><path d="M1143.9,1563.9c0,.8-.3,1.3-.9,1.3s-.8-.5-.8-1.3.4-1.3.9-1.3S1143.9,1563.1,1143.9,1563.9Zm-1.4,0c0,.7.2,1,.5,1s.6-.4.6-1-.2-1-.6-1S1142.5,1563.2,1142.5,1563.9Z" style="fill:#1d4463"/><path d="M1136.3,1548.8h.6c.4,0,.5-.2.5-.5a.6.6,0,0,0-.6-.5h-.2v-.2h.2c.2,0,.5-.1.5-.4s-.1-.4-.4-.4h-.5v-.2l.7-.2c.5,0,.7.3.7.6a.6.6,0,0,1-.5.6h0a.7.7,0,0,1,.6.7c0,.4-.3.7-.9.7l-.7-.2Z" style="fill:#1d4463"/><path d="M1139.9,1547.9c0,.8-.3,1.3-.9,1.3s-.8-.4-.8-1.3.4-1.3.9-1.3S1139.9,1547.1,1139.9,1547.9Zm-1.4,0c0,.7.2,1,.5,1s.6-.4.6-1-.2-1-.6-1S1138.5,1547.2,1138.5,1547.9Z" style="fill:#1d4463"/><path d="M1141.9,1547.9c0,.8-.3,1.3-.9,1.3s-.8-.4-.8-1.3.4-1.3.9-1.3S1141.9,1547.1,1141.9,1547.9Zm-1.4,0c0,.7.2,1,.5,1s.6-.4.6-1-.2-1-.6-1S1140.5,1547.2,1140.5,1547.9Z" style="fill:#1d4463"/><path d="M1143.9,1547.9c0,.8-.3,1.3-.9,1.3s-.8-.4-.8-1.3.4-1.3.9-1.3S1143.9,1547.1,1143.9,1547.9Zm-1.4,0c0,.7.2,1,.5,1s.6-.4.6-1-.2-1-.6-1S1142.5,1547.2,1142.5,1547.9Z" style="fill:#1d4463"/><path d="M1137.3,1532.9v-.7h-1.2v-.2l1.1-1.6h.4v1.6h.4v.2h-.4v.7Zm0-.9v-1.3h0l-.2.4-.7.9h.9Z" style="fill:#1d4463"/><path d="M1139.9,1531.6c0,.9-.3,1.4-.9,1.4s-.8-.5-.8-1.3.4-1.3.9-1.3S1139.9,1530.8,1139.9,1531.6Zm-1.4.1c0,.6.2,1,.5,1s.6-.4.6-1-.2-1.1-.6-1.1S1138.5,1531,1138.5,1531.7Z" style="fill:#1d4463"/><path d="M1141.9,1531.6c0,.9-.3,1.4-.9,1.4s-.8-.5-.8-1.3.4-1.3.9-1.3S1141.9,1530.8,1141.9,1531.6Zm-1.4.1c0,.6.2,1,.5,1s.6-.4.6-1-.2-1.1-.6-1.1S1140.5,1531,1140.5,1531.7Z" style="fill:#1d4463"/><path d="M1143.9,1531.6c0,.9-.3,1.4-.9,1.4s-.8-.5-.8-1.3.4-1.3.9-1.3S1143.9,1530.8,1143.9,1531.6Zm-1.4.1c0,.6.2,1,.5,1s.6-.4.6-1-.2-1.1-.6-1.1S1142.5,1531,1142.5,1531.7Z" style="fill:#1d4463"/><path d="M1137.7,1514.1h-.9v.7h.7a.8.8,0,0,1,.4.7c0,.5-.4.8-1,.8h-.6v-.3l.5.2a.5.5,0,0,0,.6-.6c0-.3-.2-.5-.7-.5h-.3v-1.2h1.2Z" style="fill:#1d4463"/><path d="M1139.9,1515.1c0,.9-.3,1.3-.9,1.3s-.8-.4-.8-1.3.4-1.3.9-1.3S1139.9,1514.3,1139.9,1515.1Zm-1.4,0c0,.7.2,1.1.5,1.1s.6-.4.6-1.1-.2-1-.6-1S1138.5,1514.5,1138.5,1515.1Z" style="fill:#1d4463"/><path d="M1141.9,1515.1c0,.9-.3,1.3-.9,1.3s-.8-.4-.8-1.3.4-1.3.9-1.3S1141.9,1514.3,1141.9,1515.1Zm-1.4,0c0,.7.2,1.1.5,1.1s.6-.4.6-1.1-.2-1-.6-1S1140.5,1514.5,1140.5,1515.1Z" style="fill:#1d4463"/><path d="M1143.9,1515.1c0,.9-.3,1.3-.9,1.3s-.8-.4-.8-1.3.4-1.3.9-1.3S1143.9,1514.3,1143.9,1515.1Zm-1.4,0c0,.7.2,1.1.5,1.1s.6-.4.6-1.1-.2-1-.6-1S1142.5,1514.5,1142.5,1515.1Z" style="fill:#1d4463"/><path d="M1164,1590.9c0,.9-.3,1.3-.9,1.3s-.8-.4-.8-1.3.3-1.3.9-1.3S1164,1590.1,1164,1590.9Zm-1.4,0c0,.7.2,1.1.5,1.1s.6-.4.6-1.1-.2-1-.6-1S1162.6,1590.3,1162.6,1590.9Z" style="fill:#1d4463"/><path d="M1164.3,1592.2v-.2l.3-.3c.6-.6.9-.9.9-1.3s-.1-.5-.5-.5l-.5.2v-.2a.9.9,0,0,1,.7-.3.8.8,0,0,1,.8.8c0,.4-.4.8-.9,1.3l-.2.2h1.1v.3Z" style="fill:#1d4463"/><path d="M1155.1,1590.9c0,.9-.3,1.3-.9,1.3s-.8-.4-.8-1.3.3-1.3.9-1.3S1155.1,1590.1,1155.1,1590.9Zm-1.4,0c0,.7.2,1.1.5,1.1s.6-.4.6-1.1-.2-1-.6-1S1153.7,1590.3,1153.7,1590.9Z" style="fill:#1d4463"/><path d="M1156.2,1590h0l-.5.2v-.2l.6-.3h.3v2.5h-.3Z" style="fill:#1d4463"/><path d="M1172.8,1590.9c0,.9-.3,1.3-.9,1.3s-.8-.4-.8-1.3.3-1.3.9-1.3S1172.8,1590.1,1172.8,1590.9Zm-1.4,0c0,.7.2,1.1.5,1.1s.5-.4.5-1.1-.1-1-.5-1S1171.4,1590.3,1171.4,1590.9Z" style="fill:#1d4463"/><path d="M1173.2,1591.8l.6.2a.5.5,0,0,0,.5-.5c0-.4-.3-.5-.6-.5h-.2v-.3h.2c.2,0,.5-.1.5-.4a.4.4,0,0,0-.4-.4l-.5.2v-.3l.7-.2c.5,0,.7.3.7.6a.6.6,0,0,1-.5.6h0a.7.7,0,0,1,.6.7c0,.4-.3.7-.9.7h-.7Z" style="fill:#1d4463"/><path d="M1181.8,1590.9c0,.9-.3,1.3-.9,1.3s-.8-.4-.8-1.3.4-1.3.9-1.3S1181.8,1590.1,1181.8,1590.9Zm-1.4,0c0,.7.2,1.1.5,1.1s.6-.4.6-1.1-.2-1-.5-1S1180.4,1590.3,1180.4,1590.9Z" style="fill:#1d4463"/><path d="M1183.2,1592.2v-.7H1182v-.2l1.1-1.6h.4v1.5h.4v.3h-.4v.7Zm0-1V1590h0a.8.8,0,0,0-.2.4l-.6.8h.8Z" style="fill:#1d4463"/><path d="M1191,1590.9c0,.9-.3,1.3-.9,1.3s-.8-.4-.8-1.3.4-1.3.9-1.3S1191,1590.1,1191,1590.9Zm-1.4,0c0,.7.2,1.1.6,1.1s.5-.4.5-1.1-.2-1-.5-1S1189.6,1590.3,1189.6,1590.9Z" style="fill:#1d4463"/><path d="M1192.9,1590h-1v.6h.7a.8.8,0,0,1,.4.7.8.8,0,0,1-.9.8h-.7v-.3l.6.2a.6.6,0,0,0,.6-.6c0-.3-.3-.5-.8-.5h-.3v-1.2h1.3Z" style="fill:#1d4463"/><path d="M1200.1,1590.9c0,.9-.3,1.3-.9,1.3s-.8-.4-.8-1.3.3-1.3.9-1.3S1200.1,1590.1,1200.1,1590.9Zm-1.4,0c0,.7.2,1.1.5,1.1s.6-.4.6-1.1-.2-1-.6-1S1198.7,1590.3,1198.7,1590.9Z" style="fill:#1d4463"/><path d="M1201.9,1589.9h-.3a1.2,1.2,0,0,0-.9.9h0l.6-.3a.8.8,0,0,1,.8.9.8.8,0,0,1-.8.8c-.6,0-.9-.4-.9-1a1.6,1.6,0,0,1,.4-1.2l.8-.4h.3Zm-.1,1.5a.5.5,0,0,0-.6-.6.5.5,0,0,0-.5.3v.2c0,.4.2.7.6.7A.6.6,0,0,0,1201.8,1591.4Z" style="fill:#1d4463"/><path d="M1209.1,1590.9c0,.9-.3,1.3-.9,1.3s-.8-.4-.8-1.3.3-1.3.9-1.3S1209.1,1590.1,1209.1,1590.9Zm-1.4,0c0,.7.2,1.1.5,1.1s.6-.4.6-1.1-.2-1-.6-1S1207.7,1590.3,1207.7,1590.9Z" style="fill:#1d4463"/><path d="M1211.1,1589.7v.2l-1.1,2.3h-.4l1.1-2.2h-1.2v-.2Z" style="fill:#1d4463"/><path d="M1218.3,1590.9c0,.9-.4,1.3-.9,1.3s-.9-.4-.9-1.3.4-1.3.9-1.3S1218.3,1590.1,1218.3,1590.9Zm-1.4,0c0,.7.2,1.1.5,1.1s.5-.4.5-1.1-.2-1-.5-1S1216.9,1590.3,1216.9,1590.9Z" style="fill:#1d4463"/><path d="M1218.5,1591.6a.7.7,0,0,1,.5-.7h0c-.2-.2-.4-.4-.4-.6a.8.8,0,0,1,.8-.7c.5,0,.8.3.8.6a.6.6,0,0,1-.5.6h0c.4.1.5.3.5.6a.7.7,0,0,1-.8.7C1218.9,1592.2,1218.5,1591.9,1218.5,1591.6Zm1.4-.1c0-.3-.2-.4-.6-.5a.5.5,0,0,0-.4.5.5.5,0,0,0,1,0Zm-.9-1.2a.4.4,0,1,0,.4-.4A.4.4,0,0,0,1219,1590.3Z" style="fill:#1d4463"/><path d="M1227.3,1590.9c0,.9-.3,1.3-.9,1.3s-.8-.4-.8-1.3.3-1.3.9-1.3S1227.3,1590.1,1227.3,1590.9Zm-1.4,0c0,.7.2,1.1.5,1.1s.5-.4.5-1.1-.1-1-.5-1S1225.9,1590.3,1225.9,1590.9Z" style="fill:#1d4463"/><path d="M1227.8,1592h.3l.5-.2a.9.9,0,0,0,.3-.7h0a.6.6,0,0,1-.6.3.7.7,0,0,1-.7-.8.8.8,0,0,1,.9-.9c.5,0,.8.4.8,1.1a1.9,1.9,0,0,1-.4,1.2,1.1,1.1,0,0,1-.8.3h-.3Zm.1-1.5a.5.5,0,0,0,.5.5l.5-.2c0-.1.1-.1.1-.2s-.2-.7-.6-.7S1227.9,1590.1,1227.9,1590.5Z" style="fill:#1d4463"/><path d="M1235.2,1590h0l-.4.2v-.2l.6-.3h.3v2.5h-.4Z" style="fill:#1d4463"/><path d="M1238.2,1590.9c0,.9-.3,1.3-.9,1.3s-.8-.4-.8-1.3.3-1.3.8-1.3S1238.2,1590.1,1238.2,1590.9Zm-1.4,0c0,.7.2,1.1.5,1.1s.5-.4.5-1.1-.1-1-.5-1S1236.8,1590.3,1236.8,1590.9Z" style="fill:#1d4463"/><rect x="1146" y="1580" width="2" height="0.87" style="fill:#1d4463"/><rect x="1153.9" y="1586.7" width="2" height="0.87" transform="translate(-432.3 2742.1) rotate(-90)" style="fill:#1d4463"/><rect x="1163" y="1586.7" width="2" height="0.87" transform="translate(-423.2 2751.1) rotate(-90)" style="fill:#1d4463"/><rect x="1172" y="1586.7" width="2" height="0.87" transform="translate(-414.2 2760.2) rotate(-90)" style="fill:#1d4463"/><rect x="1181.1" y="1586.7" width="2" height="0.87" transform="translate(-405.1 2769.2) rotate(-90)" style="fill:#1d4463"/><rect x="1190.1" y="1586.7" width="2" height="0.87" transform="translate(-396 2778.3) rotate(-90)" style="fill:#1d4463"/><rect x="1199.2" y="1586.7" width="2" height="0.87" transform="translate(-387 2787.3) rotate(-90)" style="fill:#1d4463"/><rect x="1208.2" y="1586.7" width="2" height="0.87" transform="translate(-377.9 2796.4) rotate(-90)" style="fill:#1d4463"/><rect x="1217.3" y="1586.7" width="2" height="0.87" transform="translate(-368.9 2805.4) rotate(-90)" style="fill:#1d4463"/><rect x="1226.3" y="1586.7" width="2" height="0.87" transform="translate(-359.8 2814.5) rotate(-90)" style="fill:#1d4463"/><rect x="1235.4" y="1586.7" width="2" height="0.87" transform="translate(-350.8 2823.5) rotate(-90)" style="fill:#1d4463"/><rect x="1146" y="1563.8" width="2" height="0.87" style="fill:#1d4463"/><rect x="1146" y="1547.5" width="2" height="0.87" style="fill:#1d4463"/><rect x="1146" y="1531.3" width="2" height="0.87" style="fill:#1d4463"/><rect x="1146" y="1515" width="2" height="0.87" style="fill:#1d4463"/><rect x="1151.9" y="1553.1" width="6" height="33.11" style="fill:#235170"/><rect x="1160.9" y="1537.6" width="6" height="48.57" style="fill:#fcf2cb"/><rect x="1170" y="1527.4" width="6" height="58.76" style="fill:#fcaf17"/><rect x="1179" y="1557.1" width="6" height="29.1" style="fill:#f6892e"/><rect x="1188.1" y="1544.5" width="6" height="41.65" style="fill:#bb3026"/><rect x="1197.1" y="1540.1" width="6" height="46.11" style="fill:#235170"/><rect x="1206.2" y="1532.5" width="6" height="53.66" style="fill:#fcf2cb"/><rect x="1215.3" y="1541.6" width="6" height="44.53" style="fill:#fcaf17"/><rect x="1224.3" y="1525.2" width="6" height="60.97" style="fill:#f6892e"/><rect x="1233.4" y="1516.4" width="6" height="69.78" style="fill:#bb3026"/><g style="opacity:0.30000000000000004"><rect x="1149.4" y="1580" width="90" height="0.87" style="opacity:0.5"/><rect x="1149.4" y="1563.8" width="90" height="0.87" style="opacity:0.5"/><rect x="1149.4" y="1547.5" width="90" height="0.87" style="opacity:0.5"/><rect x="1149.4" y="1531.3" width="90" height="0.87" style="opacity:0.5"/><rect x="1149.4" y="1515" width="90" height="0.87" style="opacity:0.5"/></g></g><g style="opacity:0.5"><polygon points="1357.5 1586 1319.3 1586 1338.4 1520.7 1357.5 1586" style="fill:#bb3026"/><polygon points="1338.4 1586 1300.2 1586 1319.3 1534.5 1338.4 1586" style="fill:#fcaf17"/><polygon points="1319.3 1586 1281.1 1586 1300.2 1548.4 1319.3 1586" style="fill:#1d4463"/><circle cx="1270.9" cy="1548.4" r="7.5" style="fill:#1d4463"/><circle cx="1289.3" cy="1534.5" r="7.5" style="fill:#fcaf17"/><circle cx="1308.7" cy="1520.7" r="7.5" transform="translate(-472 2445) rotate(-76.7)" style="fill:#bb3026"/><rect x="1270.9" y="1547.9" width="25.8" height="1.14" style="fill:#1d4563"/><rect x="1289.3" y="1533.9" width="27" height="1.14" style="fill:#fbaf1a"/><rect x="1308.7" y="1520.1" width="27" height="1.14" style="fill:#bb3227"/><path d="M1268,1549.7v.6c0,.4.2.6.5.6a.5.5,0,0,0,.6-.6v-1.4c0-.5-.2-.7-.6-.7s-.5.2-.5.7v.2h-.9l.2-3.7h2.6v.9h-1.7v1.5a1.1,1.1,0,0,1,.9-.5c.7,0,1.1.6,1.1,1.5v1.4a1.4,1.4,0,0,1-1.5,1.6,1.4,1.4,0,0,1-1.5-1.6v-.5Z" style="fill:#fff"/><path d="M1270.7,1551.7v-.9h1v.8l-.5,1h-.4l.3-.9Z" style="fill:#fff"/><path d="M1275.3,1545.4v.9l-1.5,5.4h-1l1.5-5.4h-2v-.9Z" style="fill:#fff"/><path d="M1285.3,1532.8c0-1.1.5-1.7,1.5-1.7a1.4,1.4,0,0,1,1.5,1.6v.2h-1v-.3c0-.4-.1-.6-.5-.6s-.5.2-.5.8v1.2a1,1,0,0,1,.9-.6c.7,0,1.1.5,1.1,1.4v1.2a1.5,1.5,0,1,1-3,0Zm1,2.1v1.2c0,.4.2.6.5.6s.5-.2.5-.6v-1.2c0-.4-.2-.6-.5-.6S1286.3,1534.5,1286.3,1534.9Z" style="fill:#fff"/><path d="M1288.9,1537.5v-.9h1v.8l-.4,1h-.5l.3-.9Z" style="fill:#fff"/><path d="M1292.1,1532a.5.5,0,0,0-.6.6v.7h-.9v-.6a1.5,1.5,0,1,1,3,0c0,2-2,2.7-2,3.8h1.9v.9h-2.9v-.8c0-1.8,2-2.1,2-4S1292.4,1532,1292.1,1532Z" style="fill:#fff"/><path d="M1306.3,1524.1a1.5,1.5,0,0,1-1.6-1.6v-.5a1.5,1.5,0,0,1,.6-1.3c-.4-.2-.6-.6-.6-1.3v-.2a1.4,1.4,0,0,1,1.6-1.5,1.3,1.3,0,0,1,1.5,1.5v.2c0,.7-.2,1.1-.6,1.3a1.5,1.5,0,0,1,.6,1.3v.5A1.4,1.4,0,0,1,1306.3,1524.1Zm-.6-4.5c0,.5.2.7.6.7s.5-.2.5-.7v-.3c0-.6-.2-.7-.5-.7s-.6.1-.6.7Zm.6,3.6c.3,0,.5-.1.5-.7v-.6c0-.5-.2-.7-.5-.7s-.6.2-.6.7v.6C1305.7,1523.1,1305.9,1523.2,1306.3,1523.2Z" style="fill:#fff"/><path d="M1308.4,1524v-.9h1v.8l-.5,1h-.4l.3-.9Z" style="fill:#fff"/><path d="M1313,1522.5a1.5,1.5,0,1,1-3,0h.9v.2a.5.5,0,0,0,.6.6c.3,0,.5-.2.5-.8v-1.1a1.1,1.1,0,0,1-.9.5c-.7,0-1.1-.5-1.1-1.4v-1.2a1.5,1.5,0,1,1,3,0Zm-1-2.2v-1.1c0-.5-.2-.6-.5-.6s-.5.1-.5.6v1.1c0,.5.2.6.5.6S1312,1520.8,1312,1520.3Z" style="fill:#fff"/><rect x="1281.1" y="1589.7" width="76.4" height="1.78" style="fill:#1d4463"/></g><g style="opacity:0.5"><path d="M1215.4,1617.9l-11.7,11.7a14.6,14.6,0,0,0-9.8-4.6v-16.6A31.5,31.5,0,0,1,1215.4,1617.9Z" style="fill:#1d4463"/><path d="M1224.3,1639.8c0,.7-.1,1.4-.1,2.1h-16.6a16,16,0,0,0-2.6-10.7l11.8-11.8A31.2,31.2,0,0,1,1224.3,1639.8Z" style="fill:#f6892e"/><path d="M1224,1643.9a31.4,31.4,0,0,1-30.1,27.2h-2a30.6,30.6,0,0,1-19.3-7.5l-1.5-1.3a31.3,31.3,0,0,1-9.3-18.4l-.2-2c0-.7-.1-1.4-.1-2.1a31.5,31.5,0,0,1,30.4-31.4V1625a15.2,15.2,0,0,0-13.7,16.9,11.7,11.7,0,0,0,.5,2,14.5,14.5,0,0,0,4.1,6.7l1.6,1.3a14.7,14.7,0,0,0,7.5,2.6h2a14.7,14.7,0,0,0,13.2-10.6Z" style="fill:#bb3026"/><path d="M1161.8,1643.9c-.1-.6-.1-1.3-.2-2Z" style="fill:#2880ba"/><path d="M1161.8,1643.9c-.1-.6-.1-1.3-.2-2Z" style="fill:#2880ba"/><path d="M1174.6,1651.9v1l-1.7,6.4h-1.2l1.7-6.4h-2.3v-1Z" style="fill:#fff"/><path d="M1175.4,1659.3v-1.1h1.1v1l-.5,1.1h-.5l.3-1Z" style="fill:#fff"/><path d="M1178.4,1656.9v.7c0,.5.2.7.6.7s.6-.2.6-.7V1656c0-.6-.2-.8-.6-.8s-.6.2-.6.8v.2h-1.1l.2-4.3h3.1v1h-2.1v1.8a1.4,1.4,0,0,1,1.1-.5c.8,0,1.2.6,1.2,1.7v1.6c0,1.2-.5,1.9-1.7,1.9s-1.7-.7-1.7-1.9v-.6Z" style="fill:#fff"/><path d="M1198.3,1617c.6,0,.7-.3.9-.7h.5v5h-.8v-3.8h-.6Z" style="fill:#fff"/><path d="M1201.8,1617c-.3,0-.4.1-.4.5v.5h-.8v-.5a1.2,1.2,0,0,1,2.4,0c0,1.6-1.6,2.2-1.6,3h1.5v.7h-2.3v-.6c0-1.4,1.6-1.7,1.6-3.1S1202,1617,1201.8,1617Z" style="fill:#fff"/><path d="M1203.5,1621.3v-.7h.7v.7l-.3.8h-.3l.2-.8Z" style="fill:#fff"/><path d="M1205.5,1619.7v.5c0,.4.2.5.4.5s.4-.1.4-.5v-1.1c0-.4-.1-.5-.4-.5s-.4.1-.4.5h-.7v-2.9h2.1v.7h-1.4v1.2a.6.6,0,0,1,.6-.3c.6,0,.9.4.9,1.1v1.1c0,.8-.4,1.3-1.2,1.3s-1.1-.5-1.1-1.3v-.4Z" style="fill:#fff"/><path d="M1210.7,1631.9a.8.8,0,0,0,.9-.6h.5v5h-.8v-3.9h-.6Z" style="fill:#fff"/><path d="M1214.2,1631.9a.5.5,0,0,0-.4.5v.5h-.7v-.4c0-.8.4-1.3,1.2-1.3s1.1.5,1.1,1.3-1.5,2.1-1.5,3h1.5v.7h-2.3v-.6c0-1.5,1.5-1.8,1.5-3.2S1214.5,1631.9,1214.2,1631.9Z" style="fill:#fff"/><path d="M1215.9,1636.3v-.8h.8v.7l-.4.8h-.3l.2-.7Z" style="fill:#fff"/><path d="M1218,1634.7v.4c0,.4.1.5.4.5s.4-.1.4-.5V1634a.5.5,0,0,0-.4-.5c-.3,0-.4.2-.4.5v.2h-.8l.2-2.9h2v.7h-1.3v1.2a.7.7,0,0,1,.7-.4q.9,0,.9,1.2v1.1a1.2,1.2,0,1,1-2.4,0v-.4Z" style="fill:#fff"/></g><g style="opacity:0.5"><rect x="1287" y="1608.5" width="0.6" height="58.48" style="fill:#1d4463"/><rect x="1322.8" y="1630.5" width="0.6" height="72.23" transform="translate(2989.7 343.6) rotate(90)" style="fill:#1d4463"/><path d="M1303,1662.7h53s2.5-54.2-9.7-54.2C1330.1,1608.5,1340.6,1652.1,1303,1662.7Z" style="fill:#1d4463;opacity:0.8"/><path d="M1303,1662.7s8-44.9,17-44.9c11.2,0,10.1,37.5,36,44.9Z" style="fill:#fcaf17;opacity:0.8"/><path d="M1291.7,1662.7s-1.4-32.1,9.8-32.1,2.6,31.3,37.1,32.1Z" style="fill:#bb3026;opacity:0.8"/><path d="M1279,1661h-.4v-.2l.4-.2h.2v2h-.2Z" style="fill:#1d4463"/><path d="M1281.3,1661.7c0,.6-.3,1-.7,1s-.7-.3-.7-1,.3-1,.7-1S1281.3,1661,1281.3,1661.7Zm-1.1,0c0,.5.2.8.4.8s.4-.3.4-.8-.1-.8-.4-.8S1280.2,1661.2,1280.2,1661.7Z" style="fill:#1d4463"/><path d="M1282.8,1661.7c0,.6-.2,1-.6,1s-.7-.3-.7-1,.3-1,.7-1S1282.8,1661,1282.8,1661.7Zm-1,0c0,.5.1.8.4.8s.4-.3.4-.8-.1-.8-.4-.8S1281.8,1661.2,1281.8,1661.7Z" style="fill:#1d4463"/><path d="M1284.4,1661.7c0,.6-.2,1-.7,1s-.6-.3-.6-1,.3-1,.7-1S1284.4,1661,1284.4,1661.7Zm-1.1,0c0,.5.2.8.4.8s.4-.3.4-.8-.1-.8-.4-.8S1283.3,1661.2,1283.3,1661.7Z" style="fill:#1d4463"/><path d="M1278.4,1649.9h0l.2-.2c.5-.5.8-.8.8-1.1a.4.4,0,0,0-.4-.4l-.5.2v-.2l.5-.2a.6.6,0,0,1,.6.6c0,.4-.2.7-.7,1.1h.8v.2Z" style="fill:#1d4463"/><path d="M1281.3,1648.9c0,.7-.3,1.1-.7,1.1s-.7-.4-.7-1,.3-1.1.7-1.1S1281.3,1648.3,1281.3,1648.9Zm-1.1.1c0,.5.2.8.4.8s.4-.4.4-.9-.1-.8-.4-.8S1280.2,1648.4,1280.2,1649Z" style="fill:#1d4463"/><path d="M1282.8,1648.9c0,.7-.2,1.1-.6,1.1s-.7-.4-.7-1,.3-1.1.7-1.1S1282.8,1648.3,1282.8,1648.9Zm-1,.1c0,.5.1.8.4.8s.4-.4.4-.9-.1-.8-.4-.8S1281.8,1648.4,1281.8,1649Z" style="fill:#1d4463"/><path d="M1284.4,1648.9c0,.7-.2,1.1-.7,1.1s-.6-.4-.6-1,.3-1.1.7-1.1S1284.4,1648.3,1284.4,1648.9Zm-1.1.1c0,.5.2.8.4.8s.4-.4.4-.9-.1-.8-.4-.8S1283.3,1648.4,1283.3,1649Z" style="fill:#1d4463"/><path d="M1278.5,1637.2h.4c.4,0,.5-.2.5-.4s-.3-.4-.6-.4h-.1v-.2h.1c.2,0,.5-.1.5-.3s-.1-.3-.4-.3h-.4v-.2h.5c.4,0,.6.2.6.4a.7.7,0,0,1-.4.5h0a.5.5,0,0,1,.4.5c0,.3-.2.6-.7.6h-.5Z" style="fill:#1d4463"/><path d="M1281.3,1636.5c0,.6-.3,1-.7,1s-.7-.4-.7-1,.3-1,.7-1S1281.3,1635.8,1281.3,1636.5Zm-1.1,0c0,.5.2.8.4.8s.4-.3.4-.8-.1-.8-.4-.8S1280.2,1635.9,1280.2,1636.5Z" style="fill:#1d4463"/><path d="M1282.8,1636.5c0,.6-.2,1-.6,1s-.7-.4-.7-1,.3-1,.7-1S1282.8,1635.8,1282.8,1636.5Zm-1,0c0,.5.1.8.4.8s.4-.3.4-.8-.1-.8-.4-.8S1281.8,1635.9,1281.8,1636.5Z" style="fill:#1d4463"/><path d="M1284.4,1636.5c0,.6-.2,1-.7,1s-.6-.4-.6-1,.3-1,.7-1S1284.4,1635.8,1284.4,1636.5Zm-1.1,0c0,.5.2.8.4.8s.4-.3.4-.8-.1-.8-.4-.8S1283.3,1635.9,1283.3,1636.5Z" style="fill:#1d4463"/><path d="M1279.2,1624.8v-.5h-.9v-.2l.9-1.3h.3v1.2h.3v.3h-.3v.5Zm0-.8v-.9h0c0,.1-.1.2-.1.3l-.5.6h.6Z" style="fill:#1d4463"/><path d="M1281.3,1623.8c0,.7-.3,1-.7,1s-.7-.3-.7-1,.3-1,.7-1S1281.3,1623.2,1281.3,1623.8Zm-1.1,0c0,.5.2.8.4.8s.4-.3.4-.8-.1-.8-.4-.8S1280.2,1623.3,1280.2,1623.8Z" style="fill:#1d4463"/><path d="M1282.8,1623.8c0,.7-.2,1-.6,1s-.7-.3-.7-1,.3-1,.7-1S1282.8,1623.2,1282.8,1623.8Zm-1,0c0,.5.1.8.4.8s.4-.3.4-.8-.1-.8-.4-.8S1281.8,1623.3,1281.8,1623.8Z" style="fill:#1d4463"/><path d="M1284.4,1623.8c0,.7-.2,1-.7,1s-.6-.3-.6-1,.3-1,.7-1S1284.4,1623.2,1284.4,1623.8Zm-1.1,0c0,.5.2.8.4.8s.4-.3.4-.8-.1-.8-.4-.8S1283.3,1623.3,1283.3,1623.8Z" style="fill:#1d4463"/><path d="M1279.6,1610.1h-.8v.5h.5a.6.6,0,0,1,.3.6.7.7,0,0,1-.7.6h-.5v-.2h.4c.2,0,.5-.2.5-.4s-.2-.5-.6-.5h-.3v-1h1Z" style="fill:#1d4463"/><path d="M1281.3,1610.9c0,.7-.3,1-.7,1s-.7-.3-.7-1,.3-1,.7-1S1281.3,1610.3,1281.3,1610.9Zm-1.1,0c0,.5.2.8.4.8s.4-.3.4-.8-.1-.8-.4-.8S1280.2,1610.4,1280.2,1610.9Z" style="fill:#1d4463"/><path d="M1282.8,1610.9c0,.7-.2,1-.6,1s-.7-.3-.7-1,.3-1,.7-1S1282.8,1610.3,1282.8,1610.9Zm-1,0c0,.5.1.8.4.8s.4-.3.4-.8-.1-.8-.4-.8S1281.8,1610.4,1281.8,1610.9Z" style="fill:#1d4463"/><path d="M1284.4,1610.9c0,.7-.2,1-.7,1s-.6-.3-.6-1,.3-1,.7-1S1284.4,1610.3,1284.4,1610.9Zm-1.1,0c0,.5.2.8.4.8s.4-.3.4-.8-.1-.8-.4-.8S1283.3,1610.4,1283.3,1610.9Z" style="fill:#1d4463"/><path d="M1300.1,1670c0,.7-.3,1.1-.7,1.1s-.7-.4-.7-1.1.3-1,.7-1S1300.1,1669.4,1300.1,1670Zm-1.1,0c0,.6.2.9.4.9s.4-.4.4-.9-.1-.8-.4-.8S1299,1669.5,1299,1670Z" style="fill:#1d4463"/><path d="M1300.3,1671h0l.2-.2c.5-.5.8-.8.8-1.1a.4.4,0,0,0-.4-.4.5.5,0,0,0-.4.2v-.2l.5-.2a.5.5,0,0,1,.6.6,1.5,1.5,0,0,1-.6,1.1h.7v.2Z" style="fill:#1d4463"/><path d="M1293.1,1670c0,.7-.2,1.1-.6,1.1s-.7-.4-.7-1.1.3-1,.7-1S1293.1,1669.4,1293.1,1670Zm-1,0c0,.6.1.9.4.9s.4-.4.4-.9-.2-.8-.4-.8S1292.1,1669.5,1292.1,1670Z" style="fill:#1d4463"/><path d="M1294,1669.3h0l-.4.2v-.2l.4-.2h.2v1.9h-.2Z" style="fill:#1d4463"/><path d="M1306.9,1670c0,.7-.2,1.1-.6,1.1s-.7-.4-.7-1.1.3-1,.7-1S1306.9,1669.4,1306.9,1670Zm-1,0c0,.6.1.9.4.9s.4-.4.4-.9-.2-.8-.4-.8S1305.9,1669.5,1305.9,1670Z" style="fill:#1d4463"/><path d="M1307.2,1670.7h.5c.3,0,.4-.2.4-.3s-.2-.4-.5-.4h-.1v-.2h.1c.2,0,.5-.1.5-.4s-.1-.3-.4-.3l-.4.2v-.2l.5-.2c.4,0,.5.2.5.5a.5.5,0,0,1-.3.5h0a.5.5,0,0,1,.4.5c0,.3-.2.6-.7.6l-.5-.2Z" style="fill:#1d4463"/><path d="M1314,1670c0,.7-.3,1.1-.7,1.1s-.7-.4-.7-1.1.3-1,.7-1S1314,1669.4,1314,1670Zm-1.1,0c0,.6.2.9.4.9s.4-.4.4-.9-.1-.8-.4-.8S1312.9,1669.5,1312.9,1670Z" style="fill:#1d4463"/><path d="M1315,1671v-.5h-.9v-.2l.9-1.2h.3v1.2h.3v.2h-.3v.5Zm0-.7v-.7c0-.1.1-.2.1-.3h-.1c0,.1-.1.2-.1.3l-.5.7h.6Z" style="fill:#1d4463"/><path d="M1321.2,1670c0,.7-.3,1.1-.7,1.1s-.7-.4-.7-1.1.3-1,.7-1S1321.2,1669.4,1321.2,1670Zm-1.1,0c0,.6.1.9.4.9s.4-.4.4-.9-.1-.8-.4-.8S1320.1,1669.5,1320.1,1670Z" style="fill:#1d4463"/><path d="M1322.6,1669.3h-.8v.5h.5a.5.5,0,0,1,.3.5.7.7,0,0,1-.7.7l-.5-.2v-.2h.4c.2,0,.5-.1.5-.4s-.2-.4-.6-.4h-.3v-.9h1Z" style="fill:#1d4463"/><path d="M1328.2,1670c0,.7-.2,1.1-.6,1.1s-.7-.4-.7-1.1.3-1,.7-1S1328.2,1669.4,1328.2,1670Zm-1,0c0,.6.1.9.4.9s.4-.4.4-.9-.2-.8-.4-.8S1327.2,1669.5,1327.2,1670Z" style="fill:#1d4463"/><path d="M1329.6,1669.2h-.2c-.4,0-.6.3-.7.7h0a.5.5,0,0,1,.5-.3c.4,0,.6.3.6.7a.7.7,0,0,1-.6.7c-.5,0-.7-.4-.7-.9a1.2,1.2,0,0,1,.3-.9l.6-.3h.2Zm-.1,1.2c0-.3-.1-.5-.4-.5a.5.5,0,0,0-.4.3h0a.6.6,0,0,0,.5.6C1329.4,1670.9,1329.5,1670.7,1329.5,1670.4Z" style="fill:#1d4463"/><path d="M1335.3,1670c0,.7-.3,1.1-.7,1.1s-.7-.4-.7-1.1.3-1,.7-1S1335.3,1669.4,1335.3,1670Zm-1.1,0c0,.6.1.9.4.9s.4-.4.4-.9-.1-.8-.4-.8S1334.2,1669.5,1334.2,1670Z" style="fill:#1d4463"/><path d="M1336.8,1669.1h0l-.9,1.8h-.2l.8-1.7h-1v-.2Z" style="fill:#1d4463"/><path d="M1342.4,1670c0,.7-.2,1.1-.7,1.1s-.6-.4-.6-1.1.2-1,.6-1S1342.4,1669.4,1342.4,1670Zm-1.1,0c0,.6.2.9.4.9s.4-.4.4-.9-.1-.8-.4-.8S1341.3,1669.5,1341.3,1670Z" style="fill:#1d4463"/><path d="M1342.6,1670.5a.7.7,0,0,1,.4-.5h0a.5.5,0,0,1-.3-.5.6.6,0,0,1,1.2,0,.5.5,0,0,1-.3.5h0c.2.1.4.2.4.5a.7.7,0,0,1-1.4,0Zm1.1,0c0-.2-.2-.3-.4-.4a.4.4,0,1,0,0,.8A.4.4,0,0,0,1343.7,1670.5Zm-.7-1c0,.2.1.3.3.4s.3-.2.3-.4a.3.3,0,1,0-.6,0Z" style="fill:#1d4463"/><path d="M1349.5,1670c0,.7-.3,1.1-.7,1.1s-.7-.4-.7-1.1.3-1,.7-1S1349.5,1669.4,1349.5,1670Zm-1.1,0c0,.6.1.9.4.9s.4-.4.4-.9-.1-.8-.4-.8S1348.4,1669.5,1348.4,1670Z" style="fill:#1d4463"/><path d="M1349.9,1670.8h.2l.4-.2a.8.8,0,0,0,.2-.5h0a.5.5,0,0,1-.4.2.5.5,0,0,1-.6-.6.7.7,0,0,1,.7-.7q.6,0,.6.9a1.2,1.2,0,0,1-.3.9l-.6.2h-.2Zm.1-1.1c0,.2.1.4.3.4l.4-.2h0c0-.3-.1-.6-.4-.6S1350,1669.4,1350,1669.7Z" style="fill:#1d4463"/><path d="M1355.7,1669.3h-.1l-.3.2v-.2l.4-.2h.2v1.9h-.2Z" style="fill:#1d4463"/><path d="M1357.9,1670c0,.7-.2,1.1-.6,1.1s-.7-.4-.7-1.1.3-1,.7-1S1357.9,1669.4,1357.9,1670Zm-1,0c0,.6.1.9.4.9s.4-.4.4-.9-.1-.8-.4-.8S1356.9,1669.5,1356.9,1670Z" style="fill:#1d4463"/><rect x="1286.1" y="1661.5" width="1.5" height="0.68" style="fill:#1d4463"/><rect x="1292.2" y="1666.8" width="1.5" height="0.68" transform="translate(-374.1 2960.1) rotate(-90)" style="fill:#1d4463"/><rect x="1299.3" y="1666.8" width="1.5" height="0.68" transform="translate(-367 2967.1) rotate(-90)" style="fill:#1d4463"/><rect x="1306.3" y="1666.8" width="1.5" height="0.68" transform="translate(-360 2974.2) rotate(-90)" style="fill:#1d4463"/><rect x="1313.4" y="1666.8" width="1.5" height="0.68" transform="translate(-352.9 2981.3) rotate(-90)" style="fill:#1d4463"/><rect x="1320.5" y="1666.8" width="1.5" height="0.68" transform="translate(-345.9 2988.3) rotate(-90)" style="fill:#1d4463"/><rect x="1327.5" y="1666.8" width="1.5" height="0.68" transform="translate(-338.8 2995.4) rotate(-90)" style="fill:#1d4463"/><rect x="1334.6" y="1666.8" width="1.5" height="0.68" transform="translate(-331.7 3002.5) rotate(-90)" style="fill:#1d4463"/><rect x="1341.6" y="1666.8" width="1.5" height="0.68" transform="translate(-324.7 3009.5) rotate(-90)" style="fill:#1d4463"/><rect x="1348.7" y="1666.8" width="1.5" height="0.68" transform="translate(-317.6 3016.6) rotate(-90)" style="fill:#1d4463"/><rect x="1355.8" y="1666.8" width="1.5" height="0.68" transform="translate(-310.6 3023.6) rotate(-90)" style="fill:#1d4463"/><rect x="1286.1" y="1648.8" width="1.5" height="0.68" style="fill:#1d4463"/><rect x="1286.1" y="1636.2" width="1.5" height="0.68" style="fill:#1d4463"/><rect x="1286.1" y="1623.5" width="1.5" height="0.68" style="fill:#1d4463"/><rect x="1286.1" y="1610.8" width="1.5" height="0.68" style="fill:#1d4463"/></g><path d="M3100.6,1867.1s3.8,11.6,1.3,12.7-42.5,2.9-45.2.5,1.7-5,1.7-5l23.5-13.4Z" style="fill:#171717"/><path d="M3144.3,1864.5s3.3,10.2,1.2,11.1-37.7,3.3-40.1,1.2,1.5-4.4,1.5-4.4l21-12.5Z" style="fill:#171717"/><path d="M3078.5,1694.2s-5.8,77.6-4.8,96.2,4.8,72.1,4.8,72.1,12,9.7,24.2,6.8c0,0-9.4-68.9-7.1-82.7s16.3-55.1,16.3-55.1.1,53.8,2.4,64.7,8.7,66.3,8.7,66.3,10.3,11,22.5,1.3c0,0-10-68-10-81.8s8.4-65.8,2.3-93.2Z" style="fill:#6f0f10"/><path d="M3151.3,1654.9l12.2,33.1s11.4,10.7,2.8,19.6c0,0-13.6-1.8-8.7-16l-18.1-27.5Z" style="fill:#fff0d8"/><path d="M3120.4,1596.8l30.9,58.1s-1.3,6.8-11.8,9.2l-27.6-48Z" style="fill:#006b82"/><path d="M3071.9,1552.6s-5.5,16.3,3.5,29.2c0,0,2.9,1.4,7.1-.7l4.7,10.9s12.3.5,14.6-1.4l.9-21.9-17.8-16.1Z" style="fill:#fff0d8"/><path d="M3071.1,1546.3s-7.3,7.7,4.5,12.9c0,0,5.3,3.1,6,9.1s6.7,12.4,20.7,10.3c0,0,9.1-20.8,0-31.8,0,0,2.2-9-16.4-9S3071.1,1546.3,3071.1,1546.3Z" style="fill:#8a4d21"/><path d="M3137.8,1688.8s-28.8,19.6-60.5,9.9h0c7.9,2.4,8.4-1.2,9.2-5.9s-8.8-9.4-8.8-9.4l-1-1.5c-.8-19.8-2.2-50.5-4.2-54.4l-13.3,25.9,2.2,4.1s-3.9,10.9-14.7,6.5c0,0-8.7-5.8-4.8-19s17-40.6,20-43.1,19.3-9.7,19.3-9.7l1-4.1s12.6-6.8,23.6-2.3l1.4,4s11.3,2.1,14.5,9.1S3137.8,1688.8,3137.8,1688.8Z" style="fill:#037a9b"/><path d="M3086.5,1692.7c-.8,4.7-1.3,8.3-9.2,5.9,0-1-.2-7.8-.6-16.8l1,1.5S3087.3,1687.7,3086.5,1692.7Z" style="fill:#0492ab"/><path d="M3086.5,1692.7c-.8,4.7-1.3,8.3-9.2,5.9l-1.5-.5c-5.1-1.2-5.6-11.2-5.6-11.2l-23.5-23c10.8,4.4,14.7-6.5,14.7-6.5l15.3,24.4,1,1.5S3087.3,1687.7,3086.5,1692.7Z" style="fill:#fff0d8"/><ellipse cx="3102.7" cy="1878.6" rx="62.6" ry="4.9" style="opacity:0.1"/><path d="M3391.1,1650.3c-.1,6-12.2,67.3-117.2,107.3,0,0,13.8-23.7,52.1-50.7s62.1-48.7,64.7-56.1l.2-.5C3391,1649.7,3391.1,1649.7,3391.1,1650.3Z" style="fill:#80c351"/><path d="M3277.2,1765.4h0c-1-.5-66.4-31.8-79.2-45.5s-25.3-36.5-35.7-52.3c-5.3-8.1-10.1-14.6-14.5-17.3l-.8-.4C3149.6,1651.2,3231.9,1694.8,3277.2,1765.4Z" style="fill:#80c351"/><path d="M3407.8,1598.4s-19.1,14.7-22.9,21.8c-7.2,13.5-31.3,29.3-58.8,41.6-17,7.7-25.8,13.8-53.5,48.9h0c1.4-2.6,30.2-58,69.3-75.5s34.5-29.3,43.6-33.7S3407.8,1598.4,3407.8,1598.4Z" style="fill:#80c351"/><path d="M3275.6,1724.8c-16.3-23.4-51.1-41.3-60.8-47.4s-22-21-32.5-38.4-47.2-24.3-47.2-24.3c34.5-8.8,63.2,9.7,70.1,20.7s20.4,25.7,40,40.1S3275.6,1724.8,3275.6,1724.8Z" style="fill:#80c351"/><path d="M3404.5,1517.2c-.8,18.8-18.5,60.5-55.2,77.8s-72.3,52.5-73.4,53.6h.1l1.1-1.5c8-11.3,19.9-43.7,63.9-65.5C3387.4,1558.6,3404.5,1517.2,3404.5,1517.2Z" style="fill:#80c351"/><path d="M3134.9,1546h-1.5A4.3,4.3,0,0,1,3134.9,1546Z" style="fill:#80c351"/><path d="M3277.2,1661.2s-15.4,8.3-71.3-54.8c-37.5-42.3-57.5-55.1-66.4-58.9h-.1a22.8,22.8,0,0,0-4.5-1.5c9,1,58,8.3,82.7,49,27.3,44.9,49.4,60.1,59.6,66.2Z" style="fill:#80c351"/><path d="M3379.9,1495.8h-.1c-1.1,2.5-18.9,42.4-34.1,62s-65.2,49.2-66,49.6,19.3-34.6,46.1-52.7S3379.5,1496.4,3379.9,1495.8Z" style="fill:#80c351"/><path d="M3281.1,1613.3h0c-1.5-.3-49.7-8.7-84.7-56.5s-18.2-52.4-47.2-82.2h0c1.1.6,36.3,21,61.8,76.7C3211,1551.3,3229.2,1586.7,3281.1,1613.3Z" style="fill:#80c351"/><path d="M3331.9,1519.6c-11.8,11.9-43,42.9-48.2,48.1h-.1l-.7.7a2.8,2.8,0,0,1,.1-.6c.8-5.2,7.3-40.9,37.7-63.5,32.3-24.1,45.7-62.9,46.1-64.1h0C3367.6,1472.7,3344.7,1506.6,3331.9,1519.6Z" style="fill:#80c351"/><path d="M3283.6,1574.2h0c-2-.8-44-18.8-63.7-57.4s-27-58.2-38.6-67.5h0c1.2.6,38.1,22.5,58.2,71.7,0,0,8.5,18.2,44,53.1Z" style="fill:#80c351"/><path d="M3285.5,1529.1c-3.2-2.7-27.6-24.9-43.9-61-17.3-38.6-23.1-51.5-30-54.3a25.8,25.8,0,0,1,4.2,1.3h.3c9.6,3.8,32.4,16.7,44.6,56.2,11.1,36.2,19.1,50.2,22.8,55.3A16,16,0,0,0,3285.5,1529.1Z" style="fill:#80c351"/><path d="M3285.8,1529.4Z" style="fill:#80c351"/><path d="M3329.7,1406.2h0Z" style="fill:#80c351"/><path d="M3316.9,1473.5c-27.2,35.9-31.7,41.9-31.8,42.1h0a221.3,221.3,0,0,1,22.6-52c15.6-26.2,23.6-50.5,22.2-56.7v-.2c-.1-.1-.1-.3-.2-.4C3330.6,1408.2,3343.6,1438.3,3316.9,1473.5Z" style="fill:#80c351"/><path d="M3282.7,1814.5l-.9-1.6a8.4,8.4,0,0,1-.6-1.4l-.6-1.3-.5-1.4c-.3-.9-.7-1.8-.9-2.6l-.8-2.7-.4-1.3-.3-1.4-.7-2.7-.6-2.6-.5-2.7-.5-2.7c-.1-.9-.3-1.8-.4-2.7l-.8-5.3-.4-2.7-.2-2.7-.6-5.3-.3-2.7-.2-2.7-.3-5.4c-.1-1.8-.3-3.6-.4-5.4v-5.3l-.2-5.4c-.1-1.8-.2-3.6-.2-5.3v-10.8c0-28.6,1.9-57,4.4-85.4,1.2-14.2,2.7-28.4,4-42.6s2.6-28.3,3.6-42.5c.2-3.5.5-7.1.7-10.6l.6-10.7c.2-7.1.5-14.2.2-21.3,0-1.8-.2-3.5-.3-5.3s-.4-3.5-.6-5.3-.6-3.5-1-5.2l-.9-5.3a167.6,167.6,0,0,1-2.3-21.2,189,189,0,0,0,2.7,21.2c.3,1.7.7,3.4,1.1,5.2s.7,3.5,1,5.2a51.5,51.5,0,0,1,.7,5.3c.2,1.8.4,3.6.5,5.4.4,7.1.3,14.2.2,21.4l-.4,10.6c-.1,3.6-.3,7.2-.5,10.7-.7,14.2-1.7,28.5-2.7,42.7s-2.2,28.4-3.1,42.5c-2,28.4-3.2,56.8-2.6,85.2l.2,10.6c0,1.8.2,3.5.3,5.3l.3,5.3.2,5.3c.2,1.8.3,3.5.5,5.3l.4,5.3.3,2.6.3,2.6.7,5.3.3,2.6.4,2.6.8,5.2a22.1,22.1,0,0,1,.5,2.5l.6,2.6.5,2.6.6,2.5.7,2.5.3,1.2.4,1.3.8,2.4c.2.8.6,1.6.8,2.4a11.7,11.7,0,0,1,.5,1.1l.5,1.1a4.6,4.6,0,0,0,.5,1l.4.8a3.5,3.5,0,0,1-5.3,4.5l-.3-.3Z" style="fill:#945d25"/><path d="M3286,1446.8c-4.7,36.7-2.4,53.5-2.2,55.1h0s-13.5-19.6-12.4-65.1c1-39.1-5.2-53-7-56.1v-.3h-.1l-.2-.3h0C3264.9,1381,3290.9,1408.9,3286,1446.8Z" style="fill:#80c351"/><path d="M3391.1,1650.3c-.1,6-12.2,67.3-117.2,107.3,0,0,103.2-61.5,116.8-106.8l.2-.5Z" style="opacity:0.1"/><path d="M3277.2,1765.4c-1-.5-66.4-31.8-79.2-45.5s-25.3-36.5-35.7-52.3C3215.1,1727.1,3276.2,1764.8,3277.2,1765.4Z" style="opacity:0.1"/><path d="M3407.8,1598.3s-19.1,14.7-22.9,21.8c-7.2,13.5-31.3,29.3-58.8,41.6-17,7.7-25.8,13.8-53.5,48.9h0c1.5-2.3,31.2-49.9,59.9-60.6s47.2-33.9,48.5-35.2S3394.3,1601.1,3407.8,1598.3Z" style="opacity:0.1"/><path d="M3275.6,1724.8c-16.3-23.4-51.1-41.3-60.8-47.4s-22-21-32.5-38.4-47.2-24.3-47.2-24.3,37.4,1.1,45.1,14.3,31.4,37.6,49.8,46.1S3272.3,1718.7,3275.6,1724.8Z" style="opacity:0.1"/><path d="M3404.5,1517.2c-.8,18.8-18.5,60.5-55.2,77.8s-72.3,52.5-73.4,53.6h.1l1.1-1.5c6.4-8.2,36.3-45.1,64.8-56.6C3374,1577.5,3403.2,1534,3404.5,1517.2Z" style="opacity:0.1"/><path d="M3379.8,1495.9c-1.1,2.5-18.9,42.4-34.1,62s-65.2,49.2-66,49.6,25.5-26.4,41.3-39.1S3368.6,1519.7,3379.8,1495.9Z" style="opacity:0.1"/><path d="M3277.2,1661.2s-15.4,8.3-71.3-54.8c-37.5-42.3-57.5-55.1-66.4-58.9,36.2,13.9,49.7,26.5,60.5,41.4,45.2,62.3,76,71.8,77.2,72.3Z" style="opacity:0.1"/><path d="M3283,1567.8h.6l-.7.7A2.8,2.8,0,0,1,3283,1567.8Z" style="fill:#80c351"/><path d="M3331.9,1519.6c-11.8,11.9-43,42.9-48.2,48.1.6-1.2,20.3-38.4,41.2-52.1s36.9-47.3,41.9-75.4h0C3367.6,1472.7,3344.7,1506.6,3331.9,1519.6Z" style="opacity:0.1"/><path d="M3316.9,1473.5c-27.2,35.9-31.7,41.9-31.8,42.1h0c.5-1,17.8-35.5,32.3-54.7s15.8-44,12.5-54v-.2c-.1-.2-.2-.3-.2-.5h0C3330.6,1408.2,3343.6,1438.3,3316.9,1473.5Z" style="opacity:0.1"/><path d="M3286,1446.8c-4.7,36.7-2.4,53.5-2.2,55.1-7.3-40-3.2-54.1-.9-71.3s-15.3-44.8-18.5-49.8v-.3h-.1l-.2-.3h0C3264.9,1381,3290.9,1408.9,3286,1446.8Z" style="opacity:0.1"/><path d="M3281.1,1613.3c-1.5-.3-49.7-8.7-84.7-56.5s-18.2-52.4-47.2-82.2h0c1,.8,29.2,23.6,60.8,86.1C3210,1560.7,3236.5,1599.5,3281.1,1613.3Z" style="opacity:0.1"/><path d="M3283.6,1574.2c-2-.8-44-18.8-63.7-57.4s-27-58.2-38.6-67.5h0c1,.6,29.4,21,47.7,65.4s54.5,59.4,54.5,59.4Z" style="opacity:0.1"/><path d="M3285.8,1529.4h-.3c-3.2-2.7-27.6-24.9-43.9-61-17.3-38.6-23.1-51.5-30-54.3h0a17.7,17.7,0,0,1,4.2,1.3h.3c7,3.1,20.8,12.8,29.2,42.1,9.8,33.7,31.1,61,38.2,69.4Z" style="opacity:0.1"/><path d="M3320.3,1864.7H3235a10.5,10.5,0,0,1-10.4-9.3l-8.2-75.7a10.4,10.4,0,0,1,10.4-11.6h101.8a10.4,10.4,0,0,1,10.3,11.6l-8.2,75.7A10.5,10.5,0,0,1,3320.3,1864.7Z" style="fill:#d79128"/><rect x="3205.3" y="1768.1" width="145.9" height="25.94" rx="6.5" style="fill:#fcaf17"/><path d="M1058.6,1869.4s13.1,3.8,20.9-2.4c0,0,11.9,12.5,24.7,13.5,0,0,2.2,2.3,0,2.8s-27.3,1.4-32-2c0,0-7.6,3.1-13.6-.7C1055.3,1878.6,1058.6,1869.4,1058.6,1869.4Z" style="fill:#1e1e1e"/><path d="M1020.7,1868.7s-12.9,3.7-20.4-2.3c0,0-11.7,12.2-24.1,13.1,0,0-2.2,2.3,0,2.8s26.6,1.3,31.2-2c0,0,7.4,3,13.3-.7C1023.9,1877.6,1020.7,1868.7,1020.7,1868.7Z" style="fill:#1e1e1e"/><path d="M1006,1693.9l-7.1,173.4s14.3,6.7,21.8,1.5l4.7-72.7,14.9-66.2,25,65-7.1,74.7s17.7,3.7,23-2.6l8.4-77a20.2,20.2,0,0,0-.3-6l-19.9-83.9S1024,1707.8,1006,1693.9Z" style="fill:#1d4463"/><path d="M1043.4,1572a12.5,12.5,0,0,0,7.7-2.9l-.8,20.8h-19.8l-2.6-24.4A20.3,20.3,0,0,0,1043.4,1572Z" style="fill:#f2e0ce"/><path d="M1051.7,1552.7l-.5,14.4a10.6,10.6,0,0,1-8.3,3.8c-8.2,0-13-5.5-15.7-12l-.8-7.1Z" style="fill:#f4e6cf"/><path d="M1051.2,1567.1a10.6,10.6,0,0,1-8.3,3.8c-8.2,0-13-5.5-15.7-12-4-9.3-3.8-20.7-3.8-20.7l3.4-3.2,6.4-6,21.1-2.6a121.5,121.5,0,0,1,1.9,19.3C1056.3,1553.8,1055.2,1562.4,1051.2,1567.1Z" style="fill:#f2e0ce"/><path d="M1051.2,1567.1v2a12.5,12.5,0,0,1-7.7,2.9,20.3,20.3,0,0,1-15.5-6.5l-.7-6.6c2.7,6.5,7.5,12,15.7,12A10.6,10.6,0,0,0,1051.2,1567.1Z" style="fill:#e2cdbb"/><path d="M1051.2,1567.1a10.6,10.6,0,0,1-8.3,3.8c-8.2,0-13-5.5-15.7-12-4-9.3-3.8-20.7-3.8-20.7l3.4-3.2,29.4,10.7C1056.3,1553.8,1055.2,1562.4,1051.2,1567.1Z" style="fill:#f2e0ce"/><path d="M1027.3,1535.1s24.8,6.9,34.8-10.3c0,0-16.2-6.8-25.2-6.8s-14.2,9.7-14.2,9.7-12.3,7.5,4.7,33.4Z" style="fill:#3a3a3a"/><path d="M1028.2,1544c1.8,2.5,2,5.5.4,6.6s-4.2-.1-6-2.6-2-5.5-.4-6.6S1026.4,1541.5,1028.2,1544Z" style="fill:#f2e0ce"/><path d="M1028.9,1574.7l-4.8,5.5-18.1,5v114.9s34.8,10.9,63.4,0V1585.8l-15-4.5-3.3-5.2-11.3,10.8Z" style="fill:#f6892e"/><path d="M1110.5,1644.7l-12.3,9.7s-3.2,2.2-5.5,0-23.3-32.4-23.3-32.4v-36.2s3.2,2,11.9,16.2,17.7,28.6,17.7,28.6l4.4-2.6A40.3,40.3,0,0,0,1110.5,1644.7Z" style="fill:#f6892e"/><path d="M1006,1585.2v33.6s-24,18.1-24.4,31.1a15.2,15.2,0,0,0,1.8,7.1,46.2,46.2,0,0,0-13.3,9.2l-.2-.2c-11.5-15.1-6.1-27.8-6.1-27.8C974.5,1612.6,1006,1585.2,1006,1585.2Z" style="fill:#f6892e"/><path d="M1155,1600.8s1.8,10.9-3.9,16.6a26.5,26.5,0,0,1-8.6,2.2l-32,25.1a40.3,40.3,0,0,1-7.1-16.7l29.6-16.8s4.3-18.1,16.7-13.6c0,0,16.5-11.2,18.1-9.7S1155,1600.8,1155,1600.8Z" style="fill:#f2e0ce"/><path d="M1014.5,1705c-7.3,1.4-13.4-9.4-13.4-9.4s-19.4-14.4-31-29.4a46.2,46.2,0,0,1,13.3-9.2c6,12.3,24.3,26.6,24.3,26.6l9.2,4.4C1026.2,1692.5,1021.8,1703.5,1014.5,1705Z" style="fill:#f2e0ce"/><polygon points="1039 1585.9 1031.1 1593.5 1024.1 1580.2 1028.9 1574.7 1039 1585.9" style="fill:#e2e9f1"/><polygon points="1040.7 1586.1 1047.5 1594.3 1054.4 1581.3 1051.1 1576.1 1040.7 1586.1" style="fill:#e2e9f1"/><path d="M1120.6,1882.7c0,2.3-34.5,4.2-77.2,4.2s-77.3-1.9-77.3-4.2,34.6-4.2,77.3-4.2S1120.6,1880.3,1120.6,1882.7Z" style="opacity:0.1"/><path d="M1668.3,1851l.9,14.2s6.7,4,12,1l.8-14.1Z" style="fill:#fcf2cb;opacity:0.8"/><path d="M1717.9,1849.5l4.6,17.7s7.8,2.6,12.6-1.9l-2.7-19.7S1722.8,1849.9,1717.9,1849.5Z" style="fill:#fcf2cb;opacity:0.8"/><path d="M1666.1,1665.6s39.2,10.7,60.9,0c0,0,5.7,73.1-10,109.9,0,0,12.8,1.5,15.4,70.1,0,0-8.9,5.6-14.5,3.9l-21.1-81.4-4.6-62.9-13,77.3s8.4,9.5,3.4,38.7c0,0-1.9,27.2-.6,30.9,0,0-7.7,4.1-13.7-1.1l-7-69.8S1651.7,1718.9,1666.1,1665.6Z" style="fill:#092140"/><path d="M1720,1857.7s9.5,3.2,13.9-1.7c0,0,7.1,9.4,3.3,13.3s-15.6,12.3-41.5,10.9c0,0-2.5-1.4,0-3.2S1714.4,1866.7,1720,1857.7Z" style="fill:#092140"/><path d="M1668.9,1860.4s2.8,4.7,12.4,3.5c0,0,3,11.6-.8,14.6s-40.7,1.4-40.7,1.4-4.1-1.3-1.5-3S1668.9,1860.4,1668.9,1860.4Z" style="fill:#092140"/><path d="M1674.5,1544.3s4.5,3.2,5.1,11.1c0,0,0,5.9-.2,7.1s9.6,5.5,18.6,0c0,0-1.3-18.1-4.6-24.7Z" style="fill:#f2e0ce"/><path d="M1663.1,1514.3s-.6,33.3,13,33.9,20.1-15.5,20.1-15.5l-8.6-24.2Z" style="fill:#f2e0ce"/><path d="M1652.7,1509.1s3.4,11.4,16.6,6.9,17.5-2.3,19.8,7l4.3,14.8s13.8-18.6-4.2-35.2c0,0-6.1-5.1-18.8,1.5S1652.7,1509.1,1652.7,1509.1Z" style="fill:#010101"/><path d="M1687.3,1524.5s1.1-9.5,4.7-7.8,1.9,8.6-2.3,12.2Z" style="fill:#f2e0ce"/><path d="M1733,1596.4c-3.7,19.5-11.3,35.7-8.2,49.5l4,19.3s-44.9,11.8-64.2-1.7c0,0,5.7-27.4,3.5-36.9s-4.7-19.4-4.7-19.4,2.5,23.9-22,56.1l-.7,1c-23.9,30.8-34.1,11.7-34.1,11.7l10.2-7s-5.5-3.4-3.5-4.7,13.8-3.7,13.8-3.7,1.8-2.2,4.4-5.7c6.3-8.4,17.2-24.2,17.3-32.9,0-12.2-.6-50.1,10.4-58.4a62.7,62.7,0,0,0,19.9-11.3s3.1,18,17.7-.9l25.7,12.1C1726.8,1565.5,1736.8,1576.9,1733,1596.4Z" style="fill:#e9ecf1"/><path d="M1698.5,1552.2s-12.1,26.8-6.8,57.2,12.9,51.2,7.9,75.9c0,0,28,2.5,36.4-4.7,0,0-13-38.1-11.2-43.3,0,0,11-39.6,9.4-54.7S1727.3,1563.3,1698.5,1552.2Z" style="fill:#d3dbe9"/><path d="M1640.7,1664.3c-23.9,30.8-34.1,11.7-34.1,11.7l10.2-7s-5.5-3.4-3.5-4.7,13.8-3.7,13.8-3.7,1.8-2.2,4.4-5.7C1635.2,1657.1,1638.9,1660.2,1640.7,1664.3Z" style="fill:#f2e0ce"/><path d="M1675.3,1683.4l-16.3-2.9s14.7-35.2,5-70.9c0,0,.3,28.8-22.8,55.8,0,0-4.5-8.3-11-9.8,0,0,17.2-24.7,17.6-31.4s-1.7-48.6,11.3-61.3l4.2-1.8a116.3,116.3,0,0,0,15.8-8.8s-11.4,14.9-3.3,53S1675.3,1683.4,1675.3,1683.4Z" style="fill:#d3dbe9"/><path d="M1720.6,1630.1c-5.5,8.3-14.2,14.8-37.6,36l-2.4,2.3c-25.3,23-35.9,11.3-36.9,7.7s18.4-7.7,18.4-7.7-5-6.4-3.9-8.1,10.2,4,10.2,4l6-6.7,28.1-31.5s5.2-14.4,10.6-35.5,14.9-23.4,14.9-23.4C1744.9,1585.2,1726.3,1621.5,1720.6,1630.1Z" style="fill:#c5cedd"/><path d="M1683,1666.1l-2.4,2.3c-25.3,23-35.9,11.3-36.9,7.7s18.4-7.7,18.4-7.7-5-6.4-3.9-8.1,10.2,4,10.2,4l6-6.7A56.9,56.9,0,0,1,1683,1666.1Z" style="fill:#f2e0ce"/><path d="M1641.2,1665.4s-4.5-8.3-11-9.8c0,0,17.2-24.7,17.6-31.4s-1.7-48.6,11.3-61.3l4.2-1.8c-4.9,31.7.7,48.5.7,48.5S1664.3,1638.4,1641.2,1665.4Z" style="fill:#c5cedd"/><path d="M1763.5,1880.3c0,2.4-34.6,4.2-77.2,4.2s-77.3-1.8-77.3-4.2,34.6-4.2,77.3-4.2S1763.5,1878,1763.5,1880.3Z" style="opacity:0.1"/><path d="M2785.9,1827a17.7,17.7,0,0,1-13.8,6.5c-3.4-7.2-7.3-15.7-10.5-23.4-1.6-3.8-3-7.4-4.1-10.7a73.8,73.8,0,0,1-2.3-7.4c-4.1-16.6-5.3-76.2-5.3-76.2l-12.1,62.1.8,21.1.4,11.9.9,25.4a20.4,20.4,0,0,1-16.8.9c-.7-7.9-1.5-17.1-2.3-26.3-.2-3.1-.4-6.1-.7-9.1-.9-13.1-1.6-25-1.4-31.2.5-18.3,12-74,13.1-90.1.3-5-.7-13.4-2.3-22.7l41,2.1c1,11.3,1.5,19.4,1.5,19.4,15.9,32.9,1.3,85.3.3,100.9-.2,3,.6,7.7,2.1,13.3.8,3.2,1.9,6.6,3,10.2C2779.9,1811.2,2783,1819.4,2785.9,1827Z" style="fill:#1c3665"/><path d="M2704.7,1553s-3.6-24.6,28-24.6c0,0,20.2.7,20.2,21.9s3.7,32.5,13.6,39.3,13.5,27.2-14.5,23.8-26-1-31.4,2.3c-12.3,7.4-8.8-.6-11.4-10.8-.8-3.2-5.8-8.3-4.7-13.3s5.9-12.7,4.6-17.7S2704,1561.4,2704.7,1553Z" style="fill:#743216"/><path d="M2777.2,1700.8l36.9-16.4s6.8,6.3,5,18.4l-36.9,17.7Z" style="fill:#873d1d"/><path d="M2782,1710c1.4,5.5,1.5,10.1.2,10.5s-3.4-3.9-4.8-9.3-1.5-10.1-.2-10.4S2780.6,1704.6,2782,1710Z" style="fill:#6e3616"/><path d="M2741.1,1868s-2.6,7.3-19.4,15.4-26.7,1.2-26.7,1.2c16.6-7.8,30.2-25.6,30.2-25.6s-.9-9.2-2.1-21.8a20.4,20.4,0,0,0,16.8-.9Z" style="fill:#f2e0ce"/><path d="M2714.7,1539.5c12.2-9.4,22.8-1.4,27.6,1.3s3.9,39.3,6.1,44.1c3.1,6.9,13,8.9,13,8.9,4.1,14.1,7.3,45.5,9.1,66.1l-41-2.1c-3.6-20.5-9.8-45.6-9.8-49.3s10.7-15.8,10.7-15.8l.9-16.8c-3.5,2.4-9.5,1.2-9.5,1.2C2707.2,1564,2714.7,1539.5,2714.7,1539.5Z" style="fill:#f2e0ce"/><path d="M2797.2,1853.9c-6.8,32-28,31.8-28,31.8,9.6-10.1,11.9-33.8,11.9-33.8s-4.1-7.9-9-18.4a17.7,17.7,0,0,0,13.8-6.5C2791.7,1841.7,2797.2,1853.9,2797.2,1853.9Z" style="fill:#f2e0ce"/><path d="M2712.8,1537.4s6.5,17.9,22.1,12.8l13.3,19.6s4.9-10.5,2-20S2737.3,1522,2712.8,1537.4Z" style="fill:#743216"/><path d="M2741.2,1555c-1.6,2.8-4.5,4.3-6.3,3.2s-2-4.2-.4-7.1,4.5-4.3,6.4-3.2S2742.9,1552.1,2741.2,1555Z" style="fill:#f2e0ce"/><path d="M2754.5,1617s-8.2-19.2,12.2-20.3c0,0,27.3,43.2,28.4,46s7,26.2,7.2,47.1c0,0,4.1,9.4,3.3,13s-6.1,12.9-11.8,13.6c-3.3.4.8-14.1.8-14.1s-7.6,6.5-6.9,4.1,6.2-13.9,6.2-13.9-3.5-38.9-8.6-45.1S2754.5,1617,2754.5,1617Z" style="fill:#f2e0ce"/><path d="M2718,1608.1s-6,7.4-1.1,34.2,5.3,30.2,4.6,33.9-10,33-10,33-15.4,17.2-2.5,23.1,12.7-20.6,12.7-20.6,12.2-32.5,11.9-36.4-3.6-55-7.3-59S2718,1608.1,2718,1608.1Z" style="fill:#f2e0ce"/><path d="M2730.4,1592.7s-3,13.5,3.5,12.1,14.5-19.8,14.5-19.8,3.4,6.3,14.8,8.6a21.5,21.5,0,0,1,7.8,9.9,28.6,28.6,0,0,0-14.1,17.4l13.8,11.9s7.4,28.8,5.7,36.3-21.8,23.5-44.5,11.1c0,0-3.1-2.1-3.3-9.3s-11.3-32.8-12-48.4l-3.8-3.6s.7-11.9,7.1-17.4S2730.4,1592.7,2730.4,1592.7Z" style="fill:#882473"/><path d="M2776.8,1871.7s9.8,7.7,19.4-20.1l6,13.7-2.2,1.4-4.6-4.5s-9.7,28.5-24.9,24.6c0,0-3.7-1.3-1-4.7S2776.8,1871.7,2776.8,1871.7Z" style="fill:#1c3665"/><path d="M2707.7,1876.6s13.1,9.6,33.3-10.8c0,0,.3,12.7-1.2,20.4,0,0-2.5,1.2-3.5.5l-1.3-10s-23.3,17.3-37.5,12.3c0,0-8.7-2.9.7-7.4S2707.7,1876.6,2707.7,1876.6Z" style="fill:#1c3665"/><path d="M2830.7,1888.1c0,2.3-34.6,4.2-77.2,4.2s-77.3-1.9-77.3-4.2,34.6-4.2,77.3-4.2S2830.7,1885.8,2830.7,1888.1Z" style="opacity:0.1"/><path d="M2676.9,888.2s-49.6,36.6-44.3,53.7,32.4,68.8,32.4,68.8l14.1-3.6s-23.3-45.1-5.4-60.6a220.9,220.9,0,0,1,34.1-24.3s36,19.4,36.4,28.9-17.5,48.8-17.5,48.8l12.1,7.5s37.6-56.3,30.8-70.1-34.5-41.1-34.5-41.1S2700.6,901.8,2676.9,888.2Z" style="fill:#00293a"/><path d="M2712.6,790.1s-59.6,1.8-52.3,63.5l20.9,2.1-2.4,35.1s26.9,13.1,56.3,5.4l4.6-59.8,6.5,21.2,19.7-9.5s-11.9-38.3-19.1-44.4S2712.6,790.1,2712.6,790.1Z" style="fill:#f04d44"/><polygon points="2701.4 777.9 2698.8 804.6 2722 806.9 2724.5 781 2701.4 777.9" style="fill:#f2e3cd"/><path d="M2698.1,775.4s-5-6.1-2.2-19.1c0,0,4.1-24.4,28.2-10.9,0,0,5.4,4.4,12,4.5s.5,20.9-9.4,23.6Z" style="fill:#282724"/><path d="M2730.2,765c-2.2,22.1-10.1,30-19,29.1s-15.1-10-12.9-32.2c1.1-11.5,8.6-14.8,17.4-13.9S2731.3,753.5,2730.2,765Z" style="fill:#fff0d8"/><path d="M2698.2,754.1s3.5,8.3,34.6,7.6l1.1-6.8-10.2-7.2-12.4-2.6-9.1,3.2Z" style="fill:#282724"/><path d="M2700,792.2s3.5,11.1,10.3,13.6l-9.1,10.3a47.2,47.2,0,0,1-2.5-23.7Z" style="fill:#f29798"/><path d="M2723.3,793.4s-5.7,11.2-12.9,12.4l6.7,11.8s7.3-10.5,7.3-23.8Z" style="fill:#f29798"/><path d="M2660.3,853.6s3.2,49.7,24.6,67.9c0,0,14.4,4.9,10-10.8l-6.7-7.3s-12.6-14.5-7-47.7Z" style="fill:#fff0d8"/><path d="M2746.2,857.6s26.4,50.4,38,53.9,24.2,3,23.4-.5-21.7-9.9-21.7-9.9l-20-53Z" style="fill:#fff0d8"/><path d="M2679.1,1007.1s3.9,6.6,3.2,8.1-27.9,24.2-29,20.9,11.7-25.4,11.7-25.4Z" style="fill:#191919"/><path d="M2726.7,999.9s-8.7,7.1-4.6,12.5,23.3,21.9,26,21.5-9.3-26.5-9.3-26.5Z" style="fill:#191919"/><path d="M2267.4,376.4H2251a25,25,0,0,0-41.2,0h-16.4v8.3h-35.2V553.4h143.9V384.7h-34.7Zm-37-3.9a18.4,18.4,0,0,1,11,3.9h-22A18.4,18.4,0,0,1,2230.4,372.5Zm-30,10.9h60v17.1h-60Zm94.7,8.2V546.4H2165.2V391.6h28.2v15.8h74V391.6Z" style="fill:#fff"/><path d="M2173.3,451.3h26.1V425.2h-26.1Zm6.9-19.1h12.2v12.1h-12.2Z" style="fill:#fff"/><rect x="2211.8" y="434.8" width="72.2" height="6.95" style="fill:#fff"/><path d="M2173.3,485.5h26.1V459.4h-26.1Zm6.9-19.1h12.2v12.2h-12.2Z" style="fill:#fff"/><rect x="2211.8" y="469" width="72.2" height="6.95" style="fill:#fff"/><path d="M2173.3,520.2h26.1V494.1h-26.1Zm6.9-19.1h12.2v12.2h-12.2Z" style="fill:#fff"/><rect x="2211.8" y="503.7" width="72.2" height="6.95" style="fill:#fff"/><path d="M2066.4,1123.6a3.7,3.7,0,0,0,3-1.6,3.5,3.5,0,0,0,.5-3.3l-6.8-19.5a3.6,3.6,0,0,0-3.4-2.5h-12.4a3.5,3.5,0,0,0-3.5,2.6l-6.1,19.5a4.1,4.1,0,0,0,.5,3.3,3.8,3.8,0,0,0,3,1.5h1.3l-6.3,76.5a4,4,0,0,0,.7,2.5l14,18.6a3.7,3.7,0,0,0,2.9,1.4,3.6,3.6,0,0,0,2.9-1.4l14-18.6a3.6,3.6,0,0,0,.7-2.6l-7.2-76.4Zm-16.5-19.6h7.2l4.2,12.3h-15.2Zm14.1,95.3-10.2,13.6-10.2-13.6,6.2-75.7h7.1Z" style="fill:#fff"/><path d="M2038.5,1096.1a3.7,3.7,0,0,0-2.3-2.3c-12.8-4.6-17.5-27.5-17.5-27.8a3.8,3.8,0,0,0-2.7-2.8,3.7,3.7,0,0,0-3.7,1.2l-7.5,9.1a5,5,0,0,0-.8,2c-1.8,21.6,15,43,15.7,43.9a3.9,3.9,0,0,0,2.9,1.3h.2a3.6,3.6,0,0,0,2.9-1.7l12.4-19.8A3.8,3.8,0,0,0,2038.5,1096.1Zm-16.1,14.4c-4.4-6.7-11.8-20.2-11.2-33.2l2.2-2.8c2.5,7.5,7.4,18.8,16.4,24.3Z" style="fill:#fff"/><path d="M2102.1,1073.5l-7.4-9.1a3.5,3.5,0,0,0-3.7-1.2,3.7,3.7,0,0,0-2.7,2.8c-.1.3-4.7,23.2-17.6,27.8a3.9,3.9,0,0,0-2.2,2.3,3.7,3.7,0,0,0,.3,3.1l12.5,19.8a3.4,3.4,0,0,0,2.9,1.7h.2a3.7,3.7,0,0,0,2.8-1.3c.8-.9,17.5-22.3,15.7-43.9A3.2,3.2,0,0,0,2102.1,1073.5Zm-17.5,37-7.4-11.7c8.9-5.5,13.9-16.8,16.3-24.3l2.2,2.8C2096.4,1090.3,2088.9,1103.8,2084.6,1110.5Z" style="fill:#fff"/><path d="M1226.5,0h-5a40.7,40.7,0,0,1,.3,5,38.2,38.2,0,0,1-76.3,0,40.7,40.7,0,0,1,.3-5h-5a40.7,40.7,0,0,0-.3,5,43.2,43.2,0,0,0,86.3,0A40.7,40.7,0,0,0,1226.5,0Z" style="fill:#fff"/><path d="M1216.2,0h-5.1a27.3,27.3,0,0,1,.5,5,28,28,0,0,1-28,27.9A27.9,27.9,0,0,1,1155.7,5a27.4,27.4,0,0,1,.4-5h-5a27.4,27.4,0,0,0-.4,5,33,33,0,0,0,65.9,0A40.5,40.5,0,0,0,1216.2,0Z" style="fill:#fff"/><path d="M1150.5,44.8l-9.2-9.2a2.4,2.4,0,0,0-3.5,0l-43.6,43.6a2.4,2.4,0,0,0,0,3.5l9.2,9.2a2.5,2.5,0,0,0,1.8.8,2.3,2.3,0,0,0,1.7-.8l43.6-43.6A2.4,2.4,0,0,0,1150.5,44.8Zm-45.3,41.9-5.7-5.8,40-40.1,5.8,5.8Z" style="fill:#fff"/><path d="M1678.2,434.3h-36.1V562.8h-5.7v-158h-36v158h-5.1V465.6h-36.1v97.2h-22.9v5.9H1701v-5.9h-22.8Zm-30.2,5.9h24.3V562.8H1648Zm-41.8-29.5h24.4V562.8h-24.4Zm-41.1,60.8h24.3v91.3h-24.3Z" style="fill:#fff"/><path d="M2107,750.3a17.5,17.5,0,1,0-17.4-17.5A17.5,17.5,0,0,0,2107,750.3Zm0-29a11.6,11.6,0,1,1-11.6,11.5A11.5,11.5,0,0,1,2107,721.3Z" style="fill:#fff"/><path d="M2209.5,750.3a17.5,17.5,0,1,0-17.4-17.5A17.6,17.6,0,0,0,2209.5,750.3Zm0-29a11.6,11.6,0,1,1-11.5,11.5A11.5,11.5,0,0,1,2209.5,721.3Z" style="fill:#fff"/><path d="M2209.5,751.3a30.1,30.1,0,0,0-19.9,7.7,41.2,41.2,0,0,0-31.2-14.6,40.6,40.6,0,0,0-31.3,14.8,30.1,30.1,0,0,0-20.1-7.9c-16.9,0-30.6,14.3-30.6,31.9v22.6h40.2v12.9h83.7V805.8h39.8V783.2C2240.1,765.6,2226.4,751.3,2209.5,751.3Zm-127.3,48.6V783.2c0-14.4,11.1-26,24.8-26a23.7,23.7,0,0,1,16.5,6.9,44.4,44.4,0,0,0-6.9,24v11.8Zm112.2,12.9h-72V788.1c0-20.9,16.2-37.8,36-37.8s36,16.9,36,37.8Zm39.9-12.9h-34V788.1a44.7,44.7,0,0,0-7.1-24.3,24,24,0,0,1,16.3-6.6c13.7,0,24.8,11.6,24.8,26Z" style="fill:#fff"/><path d="M2158.4,741.7a23.4,23.4,0,1,0-23.3-23.4A23.4,23.4,0,0,0,2158.4,741.7Zm0-40.8a17.5,17.5,0,1,1-17.4,17.4A17.4,17.4,0,0,1,2158.4,700.9Z" style="fill:#fff"/><path d="M1957,278.1H1829.8a16.4,16.4,0,0,0-16.3,16.4v99.1a16.3,16.3,0,0,0,16.3,16.3H1957a16.3,16.3,0,0,0,16.3-16.3V294.5A16.4,16.4,0,0,0,1957,278.1Zm0,126H1829.8a10.5,10.5,0,0,1-10.4-10.5V294.5a10.5,10.5,0,0,1,10.4-10.5H1957a10.5,10.5,0,0,1,10.4,10.5v28.4h-20.6a21.2,21.2,0,0,0-21.1,21.1,21.2,21.2,0,0,0,21.1,21.2h20.6v28.4A10.5,10.5,0,0,1,1957,404.1Zm10.4-75.3v30.5h-20.6a15.3,15.3,0,0,1-15.2-15.3,15.4,15.4,0,0,1,15.2-15.2Z" style="fill:#fff"/><path d="M1934.8,344a11.1,11.1,0,1,0,11.1-11.1A11.2,11.2,0,0,0,1934.8,344Zm16.4,0a5.3,5.3,0,0,1-5.3,5.3,5.2,5.2,0,0,1-5.2-5.3,5.2,5.2,0,0,1,5.2-5.2A5.2,5.2,0,0,1,1951.2,344Z" style="fill:#fff"/><path d="M966.7,101.2H821.2v92h15.2V205H981.9V113H966.7ZM827,187.4V107.1H960.8V113H836.4v74.4Zm149.1,11.7H842.3V118.9H976.1Z" style="fill:#fff"/><path d="M904.9,175.1a21.6,21.6,0,0,1-11-3.2l-1.9,6.7c2.5,1.7,7,2.9,11.4,3.1v6.8h5.8v-7.2c7.8-1.3,11.9-6.6,11.9-12.6s-3.5-10.1-11.4-13.1c-6-2.4-8.5-4-8.5-6.9s1.7-4.9,6.7-4.9a20.7,20.7,0,0,1,9.6,2.4l1.9-6.5a22.7,22.7,0,0,0-9.8-2.3v-6.6h-5.7v6.9c-7.2,1.3-11.4,6-11.4,12s4.8,10,12.2,12.6c5.2,2,7.7,4,7.7,7.2S909.4,175.1,904.9,175.1Z" style="fill:#fff"/><path d="M1926.1,660.3c-6.5-2.6-9.2-4.3-9.2-7.5s1.9-5.4,7.2-5.4a24.1,24.1,0,0,1,10.5,2.6l2-7a23.7,23.7,0,0,0-10.5-2.5v-7.2h-6.3v7.5c-7.8,1.4-12.4,6.5-12.4,13.1s5.2,10.8,13.3,13.7c5.7,2.1,8.3,4.3,8.3,7.7s-3.3,6.1-8.1,6.1A23.2,23.2,0,0,1,1909,678l-2.1,7.2c2.7,1.9,7.6,3.3,12.4,3.4v7.5h6.3v-7.9c8.4-1.4,12.9-7.2,12.9-13.7S1934.7,663.5,1926.1,660.3Z" style="fill:#fff"/><path d="M1922.8,594.6a72.4,72.4,0,1,0,72.4,72.4A72.5,72.5,0,0,0,1922.8,594.6Zm0,138.9a66.5,66.5,0,1,1,66.5-66.5A66.7,66.7,0,0,1,1922.8,733.5Z" style="fill:#fff"/><path d="M1922.8,614.9a52.1,52.1,0,1,0,52.1,52.1A52.1,52.1,0,0,0,1922.8,614.9Zm0,98.2A46.2,46.2,0,1,1,1969,667,46.2,46.2,0,0,1,1922.8,713.1Z" style="fill:#fff"/><path d="M1633.5,840.7h135.1V815.3H1633.5Zm5.8-19.5h123.4v13.6H1639.3Z" style="fill:#fff"/><path d="M1768.5,726.2a3.1,3.1,0,0,0-1.2-3.3l-64.7-42.8a2.7,2.7,0,0,0-3.2,0l-64.6,42.8a2.8,2.8,0,0,0-1.2,3.3,3,3,0,0,0,2.8,2.1h129.2A3.1,3.1,0,0,0,1768.5,726.2Zm-122.3-3.8,54.8-36.3,54.9,36.3Z" style="fill:#fff"/><path d="M1666.8,807.8V735.3H1644v72.5Zm-16.9-66.6h11v60.7h-11Z" style="fill:#fff"/><path d="M1757.7,807.8V735.3h-22.9v72.5Zm-17-66.6h11.1v60.7h-11.1Z" style="fill:#fff"/><path d="M1712.2,807.8V735.3h-22.8v72.5Zm-16.9-66.6h11.1v60.7h-11.1Z" style="fill:#fff"/><path d="M2502.5,163.3c0-4.8-5.2-8.7-15.7-11.8a6,6,0,0,0,.8-2.9h0V123.3c0-14.3-47.6-18.1-72.7-18.1s-72.8,3.8-72.8,18.1v25.3c0,2.6,1.6,4.9,4.3,6.8a39.8,39.8,0,0,0,11.3,5,7.4,7.4,0,0,0-.8,2.9h0v25.3a5.4,5.4,0,0,0,.5,2.2c-8.5,2.9-12.7,6.5-12.7,10.8h-.1v25.3h0c0,14.3,47.6,18.1,72.8,18.1s72.7-3.8,72.8-18.1h0V201.6h0a5.9,5.9,0,0,0-.5-2.2c7.7-2.6,12.7-6.1,12.7-10.8h.1V163.3Zm-87.6-52.2c43.2,0,66.8,8,66.8,12.2s-23.6,12.2-66.8,12.2-66.9-8.1-66.9-12.2S2371.6,111.1,2414.9,111.1ZM2348,148.6V131c6.2,3.7,16.9,6.2,28.5,7.8h.2a298.4,298.4,0,0,0,38.2,2.4,298,298,0,0,0,38.1-2.4h.1c11.7-1.6,22.4-4.1,28.6-7.8v17.6h0c0,4.1-23.6,12.2-66.9,12.2S2348,152.7,2348,148.6Zm13.5,47c12.6,8.6,47.8,11.1,68.2,11.1,15.1,0,38.3-1.4,54.4-5.6l.2.5c0,1.2-4.9,6.3-29.1,9.8a268.1,268.1,0,0,1-37.8,2.4,271.6,271.6,0,0,1-37.9-2.4c-24-3.5-29-8.6-29-9.8S2352.7,198.3,2361.5,195.6Zm122.8,31.3h0c0,4.2-23.6,12.2-66.9,12.2s-66.8-8-66.9-12.2V209.4c5.5,3.3,14.9,5.9,28.3,7.8h.4a274.1,274.1,0,0,0,38.2,2.5,281.7,281.7,0,0,0,38.7-2.5c13.4-1.9,22.7-4.5,28.2-7.8Zm12.3-38.3h0c0,4.2-23.7,12.2-66.9,12.2s-66.9-8-66.9-12.2V171.1c5.5,3.3,14.9,5.9,28.3,7.8h.3c5.8.9,12,1.5,18.4,1.9s13.2.6,19.9.6a290,290,0,0,0,38.6-2.5c13.4-1.9,22.8-4.5,28.3-7.8Zm-29.1-15.5c-22.9,3.2-52.7,3.2-75.5,0s-29.2-8.6-29.2-9.8.3-.7,1-1.4c15.9,3.6,37,4.8,51,4.8,19.9,0,53.5-2.4,67-10.4,12,3,14.8,6.1,14.8,7S2491.6,169.6,2467.5,173.1Z" style="fill:#fff"/><path d="M2566.6,409.4l-17.8,17.9a71.3,71.3,0,0,0-37.5-10.6,72.5,72.5,0,1,0,61.9,34.9l18-18.1-20.8-2.9Zm-55.3,146.2a66.5,66.5,0,0,1,0-133,65.8,65.8,0,0,1,33.5,9.1l3.8,16-5.1,5a48.9,48.9,0,1,0,4.2,4.2l4.9-4.9,16.3,3.8a66.6,66.6,0,0,1-57.6,99.8Zm15.7-66.5a15.7,15.7,0,1,1-15.7-15.6,15.5,15.5,0,0,1,8.8,2.7L2509.3,487l4.1,4.2,10.9-10.9A15.5,15.5,0,0,1,2527,489.1Zm-2.7-17.1a21.9,21.9,0,0,0-13-4.4,21.7,21.7,0,1,0,17.1,8.6l15.1-15.2a43,43,0,1,1-4.1-4.1Zm42.9-22.7-12.9-3-3.1-13.1,11.6-11.6,2.6,14.3,13.3,1.8Z" style="fill:#fff"/><path d="M3000.3,43.1,2982.6,61a71.3,71.3,0,0,0-37.5-10.6A72.5,72.5,0,1,0,3007,85.3l18-18.2-20.8-2.8Zm-55.2,146.1a66.5,66.5,0,1,1,0-132.9,65.3,65.3,0,0,1,33.5,9.1l3.7,16-5,5a47.2,47.2,0,1,0,4.2,4.1l4.9-4.9,16.2,3.8a65.8,65.8,0,0,1,9,33.3A66.5,66.5,0,0,1,2945.1,189.2Zm15.6-66.5a15.6,15.6,0,1,1-6.8-12.9L2943,120.7l4.2,4.1L2958,114A15.4,15.4,0,0,1,2960.7,122.7Zm-2.7-17a20.8,20.8,0,0,0-12.9-4.5,21.7,21.7,0,1,0,17.1,8.6l15.1-15.1a42.3,42.3,0,0,1,10.6,28,42.9,42.9,0,1,1-14.8-32.2ZM3000.9,83,2988,80l-3-13.1,11.6-11.7,2.6,14.3,13.3,1.9Z" style="fill:#fff"/><path d="M1239,176.3h32.9V143.4H1239Zm8.8-24.1h15.3v15.3h-15.3Z" style="fill:#fff"/><path d="M1284.6,176.3h32.8V143.4h-32.8Zm8.7-24.1h15.3v15.3h-15.3Z" style="fill:#fff"/><path d="M1330.9,143.4v32.9h32.8V143.4Zm24.1,24.1h-15.4V152.2H1355Z" style="fill:#fff"/><path d="M1239,218.3h32.9V185.4H1239Zm8.8-24.1h15.3v15.3h-15.3Z" style="fill:#fff"/><path d="M1284.6,218.3h32.8V185.4h-32.8Zm8.7-24.1h15.3v15.3h-15.3Z" style="fill:#fff"/><path d="M1330.9,218.3h32.8V185.4h-32.8Zm8.7-24.1H1355v15.3h-15.4Z" style="fill:#fff"/><path d="M1239,259.8h32.9V227H1239Zm8.8-24h15.3v15.3h-15.3Z" style="fill:#fff"/><path d="M1284.6,259.8h32.8V227h-32.8Zm8.7-24h15.3v15.3h-15.3Z" style="fill:#fff"/><path d="M1330.9,259.8h32.8V227h-32.8Zm8.7-24H1355v15.3h-15.4Z" style="fill:#fff"/><path d="M1386.3,120.9H1215.6V282.7h-22.3v74.6h215.3V282.7h-22.3Zm-161.9,8.7h153.2V282.7H1224.4Zm61.3,219V307.3h30.5v41.3Zm114.2-57.1v57.1H1325V298.5h-48v50.1h-74.9V291.5h197.8Z" style="fill:#fff"/><path d="M1747.6,147.5a71.1,71.1,0,1,0-71,71A71.1,71.1,0,0,0,1747.6,147.5Zm-11.7,26.9-54-24.6,53.3-30.7a64.5,64.5,0,0,1,6.6,28.4A63.8,63.8,0,0,1,1735.9,174.4Zm-3.4-60.4L1677,145.9l-39.3-50.6a64.1,64.1,0,0,1,38.9-13A65.3,65.3,0,0,1,1732.5,114Zm-121.2,33.5a65.1,65.1,0,0,1,21.9-48.6l42.3,54.5h.2l57.6,26.2a65.2,65.2,0,0,1-122-32Z" style="fill:#fff"/><path d="M2195.3,0h-10.6a109.7,109.7,0,0,1,5.4,29.8h-19.5v10h19.5a112.9,112.9,0,0,1-107.7,107.7V128h-10v19.5A112.8,112.8,0,0,1,1964.8,39.8h19.5v-10h-19.5A113.6,113.6,0,0,1,1970.1,0h-10.6a124.6,124.6,0,0,0-5,34.8c0,67.8,55.2,123,122.9,123a123.2,123.2,0,0,0,123-123A121,121,0,0,0,2195.3,0Z" style="fill:#fff"/><path d="M2093.2,29.8a14.9,14.9,0,0,0-3.7-6.3L2107.8,0h-12.7l-14.4,18.5a17.6,17.6,0,0,0-3.3-.3,16.7,16.7,0,1,0,15.8,21.6h53.4v-10Zm-15.8,11.7a6.7,6.7,0,1,1,6.7-6.7A6.7,6.7,0,0,1,2077.4,41.5Z" style="fill:#fff"/><polygon points="1325 485.8 1320.2 485.8 1320.2 618.3 1452.8 618.3 1452.8 613.6 1325 613.6 1325 485.8" style="fill:#fff"/><path d="M1352.7,593.6a9.4,9.4,0,0,0,7.8-14.7l25.9-29.1a10.1,10.1,0,0,0,4.3,1,9.4,9.4,0,0,0,9.4-9.4,11.1,11.1,0,0,0-.2-1.9l31.2-15.7a9.6,9.6,0,0,0,7.1,3.3,9.5,9.5,0,1,0-9.4-9.4,12.3,12.3,0,0,0,.2,1.9l-31.3,15.6a9.4,9.4,0,0,0-16.4,6.2,9.3,9.3,0,0,0,1.5,5.2l-25.9,29.2a10,10,0,0,0-4.2-1,9.4,9.4,0,0,0,0,18.8Zm85.5-80.6a4.7,4.7,0,1,1-4.7,4.7A4.7,4.7,0,0,1,1438.2,513Zm-47.5,23.7a4.7,4.7,0,1,1-4.7,4.7A4.7,4.7,0,0,1,1390.7,536.7Zm-38,42.8a4.7,4.7,0,0,1,0,9.4,4.7,4.7,0,0,1,0-9.4Z" style="fill:#fff"/><rect x="2639.9" y="238.7" width="72.7" height="10.02" style="fill:#fff"/><rect x="2639.9" y="254.3" width="72.7" height="10.02" style="fill:#fff"/><path d="M2639.9,270.2v19.4c0,21,16.3,38.2,36.3,38.2s36.4-17.2,36.4-38.2V270.2Zm62.7,19.4c0,15.5-11.8,28.1-26.4,28.1s-26.3-12.6-26.3-28.1v-9.4h52.7Z" style="fill:#fff"/><path d="M2676.2,73.9a67.9,67.9,0,0,0-67.8,67.9,66.3,66.3,0,0,0,6.2,28.2h0l25.9,62.4h70.8l26.2-61.5.7-.7v-1.1a65,65,0,0,0,5.8-27.3A67.9,67.9,0,0,0,2676.2,73.9Zm52.5,92v.3l-23.9,56.2h-57.5l-23.4-56.3h0v-.2a56.5,56.5,0,0,1-5.3-24.1,57.8,57.8,0,1,1,115.6,0A56.5,56.5,0,0,1,2728.7,165.9Z" style="fill:#fff"/><path d="M2399.3,1712.2h-45a1.5,1.5,0,0,1-1.5-1.5h0a1.6,1.6,0,0,1,1.5-1.6h45a1.6,1.6,0,0,1,1.6,1.6h0A1.6,1.6,0,0,1,2399.3,1712.2Z" style="fill:#d7d6d6"/><path d="M2353.2,1706.6l-9.9-52.4a2,2,0,0,0-2-1.7h-34a2.1,2.1,0,0,0-2.1,2.4l9.8,52.5a2,2,0,0,0,2,1.7h34.2A2.1,2.1,0,0,0,2353.2,1706.6Z" style="fill:#d7d6d6"/><path d="M2352.3,1706.6l-9.9-52.4a2,2,0,0,0-2-1.7h-34a2.1,2.1,0,0,0-2.1,2.4l9.8,52.5a2,2,0,0,0,2,1.7h34.2A2.1,2.1,0,0,0,2352.3,1706.6Z" style="fill:#e9e8e8"/><rect x="2314.4" y="1709.1" width="40.1" height="3.18" rx="1.4" style="fill:#e9e8e8"/><path d="M2360.9,1711.4h-4a.8.8,0,0,1-.7-.8h0a.7.7,0,0,1,.7-.7h4a.8.8,0,0,1,.8.7h0A.9.9,0,0,1,2360.9,1711.4Z" style="fill:#b7b7b8"/><path d="M2367.7,1711.4h-4a.8.8,0,0,1-.7-.8h0a.7.7,0,0,1,.7-.7h4a.7.7,0,0,1,.7.7h0A.8.8,0,0,1,2367.7,1711.4Z" style="fill:#b7b7b8"/><ellipse cx="2441.4" cy="1879" rx="88.8" ry="4.3" style="opacity:0.1"/><path d="M2352.4,1811.2s-9.2,11.5-20.1,10.2c0,0-1.1,6.5,6.2,7.8s17.6,0,17.6,0l9.7-13.8Z" style="fill:#e8d6c1"/><path d="M2332.3,1821.4s-18.3-.7-22-2.7c0,0-3.6-.4,1.1,5s20.9,14.7,36.5,12.3l-1.4,7.3,2.5,1.2,7.4-15.7S2343.5,1832.5,2332.3,1821.4Z" style="fill:#911a1d"/><path d="M2431.6,1602.8s-6.2-13.1,9.6-16.2,23.3,8.3,25.7,17.1c0,0,18.9-5,20.8,18.3,0,0,37.2,14,3.4,46.6l-26.1-7.8-14.6-45.7-14.1-9.8Z" style="fill:#a86730"/><path d="M2432,1594.6s-3.3,20.4,8,35.3c0,0,8.2-2.7,10.4,0s3,5.1,4.4,8.5c0,0-2.6,1-2.5,1.4.2,2.3.2,2.1.2,2.1l19.2-3.9s-9.1-16.8-10.2-27.9-4.4-20.6-14.4-19.2S2432,1594.6,2432,1594.6Z" style="fill:#e8d6c1"/><path d="M2445.8,1599.4s16,13.3,21.4,26.8l6.6-11.4-14-14.8-13-6.7Z" style="fill:#a86730"/><path d="M2432,1594.6s1.7,18.6,31.8,23.1l-1.2-19.5-8-7.7-8.8-1.8-9.1,1.6Z" style="fill:#a86730"/><path d="M2503.8,1802.5h-40v-5.4h39.9c1.1-.1,22.5-1,22.5-26.2,0-13.2-4.1-18.3-8.5-23.7s-9.7-12.2-9.7-27.7h5.5c0,13.5,4.1,18.7,8.5,24.3s9.7,12,9.7,27.1-7.6,23.8-14,27.5a30.5,30.5,0,0,1-13.9,4.1Z" style="fill:#333"/><path d="M2426.3,1827.4s13.3,26.7,7.6,31.6-16.5,1.4-16.5,1.4,2.7-10.3-3.8-30.1Z" style="fill:#e8d6c1"/><path d="M2433.9,1733l-47.1,35.2s24.7,60.2,25.1,71.7c0,0,12.3-.9,18.8-5.9l-17.3-54.4,65.8-10.2-2.3-27.1-14.3-11Z" style="fill:#923f20"/><path d="M2400.3,1703.9s-2.3,3.7-11.5,2.5c0,0-8.1,1.1-10.7,3.6,0,0-.8,0,1.1-2.4s7.5-10.6,18.1-8.4l4.5,1.6Z" style="fill:#e8d6c1"/><path d="M2397.7,1699.3s2.7,2,2.3,5.1c0,0,28.5,6.9,31.4,6.4s18.9-18.7,18.9-18.7l-12.8-9.9s-4.5,17.9-8.7,18.7S2397.7,1699.3,2397.7,1699.3Z" style="fill:#911a1d"/><path d="M2454.8,1638.4s-1,5.9,15.6-2.3l12.4,19.9s-3.9,45.8-2.2,54.8,6.2,26.9,6.2,26.9-45.4,5.4-52.9-3.1l6.5-36-.9-34.7,5.1-15.7Z" style="fill:#194967"/><path d="M2454.8,1638.4s-14.1,13.1-12.5,54.5-9.4,43.5-9.4,43.5l-2.2-1.1s8.9-31.9,7.2-49S2434,1646.1,2454.8,1638.4Z" style="fill:#bb3026"/><path d="M2432.9,1714.6s-5.1,3.7-16.7-2.8c0,0-11.3-3-16.1-1,0,0-1-.4,2.7-2.6s15.7-10,28.6-1.5l5.1,4.7Z" style="fill:#e8d6c1"/><path d="M2486.8,1737.7l-100.9,1.7a2.6,2.6,0,0,0-2.6,1.7c-4.8,10.6-31.3,68.9-36.4,70.9l17.9,12.5,27.4-60.1s76.2,12,90.1,3.8C2499.9,1757.7,2486.8,1737.7,2486.8,1737.7Z" style="fill:#a04a23"/><path d="M2417.8,1858.3s-8.3,16.1-15.1,20.2c0,0-1.4,2.4,4.3.9s28.4-16,28.4-16l4,7.9,2-1.2-6.2-17.2S2433.8,1858.5,2417.8,1858.3Z" style="fill:#911a1d"/><path d="M2470.6,1635.8s-19,7.4-19,49.2-3.6,64.5-3.6,64.5,27.7-15.6,43.5-6.5c0,0-8.2-21.1-5.8-39.7s8.7-47.4.3-56.3S2470.6,1635.8,2470.6,1635.8Z" style="fill:#bb3026"/><path d="M2482.4,1645s23.1,5.6-5.2,80.2c0,0-10.1,3.5-45.3-9.9,0,0,2.4-5.3-.5-8.6l30.8,4.4s11.5-20.8,5.8-53.6C2468,1657.5,2473.7,1645.3,2482.4,1645Z" style="fill:#911a1d"/><path d="M2478.3,1798.1c0,3.2-6.7,7.5-14.7,7.5s-14.2-4.3-14.2-7.5,6.2-4.1,14.2-4.1S2478.3,1795,2478.3,1798.1Z" style="fill:#333"/><rect x="2421" y="1770.9" width="85.7" height="22.32" rx="11.2" style="fill:#099ecb"/><rect x="2430.7" y="1793.3" width="68" height="4.89" rx="2.2" style="fill:#333"/><path d="M2464,1854.3v-.5a3.7,3.7,0,0,1-3.7-3.6v-46a3.7,3.7,0,0,1,3.7-3.6h0a3.6,3.6,0,0,1,3.6,3.6v46C2467.6,1852.2,2466,1854.3,2464,1854.3Z" style="fill:#333"/><path d="M2491.9,1870.6l-28.3-16.3a3.5,3.5,0,0,1-1.3-4.7h0a3.4,3.4,0,0,1,4.7-1.2l28.3,16.3a3.5,3.5,0,0,1,1.3,4.7h0A3.4,3.4,0,0,1,2491.9,1870.6Z" style="fill:#333"/><path d="M2435.9,1870.6l28.4-16.3a3.4,3.4,0,0,0,1.2-4.7h0a3.3,3.3,0,0,0-4.6-1.2l-28.4,16.3a3.5,3.5,0,0,0-1.2,4.7h0A3.3,3.3,0,0,0,2435.9,1870.6Z" style="fill:#333"/><circle cx="2498.3" cy="1870.4" r="9.7" style="fill:#333"/><circle cx="2498.3" cy="1870.4" r="5.5" style="fill:#606161"/><circle cx="2431.9" cy="1870.4" r="9.7" style="fill:#333"/><circle cx="2431.9" cy="1870.4" r="5.5" style="fill:#606161"/><path d="M2531.6,1679.2c-2.7,8-9.1,31.6-.3,53.2a2.1,2.1,0,0,1-1.9,2.9h-24a2.1,2.1,0,0,1-1.8-1c-2.1-3.6-7.9-17.5.3-56.2a2.2,2.2,0,0,1,2.1-1.6h23.6A2.1,2.1,0,0,1,2531.6,1679.2Z" style="fill:#0987a6"/><path d="M2526.6,1679.7c-2.7,8.3-8.7,31.2-.4,52.2a2.4,2.4,0,0,1-2.2,3.4h-23.3a2.4,2.4,0,0,1-2.1-1.2c-2.2-3.9-7.5-17.9.4-55.7a2.5,2.5,0,0,1,2.4-1.9h22.8A2.5,2.5,0,0,1,2526.6,1679.7Z" style="fill:#099ecb"/><rect x="2038.9" y="1712.2" width="383.8" height="6.68" style="fill:#9d6b29"/><rect x="2038.9" y="1715.6" width="383.8" height="3.34" style="fill:#7d551c"/><rect x="2075.2" y="1718.9" width="5.3" height="160.72" style="fill:#895b24"/><rect x="2377.2" y="1718.9" width="5.3" height="160.72" style="fill:#895b24"/><ellipse cx="2210.4" cy="1879" rx="88.8" ry="4.3" style="opacity:0.1"/><path d="M2174.9,1677.6s.6-14.6-3.4-17.1c-8.2-5.1-16.8.2-7.9,17.1Z" style="fill:#e8d6c1"/><path d="M2172.1,1862.9l3.2,14.8a1.4,1.4,0,0,1-1.3,1.7h-40.1a1.3,1.3,0,0,1-.5-2.6c6.4-2.9,22.3-7.8,25.7-13.3a1.2,1.2,0,0,1,1-.7l10.5-.9A1.4,1.4,0,0,1,2172.1,1862.9Z" style="fill:#171717"/><path d="M2209.7,1846.6l9.9,11.4a1.4,1.4,0,0,1-.3,2.1l-35.1,19.4a1.4,1.4,0,0,1-1.7-2.1c4.3-5.6,15.8-17.5,16-24a1.7,1.7,0,0,1,.6-1.1l8.8-5.9A1.4,1.4,0,0,1,2209.7,1846.6Z" style="fill:#171717"/><path d="M2280,1752.4s1.5,37.8-91.9,48.9l26.8,48.7-20.8,8.5-29.6-62.4-1.8-12.9Z" style="fill:#0e374c"/><path d="M2224.4,1747.4l-65.4,18.8a15.8,15.8,0,0,0-11.2,16.8l9.4,80.9s11.6,3.7,17.8-1.8l-6.2-71.9s106.6,13.4,111.5-38.8Z" style="fill:#194967"/><path d="M2216.3,1602.8s-5.6,24.2,5.8,33.4a14.3,14.3,0,0,0,7.9-1.5l2.5,11.6,18.6-1.5-4.6-37.5-9-12.7h-13.7Z" style="fill:#e8d6c1"/><path d="M2215.9,1608.3s-5.8-6.5,0-11.9c0,0-1.3-12.6,19.6-8.6,0,0,10.3-1.5,14.2,5.7,0,0,11.1,16.6,0,38.6,0,0-20.5,4-22.5-12.1,0,0,.2-8.8-5.5-10.2A5.4,5.4,0,0,1,2215.9,1608.3Z" style="fill:#7c471d"/><path d="M2254.6,1808c0,2.9-6.1,6.8-13.3,6.8s-13-3.9-13-6.8,5.7-3.7,13-3.7S2254.6,1805.2,2254.6,1808Z" style="fill:#333"/><path d="M2270.2,1803.6h-57.5a10.1,10.1,0,0,1-10.1-10.1h0a10.1,10.1,0,0,1,10.1-10.1h57.5a10.1,10.1,0,0,1,10.1,10.1h0A10.1,10.1,0,0,1,2270.2,1803.6Z" style="fill:#099ecb"/><rect x="2211.4" y="1803.6" width="61.7" height="4.44" rx="2" style="fill:#333"/><path d="M2241.6,1855.9h0a3.3,3.3,0,0,1-3.3-3.3v-39.1a3.2,3.2,0,0,1,3.3-3.2h0a3.2,3.2,0,0,1,3.3,3.2v39.1A3.3,3.3,0,0,1,2241.6,1855.9Z" style="fill:#333"/><path d="M2266.9,1870.8l-25.7-14.8a3.1,3.1,0,0,1-1.1-4.3h0a3.2,3.2,0,0,1,4.2-1.1l25.7,14.9a3.1,3.1,0,0,1,1.2,4.2h0A3.1,3.1,0,0,1,2266.9,1870.8Z" style="fill:#333"/><path d="M2216.1,1870.8l25.8-14.8a3.1,3.1,0,0,0,1.1-4.3h0a3.2,3.2,0,0,0-4.2-1.1l-25.7,14.9a3.1,3.1,0,0,0-1.2,4.2h0A3,3,0,0,0,2216.1,1870.8Z" style="fill:#333"/><circle cx="2272.7" cy="1870.6" r="8.8" transform="translate(-542.8 1012.1) rotate(-22.5)" style="fill:#333"/><circle cx="2272.9" cy="1870.8" r="5" style="fill:#606161"/><circle cx="2212.8" cy="1870.8" r="8.8" transform="translate(-116.4 3594.6) rotate(-76.7)" style="fill:#333"/><path d="M2217.8,1870.8a5,5,0,0,1-5,5,5,5,0,0,1-5-5,5,5,0,0,1,5-5A5.1,5.1,0,0,1,2217.8,1870.8Z" style="fill:#606161"/><path d="M2228.2,1647.3l.9-4.9s12.7-5.9,26.1-2.8l2.1,5s39.7,2.4,22.7,107.8c0,0-30.9,16.6-60.5-4.5,0,0-7.5-75.7-8.9-92.2Z" style="fill:#f6892e"/><path d="M2210.6,1655.7s-32.8,47.7-26.2,62.8c0,0,3.8,7.2,12.7,3.1S2232.5,1677.5,2210.6,1655.7Z" style="fill:#f6892e"/><rect x="2235.8" y="1665.8" width="60.8" height="60.83" rx="7.6" style="fill:#099ecb"/><rect x="2238.3" y="1665.8" width="60.8" height="60.83" rx="7.6" style="fill:#0987a6"/><circle cx="2271.1" cy="1697.5" r="13.3" style="fill:#333"/><path d="M2242.8,1810.5l-2.6-4.9,1.3,2.4-1.4-2.4c.1-.1,7.1-4,14-19.2s14.2-41,14.2-88.9h5.6C2273.9,1793.1,2244,1809.9,2242.8,1810.5Z" style="fill:#333"/><path d="M2186.5,1720.9l-23-43.8s3.6-6.6,10-4l29.1,31.4Z" style="fill:#f6892e"/><g style="clip-path:url(#b)"><rect x="2740.2" y="631.5" width="157.8" height="27.77" style="fill:#fff"/></g><polygon points="2853.2 555.3 2894.7 514.6 2856.6 514.6 2825.8 544.9 2825.8 570.8 2835.3 582.2 2835.3 582.3 2856.3 607.1 2896.8 607.1 2853.2 555.3" style="fill:#fff"/><polygon points="2825.8 534.7 2856.6 504.4 2856.6 500.7 2806 500.7 2806 523.9 2825.8 523.9 2825.8 534.7" style="fill:#fff"/><path d="M2818.4,593.2c-4.9,3.6-11.3,5.4-19.3,5.4l-5-.2a29.4,29.4,0,0,1-25.3-19,.4.4,0,0,1-.1-.3,25.2,25.2,0,0,1-1.3-4.7,72.3,72.3,0,0,1-.2-12.2H2742v14.4c0,1.2,0,2.4.1,3.5.5,9.3,2.5,12.2,2.7,12.4a30.5,30.5,0,0,0,4.3,7.7c4.8,6.5,11.4,11.4,20,14.7s18.7,5,30.2,5,21.6-1.7,30.1-5a45.1,45.1,0,0,0,15.7-9.8l-19.6-23.3A16.7,16.7,0,0,1,2818.4,593.2Z" style="fill:#fff"/><path d="M1201.3,569.2c-8.3-8.1-26.7-11-42.1-1.4-2.2,1.3-6.9,4.8-12.9,9.4L1134.8,563c2.8-2.8,5.4-5.5,7.7-8,12-13.4,7.8-33.5-3.5-43.9-9.7-8.8-21.6-8.4-30.4,1s-6.6,19.8-2.8,26.3c-8.3,6.1-17.2,11.9-24.6,16.4-7.5-4.5-16.4-10.3-24.7-16.4,3.8-6.5,6-16.8-2.8-26.3s-20.7-9.8-30.4-1c-11.3,10.4-15.5,30.5-3.5,43.9,2.3,2.5,4.9,5.2,7.8,8L1016,577.2c-6-4.6-10.7-8.1-12.9-9.4-15.4-9.6-33.8-6.7-42.1,1.4-13.9,13.6-12.1,32.5-2.3,42.9s23.5,12.2,38.8.2c24.8,17.7,79.9,68.7,80.5,69.2l3.2,2.9,3.1-2.9c.6-.5,55.7-51.5,80.5-69.2,15.3,12,30.3,8.8,38.8-.2S1215.2,582.8,1201.3,569.2Zm-37.2,6.4c11-6.9,25-5.4,30.7.2a24.7,24.7,0,0,1,5.7,8c-7.9,1.9-21,7.5-38,18.9-14.3,9.6-41.1,32.9-60.7,50.5l-5.3-25.2C1117.1,611.6,1156.6,580.3,1164.1,575.6Zm-25.1,7.2c-14,10.8-31.8,24.9-44.6,35.1l-7.2-34.7,4.6-2.6,9,11.2,3.6-2.8c.7-.5,12.3-9.6,23.6-19.8Zm-23.6-64.5c3-3.2,5.9-4.3,8.6-4.3a11.8,11.8,0,0,1,6,1.8c-2.8,4.9-9.2,10.9-16.8,17C1111.5,529.3,1110.3,523.8,1115.4,518.3Zm21.2,4.2c4.6,7.3,6.3,18.2-1,26.4-9.3,10.4-26.1,24.2-33.3,30.1l-14.2-17.7C1099.3,554.5,1126.2,537.2,1136.6,522.5Zm-89.6-4.2a12.3,12.3,0,0,1,2.1,14.5c-7.6-6.1-14-12.1-16.8-17C1036,513.5,1041.4,512.4,1047,518.3Zm-21.3,4.2c10.4,14.7,37.3,32,48.5,38.8L1060,579c-7.2-5.9-24-19.7-33.3-30.1C1019.4,540.7,1021.1,529.8,1025.7,522.5Zm8.6,46.7c11.3,10.2,22.9,19.3,23.6,19.8l3.6,2.8,9.1-11.2,4.5,2.6h0l-7.2,34.7c-12.8-10.2-30.6-24.3-44.6-35.1Zm-36.1,6.4c6.9,4.3,42.3,32.2,67.6,52.4l-5.3,25.2c-19.6-17.6-46.4-40.9-60.7-50.5-17-11.4-30-17-38-18.9a24.7,24.7,0,0,1,5.7-8C973.2,570.2,987.2,568.7,998.2,575.6Zm-32.8,30.2a20.1,20.1,0,0,1-5.3-12.9c5.2,1.3,15,5,29.3,14C979,613.7,970.4,611.1,965.4,605.8Zm207.6,1.1c14.2-9,24-12.7,29.2-14a20.1,20.1,0,0,1-5.3,12.9C1191.9,611.1,1183.3,613.7,1173,606.9Z" style="fill:#fff"/></svg>