<svg xmlns="http://www.w3.org/2000/svg" xmlns:xlink="http://www.w3.org/1999/xlink" viewBox="0 0 384 384"><defs><linearGradient id="a" x1="256" y1="384.1" x2="256" y2="64" gradientUnits="userSpaceOnUse"><stop offset="0" stop-color="#70eeff"/><stop offset="1" stop-color="#5770ff"/></linearGradient><linearGradient id="b" x1="256.2" y1="448" x2="256.2" y2="405" xlink:href="#a"/></defs><path d="M381.7,225.9c0-97.6-52.5-130.8-101.6-138.2,0-.5.1-1,.1-1.6C280.2,73.8,269.3,64,256,64s-23.8,9.8-23.8,22.1a8.1,8.1,0,0,0,.1,1.6c-49.2,7.5-102,40.8-102,138.4,0,113.8-28.3,126-66.3,158H448C410.2,352,381.7,339.7,381.7,225.9Z" transform="translate(-64 -64)" style="fill:url(#a)"/><path d="M256.2,448c26.8,0,48.8-19.9,51.7-43H204.5C207.3,428.1,229.4,448,256.2,448Z" transform="translate(-64 -64)" style="fill:url(#b)"/></svg>