<svg xmlns="http://www.w3.org/2000/svg" xmlns:xlink="http://www.w3.org/1999/xlink" viewBox="0 0 938.6 338.6"><defs><radialGradient id="a" cx="1445.38" cy="1914.38" r="81.24" gradientTransform="matrix(-4.01, 0, 0, -1.38, 6235.24, 2952.07)" gradientUnits="userSpaceOnUse"><stop offset="0" stop-color="#fff"/><stop offset="0.16" stop-color="#fcfcfc"/><stop offset="0.29" stop-color="#f2f2f2"/><stop offset="0.41" stop-color="#e1e1e1"/><stop offset="0.52" stop-color="#c9c9c9"/><stop offset="0.63" stop-color="#aaa"/><stop offset="0.74" stop-color="#848484"/><stop offset="0.84" stop-color="#575757"/><stop offset="0.94" stop-color="#242424"/><stop offset="1"/></radialGradient><mask id="b" x="103.11" y="271.76" width="669.2" height="66.88" maskUnits="userSpaceOnUse"><g transform="translate(0 -17)"><polygon points="111.3 288.8 772.3 289.3 772.2 324.6 111.2 324.1 111.3 288.8" style="fill:url(#a)"/></g></mask><linearGradient id="c" x1="433.71" y1="278.74" x2="433.71" y2="340.26" gradientUnits="userSpaceOnUse"><stop offset="0" stop-color="#71756f"/><stop offset="0.03" stop-color="#828680"/><stop offset="0.1" stop-color="#a3a6a2"/><stop offset="0.18" stop-color="#c0c2bf"/><stop offset="0.27" stop-color="#d7d8d7"/><stop offset="0.37" stop-color="#e9eae9"/><stop offset="0.49" stop-color="#f6f6f6"/><stop offset="0.65" stop-color="#fdfdfd"/><stop offset="1" stop-color="#fff"/></linearGradient><linearGradient id="d" x1="377.93" y1="36.79" x2="377.93" y2="508.44" gradientUnits="userSpaceOnUse"><stop offset="0" stop-color="#00beff"/><stop offset="1" stop-color="#007dff"/></linearGradient><clipPath id="e" transform="translate(0 -17)"><path d="M905.2,213.3c-.5-45.5-60.9-90.8-61.4-136.2l-310.7.7c-.1,11.8-.2,23.7-.4,35.5-.6,50.4-1.8,100.8-2.4,151.1-.2,13.3-.3,26.6-.6,39.9l321-.8c.1-2.7,30.6-28.9,30.7-31.6C882,244.5,905.5,240.6,905.2,213.3Z" style="fill:none"/></clipPath><linearGradient id="f" x1="676.79" y1="52.64" x2="935.87" y2="382.37" xlink:href="#d"/><clipPath id="g" transform="translate(0 -17)"><path d="M916.8,0h-264V172H658a120.5,120.5,0,0,0-1.3,18.1c0,70.7,57.4,128.2,128.1,128.2S913,260.8,913,190.2a135.6,135.6,0,0,0-1.3-18.2h5.1Z" style="fill:none"/></clipPath><linearGradient id="h" x1="840.08" y1="329.2" x2="839.47" y2="109.11" gradientUnits="userSpaceOnUse"><stop offset="0" stop-color="#b2b2b2"/><stop offset="1" stop-color="#ddd"/></linearGradient><linearGradient id="i" x1="812.82" y1="336.72" x2="813.43" y2="109.31" gradientUnits="userSpaceOnUse"><stop offset="0" stop-color="#b8b8b8"/><stop offset="1" stop-color="#dbdbdb"/></linearGradient><linearGradient id="j" x1="730.03" y1="329.51" x2="729.42" y2="109.42" xlink:href="#h"/><linearGradient id="k" x1="756.23" y1="336.56" x2="756.84" y2="109.16" xlink:href="#i"/><linearGradient id="l" x1="784.83" y1="87.78" x2="784.83" y2="244.93" gradientUnits="userSpaceOnUse"><stop offset="0" stop-color="#a7d63f"/><stop offset="0.07" stop-color="#9fd440"/><stop offset="1" stop-color="#39b54a"/></linearGradient></defs><g style="isolation:isolate"><g style="mask:url(#b)"><polygon points="103.1 338.1 764.1 338.6 764.3 284.1 103.3 283.6 103.1 338.1" style="opacity:0.35000000000000003;mix-blend-mode:multiply;fill:url(#c)"/></g><path d="M724.1,213.7c-.4-45.5,32.1-90.9,31.7-136.3H113.2A113.2,113.2,0,0,0,0,190.6H0A113.2,113.2,0,0,0,113.2,303.8H755.8C755.9,301.1,724.3,241,724.1,213.7Z" transform="translate(0 -17)" style="fill:url(#d)"/><path d="M94,243.1v-105h22.2c8.7,0,15.3,2.3,19.7,7.1s6.7,11.4,6.7,20v49.2c0,9.8-2.3,17.1-7.1,21.7s-11.6,7-20.6,7Zm15-90.9V229h6.9c4.3,0,7.3-1.1,9-3.2s2.7-5.4,2.7-10V165.2c0-4.1-.8-7.3-2.5-9.6s-4.7-3.4-9.2-3.4Z" transform="translate(0 -17)" style="fill:#fff"/><path d="M155.9,162.9a27.6,27.6,0,0,1,2.2-11.2,25,25,0,0,1,5.9-8.2,27.3,27.3,0,0,1,8.1-4.7,26.4,26.4,0,0,1,18.1,0,27.8,27.8,0,0,1,8.2,4.7,24.8,24.8,0,0,1,5.8,8.2,27.6,27.6,0,0,1,2.2,11.2v55.4a27.6,27.6,0,0,1-2.2,11.4,22.1,22.1,0,0,1-5.8,7.8,24.5,24.5,0,0,1-8.2,4.9,26.4,26.4,0,0,1-18.1,0,24.1,24.1,0,0,1-8.1-4.9,22.4,22.4,0,0,1-5.9-7.8,27.6,27.6,0,0,1-2.2-11.4ZM171,218.3q0,5.5,3,8.1a11.1,11.1,0,0,0,14.3,0q3-2.6,3-8.1V162.9q0-5.6-3-8.1a11.1,11.1,0,0,0-14.3,0q-3,2.5-3,8.1Z" transform="translate(0 -17)" style="fill:#fff"/><path d="M295.9,138.1l-15.6,105H266.1L254.6,175h-.3L243,243.1H228.8l-15.6-105h15.9l7.5,66.7h.3l11.8-66.7h11.5l12.3,68.3h.3l7.2-68.3Z" transform="translate(0 -17)" style="fill:#fff"/><path d="M304.8,243.1v-105h14.5L342,201.4h.3V138.1h15v105H343.2L320.1,180h-.3v63.1Z" transform="translate(0 -17)" style="fill:#fff"/><path d="M370.9,243.1v-105h15v90h29.8v15Z" transform="translate(0 -17)" style="fill:#fff"/><path d="M424.6,162.9a26,26,0,0,1,2.2-11.2,25,25,0,0,1,5.9-8.2,26.5,26.5,0,0,1,26.2-4.7,29.1,29.1,0,0,1,8.2,4.7,24.6,24.6,0,0,1,5.7,8.2,26,26,0,0,1,2.3,11.2v55.4a26,26,0,0,1-2.3,11.4,21.9,21.9,0,0,1-5.7,7.8,25.6,25.6,0,0,1-8.2,4.9,26.4,26.4,0,0,1-18.1,0,23.2,23.2,0,0,1-8.1-4.9,22.4,22.4,0,0,1-5.9-7.8,26.1,26.1,0,0,1-2.2-11.4Zm15,55.4c0,3.7,1.1,6.4,3.1,8.1a11.1,11.1,0,0,0,14.3,0q3-2.6,3-8.1V162.9q0-5.6-3-8.1a11.1,11.1,0,0,0-14.3,0c-2,1.7-3.1,4.4-3.1,8.1Z" transform="translate(0 -17)" style="fill:#fff"/><path d="M479.8,243.1l23.4-105h12.6l23.4,105h-15l-4.4-22.5H499.3l-4.5,22.5ZM517,206.4l-7.4-38.1h-.3l-7.4,38.1Z" transform="translate(0 -17)" style="fill:#fff"/><path d="M546.6,243.1v-105h22.3c8.6,0,15.2,2.3,19.7,7.1s6.7,11.4,6.7,20v49.2c0,9.8-2.4,17.1-7.2,21.7s-11.6,7-20.5,7Zm15.1-90.9V229h6.9c4.2,0,7.2-1.1,9-3.2s2.7-5.4,2.7-10V165.2c0-4.1-.9-7.3-2.6-9.6s-4.7-3.4-9.1-3.4Z" transform="translate(0 -17)" style="fill:#fff"/><g style="clip-path:url(#e)"><g style="opacity:0.5;mix-blend-mode:soft-light"><path d="M862.9,87.5A145.1,145.1,0,0,0,657.6,292.7,145.1,145.1,0,1,0,862.9,87.5Z" transform="translate(0 -17)" style="opacity:0"/><path d="M864.1,87.5A145.1,145.1,0,1,0,658.9,292.7,145.1,145.1,0,1,0,864.1,87.5Z" transform="translate(0 -17)" style="opacity:0.07692299999999999"/><path d="M865.4,87.5A145.1,145.1,0,1,0,660.1,292.7,145.1,145.1,0,1,0,865.4,87.5Z" transform="translate(0 -17)" style="opacity:0.15384599999999998"/><path d="M866.6,87.5A145.1,145.1,0,1,0,661.3,292.7,145.1,145.1,0,1,0,866.6,87.5Z" transform="translate(0 -17)" style="opacity:0.230769"/><path d="M867.8,87.5A145.1,145.1,0,1,0,662.5,292.7,145.1,145.1,0,1,0,867.8,87.5Z" transform="translate(0 -17)" style="opacity:0.30769199999999997"/><path d="M869,87.5A145.1,145.1,0,1,0,663.8,292.7,145.1,145.1,0,1,0,869,87.5Z" transform="translate(0 -17)" style="opacity:0.384615"/><path d="M870.3,87.5A145.1,145.1,0,1,0,665,292.7,145.1,145.1,0,0,0,870.3,87.5Z" transform="translate(0 -17)" style="opacity:0.461538"/><path d="M871.5,87.5A145.1,145.1,0,1,0,666.2,292.7,145.1,145.1,0,1,0,871.5,87.5Z" transform="translate(0 -17)" style="opacity:0.538462"/><path d="M872.7,87.5A145.1,145.1,0,1,0,667.4,292.7,145.1,145.1,0,1,0,872.7,87.5Z" transform="translate(0 -17)" style="opacity:0.615385"/><path d="M873.9,87.5A145.1,145.1,0,0,0,668.6,292.7,145.1,145.1,0,1,0,873.9,87.5Z" transform="translate(0 -17)" style="opacity:0.6923079999999999"/><path d="M875.1,87.5A145.1,145.1,0,1,0,669.9,292.7,145.1,145.1,0,1,0,875.1,87.5Z" transform="translate(0 -17)" style="opacity:0.769231"/><path d="M876.4,87.5A145.1,145.1,0,1,0,671.1,292.7,145.1,145.1,0,1,0,876.4,87.5Z" transform="translate(0 -17)" style="opacity:0.846154"/><path d="M877.6,87.5A145.1,145.1,0,1,0,672.3,292.7,145.1,145.1,0,1,0,877.6,87.5Z" transform="translate(0 -17)" style="opacity:0.9230769999999999"/><path d="M878.8,87.5A145.1,145.1,0,1,0,673.5,292.7,145.1,145.1,0,1,0,878.8,87.5Z" transform="translate(0 -17)"/></g></g><circle cx="784.8" cy="190.1" r="141" transform="translate(95.4 593.6) rotate(-45)" style="fill:#fdfdfd"/><path d="M784.9,36.4A153.7,153.7,0,0,0,676.1,298.9,153.8,153.8,0,1,0,784.9,36.4Zm-.1,281.9c-70.7,0-128.1-57.5-128.1-128.2S714.2,62,784.8,62A128.3,128.3,0,0,1,913,190.2C913,260.8,855.5,318.3,784.8,318.3Z" transform="translate(0 -17)" style="fill:url(#f)"/><g style="clip-path:url(#g)"><path d="M683.4,17a13,13,0,0,0-13,13V308.9a13,13,0,0,0,13,13H886.3a13,13,0,0,0,13-13V55.9L860.4,17Z" transform="translate(0 -17)" style="fill:#f2f2f2"/><path d="M873.4,55.9h25.9L860.4,17V42.9A13,13,0,0,0,873.4,55.9Z" transform="translate(0 -17)" style="fill:#e6e6e6"/><path d="M788.4,299.8c20.5-26.9,52.3-26.9,75-43.1,36.8-26.3,33.9-90.6,10.2-125.9-9.3,66.3-85.2,49.5-85.2,169" transform="translate(0 -17)" style="fill-rule:evenodd;fill:url(#h)"/><path d="M788.4,299.8c20.5-26.9,52.3-26.9,75-43.1,14.1-10.1,22.4-25.8,25.9-43.3a87.3,87.3,0,0,0-21.2-2.5,90.1,90.1,0,0,0-73.5,37.7c-3.9,13.7-6.2,30.3-6.2,51.2" transform="translate(0 -17)" style="fill:#b2b2b2;fill-rule:evenodd;opacity:0.30000000000000004"/><path d="M788.4,299.8c20.5-26.9,52.3-26.9,75-43.1,36.8-26.3,33.9-90.6,10.2-125.9,22.9,121.1-72.8,100.6-85.2,169" transform="translate(0 -17)" style="fill:#b0b0b0;fill-rule:evenodd;opacity:0.30000000000000004"/><path d="M846,178.8c-25,22.9-57.6,42.7-57.6,121,10.2-22,31.9-36.8,57.6-44.6Z" transform="translate(0 -17)" style="fill:#9c9c9c;fill-rule:evenodd;opacity:0.30000000000000004"/><path d="M837.8,136.7V248.5c-22.1,10.7-40.6,28.1-49.4,51.3V216.9c0-35.7,20.4-63.5,49.4-80.2" transform="translate(0 -17)" style="fill-rule:evenodd;fill:url(#i)"/><path d="M788.4,299.8c0-67.7,24.3-91.6,47.1-111.7v59c-18.8,9.4-39.9,28.1-47.1,52.7" transform="translate(0 -17)" style="fill:#b8b8b8;fill-rule:evenodd;opacity:0.30000000000000004"/><path d="M788.4,232.9c0-35.7,20.4-63.5,49.4-80.2v-16c-29,16.7-49.4,44.5-49.4,80.2Z" transform="translate(0 -17)" style="fill:#f2f2f2;fill-rule:evenodd;opacity:0.30000000000000004"/><path d="M837.8,136.7V248.5c-22.1,10.7-40.6,28.1-49.4,51.3,7.2-24.6,28.3-43.3,47.1-52.7v-109l2.3-1.4" transform="translate(0 -17)" style="fill:#f2f2f2;fill-rule:evenodd;opacity:0.30000000000000004"/><path d="M781.2,299.8c-20.5-26.9-52.3-26.9-75-43.1-36.7-26.3-33.9-90.6-10.1-125.9,9.3,66.3,85.1,49.5,85.1,169" transform="translate(0 -17)" style="fill-rule:evenodd;fill:url(#j)"/><path d="M781.2,299.8c-20.5-26.9-52.3-26.9-75-43.1-14.1-10.1-22.4-25.8-25.9-43.3a88.7,88.7,0,0,1,21.3-2.5,90.1,90.1,0,0,1,73.5,37.7c3.8,13.7,6.1,30.3,6.1,51.2" transform="translate(0 -17)" style="fill:#b2b2b2;fill-rule:evenodd;opacity:0.30000000000000004"/><path d="M781.2,299.8c-20.5-26.9-52.3-26.9-75-43.1-36.7-26.3-33.9-90.6-10.1-125.9-22.9,121.1,72.7,100.6,85.1,169" transform="translate(0 -17)" style="fill:#b0b0b0;fill-rule:evenodd;opacity:0.30000000000000004"/><path d="M723.6,178.8c25.1,22.9,57.6,42.7,57.6,121-10.2-22-31.8-36.8-57.6-44.6Z" transform="translate(0 -17)" style="fill:#9c9c9c;fill-rule:evenodd;opacity:0.30000000000000004"/><path d="M731.9,136.7V248.5c22,10.7,40.6,28.1,49.3,51.3V216.9c0-35.7-20.4-63.5-49.3-80.2" transform="translate(0 -17)" style="fill-rule:evenodd;fill:url(#k)"/><path d="M781.2,299.8c0-67.7-24.3-91.6-47.1-111.7v59c18.9,9.4,39.9,28.1,47.1,52.7" transform="translate(0 -17)" style="fill:#b8b8b8;fill-rule:evenodd;opacity:0.30000000000000004"/><path d="M781.2,232.9c0-35.7-20.4-63.5-49.3-80.2v-16c28.9,16.7,49.3,44.5,49.3,80.2Z" transform="translate(0 -17)" style="fill:#f2f2f2;fill-rule:evenodd;opacity:0.30000000000000004"/><path d="M731.9,136.7V248.5c22,10.7,40.6,28.1,49.3,51.3-7.2-24.6-28.2-43.3-47.1-52.7v-109l-2.2-1.4" transform="translate(0 -17)" style="fill:#f2f2f2;fill-rule:evenodd;opacity:0.30000000000000004"/><polygon points="808.5 155.4 808.5 99.9 761.1 99.9 761.1 155.4 734.8 155.4 759.8 188.8 784.8 222.1 809.8 188.8 834.8 155.4 808.5 155.4" style="fill:url(#l)"/></g><g style="opacity:0.05"><circle cx="784.8" cy="190.1" r="128.2" transform="translate(95.4 593.6) rotate(-45)"/><circle cx="784.8" cy="187" r="128.2" transform="translate(97.7 592.7) rotate(-45)" style="opacity:0.9230769999999999"/><circle cx="784.8" cy="183.8" r="128.2" transform="translate(99.9 591.8) rotate(-45)" style="opacity:0.846154"/><circle cx="784.8" cy="180.7" r="128.2" transform="translate(102.1 590.9) rotate(-45)" style="opacity:0.769231"/><circle cx="784.8" cy="177.5" r="128.2" transform="translate(104.3 590) rotate(-45)" style="opacity:0.6923079999999999"/><circle cx="784.8" cy="174.4" r="128.2" transform="translate(106.6 589) rotate(-45)" style="opacity:0.615385"/><circle cx="784.8" cy="171.2" r="128.2" transform="translate(108.8 588.1) rotate(-45)" style="opacity:0.538462"/><circle cx="784.8" cy="168.1" r="128.2" transform="translate(111 587.2) rotate(-45)" style="opacity:0.461538"/><circle cx="784.8" cy="164.9" r="128.2" transform="translate(113.3 586.3) rotate(-45)" style="opacity:0.384615"/><circle cx="784.8" cy="161.8" r="128.2" transform="translate(115.5 585.3) rotate(-45)" style="opacity:0.30769199999999997"/><circle cx="784.8" cy="158.6" r="128.2" transform="translate(117.7 584.4) rotate(-45)" style="opacity:0.230769"/><circle cx="784.8" cy="155.4" r="128.2" transform="translate(120 583.5) rotate(-45)" style="opacity:0.15384599999999998"/><circle cx="784.8" cy="152.3" r="128.2" transform="translate(122.2 582.6) rotate(-45)" style="opacity:0.07692299999999999"/><circle cx="784.8" cy="149.1" r="128.2" transform="translate(124.4 581.6) rotate(-45)" style="opacity:0"/></g></g></svg>