<svg xmlns="http://www.w3.org/2000/svg" xmlns:xlink="http://www.w3.org/1999/xlink" viewBox="0 0 29.2 29.2"><defs><linearGradient id="a" x1="3.84" y1="-78.76" x2="33.08" y2="-78.76" gradientTransform="translate(-64.1 -3.8) rotate(90)" gradientUnits="userSpaceOnUse"><stop offset="0" stop-color="#fff"/><stop offset="1" stop-color="#d9d9d9"/></linearGradient><linearGradient id="b" x1="14.88" y1="29.24" x2="14.88" y2="6.19" gradientUnits="userSpaceOnUse"><stop offset="0" stop-color="#5770ff"/><stop offset="1" stop-color="#70efff"/></linearGradient></defs><path d="M0,21.6V7.6A7.6,7.6,0,0,1,7.6,0h14a7.6,7.6,0,0,1,7.6,7.6v14a7.6,7.6,0,0,1-7.6,7.6H16.9l-2.4-.6-2.2.6H7.6A7.6,7.6,0,0,1,0,21.6Z" style="fill:url(#a)"/><path d="M20.3,19.3l.7-4.2H16.9V12.4a2.1,2.1,0,0,1,2.4-2.3h1.8V6.5a19.9,19.9,0,0,0-3.2-.3c-3.4,0-5.6,2-5.6,5.7v3.2H8.6v4.2h3.7v9.9h4.6V19.3Z" style="fill:url(#b)"/></svg>