<svg xmlns="http://www.w3.org/2000/svg" xmlns:xlink="http://www.w3.org/1999/xlink" viewBox="0 0 600 600"><defs><linearGradient id="a" x1="300.71" y1="-392.59" x2="301.29" y2="197.76" gradientTransform="matrix(1, 0, 0, -1, -1, 205)" gradientUnits="userSpaceOnUse"><stop offset="0" stop-color="#d9d9d9"/><stop offset="1" stop-color="#fff"/></linearGradient><linearGradient id="b" x1="303.85" y1="170.6" x2="303.85" y2="423.7" gradientUnits="userSpaceOnUse"><stop offset="0" stop-color="#70efff"/><stop offset="1" stop-color="#5770ff"/></linearGradient></defs><path d="M137.7,0H462.3A137.4,137.4,0,0,1,600,137.1h0V462.3A137.4,137.4,0,0,1,462.9,600H137.7A137.4,137.4,0,0,1,0,462.9H0V137.7A137.4,137.4,0,0,1,137.1,0h.6Z" transform="translate(0 0)" style="fill:url(#a)"/><path d="M131.5,170.6a25.2,25.2,0,0,0-9,1.7L179,230.4l57,59.2,1.1,1.2,1.6,1.7,1.7,1.7,3.3,3.5,49,50.2c.8.5,3.2,2.7,5,3.6a19.9,19.9,0,0,0,7.6,2.4,17.6,17.6,0,0,0,8.4-2c1.9-.9,2.8-2.2,5-4l56.7-58.5,57.3-59,55.2-56.9a25,25,0,0,0-11.7-2.9Zm-17.3,7.1c-6.1,5.7-9.8,14.3-9.8,24V392.5a34.1,34.1,0,0,0,6.6,20.4l8-7.5,58.9-57.3,52.3-50.6-1-1.3-57.3-58.9-57.3-59.2Zm381.2,1.9-55.8,57.7-57.1,58.9-1,1.1L435.8,350l59,57.3,3.5,3.3a33.8,33.8,0,0,0,5-18.1V201.7a33.7,33.7,0,0,0-7.9-22.1ZM236.9,304.4,184.8,355l-59.2,57.3-7.5,7.3a25.4,25.4,0,0,0,13.4,4.1H476.2a25.1,25.1,0,0,0,15.7-5.8l-3.8-3.7L429,356.9l-54.4-52.5-49,50.4c-2.6,1.7-4.4,3.7-7,4.9-4.1,1.9-8.7,3.5-13.3,3.5s-9.1-1.9-13.2-3.9c-2.1-1-3.2-2.1-5.6-4.1Z" transform="translate(0 0)" style="fill:url(#b)"/></svg>