<svg xmlns="http://www.w3.org/2000/svg" xmlns:xlink="http://www.w3.org/1999/xlink" viewBox="0 0 600 600"><defs><linearGradient id="a" x1="300.71" y1="-392.59" x2="301.29" y2="197.76" gradientTransform="matrix(1, 0, 0, -1, -1, 205)" gradientUnits="userSpaceOnUse"><stop offset="0" stop-color="#d9d9d9"/><stop offset="1" stop-color="#fff"/></linearGradient><linearGradient id="b" x1="300" y1="233.55" x2="300" y2="477.21" gradientUnits="userSpaceOnUse"><stop offset="0" stop-color="#70efff"/><stop offset="1" stop-color="#5770ff"/></linearGradient><linearGradient id="c" y1="122.79" y2="349.62" xlink:href="#b"/></defs><path d="M137.7,0H462.3A137.4,137.4,0,0,1,600,137.1h0V462.3A137.4,137.4,0,0,1,462.9,600H137.7A137.4,137.4,0,0,1,0,462.9H0V137.7A137.4,137.4,0,0,1,137.1,0h.6Z" transform="translate(0 0)" style="fill:url(#a)"/><path d="M484.2,234.4l-95.6,43.4V477.2l96.9-38.8a21.9,21.9,0,0,0,13.9-20.5V244.6a11.1,11.1,0,0,0-11.1-11.1A9.8,9.8,0,0,0,484.2,234.4ZM114.5,272.3a22.2,22.2,0,0,0-13.9,20.6V466.1a11.1,11.1,0,0,0,11.1,11.1,14.1,14.1,0,0,0,4.1-.7l95.6-43.6V271.5a207,207,0,0,1-14.7-32.1ZM300,371.8A32.9,32.9,0,0,1,274.7,360c-13.6-16-28.1-34.3-41.2-53.1v126l133,44.3V306.9c-13.1,18.8-27.6,37.1-41.2,53.1A32.9,32.9,0,0,1,300,371.8Z" transform="translate(0 0)" style="opacity:0.8999999761581421;isolation:isolate;fill:url(#b)"/><path d="M300,122.8A87.1,87.1,0,0,0,212.8,210c0,39,57,109.9,78.8,135.7a11,11,0,0,0,15.4,1.4,9.3,9.3,0,0,0,1.4-1.4c21.8-25.8,78.8-96.7,78.8-135.7A87.1,87.1,0,0,0,300,122.8Zm0,116.3A29.1,29.1,0,1,1,329.1,210,29.1,29.1,0,0,1,300,239.1Z" transform="translate(0 0)" style="fill:url(#c)"/></svg>