<svg xmlns="http://www.w3.org/2000/svg" xmlns:xlink="http://www.w3.org/1999/xlink" viewBox="0 0 90 90"><defs><linearGradient id="a" x1="-600.97" y1="606.21" x2="-600.97" y2="604.71" gradientTransform="matrix(60, 0, 0, -60, 36103, 36373)" gradientUnits="userSpaceOnUse"><stop offset="0" stop-color="#fff"/><stop offset="0.99" stop-color="#d9d9d9"/></linearGradient><linearGradient id="b" x1="44.75" y1="16.08" x2="44.75" y2="73.5" gradientUnits="userSpaceOnUse"><stop offset="0" stop-color="#82ceff"/><stop offset="1" stop-color="#2980b9"/></linearGradient></defs><path d="M58.6,0c9,0,13.5,0,18.4,1.5A18.9,18.9,0,0,1,88.4,12.9c1.6,5,1.6,9.5,1.6,18.5V58.6c0,9,0,13.5-1.5,18.4A18.9,18.9,0,0,1,77.1,88.4C72.2,90,67.7,90,58.6,90H31.4c-9,0-13.5,0-18.4-1.5A19.3,19.3,0,0,1,1.6,77C0,72.2,0,67.7,0,58.6V31.4c0-9,0-13.5,1.5-18.4A19.3,19.3,0,0,1,13,1.6C17.9,0,22.4,0,31.4,0Z" style="fill:url(#a)"/><path d="M20.7,39.3c-3.3-6-4.6-10.9-4.6-14.2s.8-4.2,1.6-5,4.5-3,5.2-3.5a3.2,3.2,0,0,1,4.5.9l6.3,9.4c3.1,4.1.6,5.9-.2,7s-2.3,2.5-2.3,4.9,6.8,9.4,8.4,11.1,8.4,7.6,10.5,8,5-1.9,5.6-2.5c3.1-2.4,4.8-.6,6.2.2l9.8,6.1a3.8,3.8,0,0,1,1.7,3.4,18.7,18.7,0,0,1-4.3,6.8c-.7.7-2,1.6-5.1,1.6s-6.5-.6-14.5-5A81.1,81.1,0,0,1,33.5,56,79.7,79.7,0,0,1,20.7,39.3Z" style="fill:url(#b)"/></svg>